M48
; DRILL file {KiCad 8.0.0} date 2024-03-07T09:06:32+0800
; FORMAT={-:-/ absolute / metric / decimal}
; #@! TF.CreationDate,2024-03-07T09:06:32+08:00
; #@! TF.GenerationSoftware,Kicad,Pcbnew,8.0.0
; #@! TF.FileFunction,Plated,1,2,PTH
FMAT,2
METRIC
; #@! TA.AperFunction,Plated,PTH,ViaDrill
T1C0.305
; #@! TA.AperFunction,Plated,PTH,ViaDrill
T2C0.508
; #@! TA.AperFunction,Plated,PTH,ComponentDrill
T3C0.750
; #@! TA.AperFunction,Plated,PTH,ComponentDrill
T4C0.800
; #@! TA.AperFunction,Plated,PTH,ComponentDrill
T5C0.900
; #@! TA.AperFunction,Plated,PTH,ComponentDrill
T6C0.950
; #@! TA.AperFunction,Plated,PTH,ComponentDrill
T7C1.000
; #@! TA.AperFunction,Plated,PTH,ComponentDrill
T8C1.300
%
G90
G05
T1
X64.135Y-92.837
X64.821Y-102.997
X65.401Y-92.837
X66.802Y-103.505
X67.056Y-93.726
X67.058Y-95.379
X67.564Y-94.386
X67.564Y-96.012
X67.945Y-97.616
X67.945Y-102.235
X68.709Y-98.296
X69.217Y-102.235
X69.85Y-95.25
X70.104Y-93.472
X70.104Y-94.361
X72.39Y-99.06
X75.946Y-89.916
X159.766Y-77.392
X161.925Y-75.565
T2
X62.484Y-99.06
T3
X172.974Y-74.422
X174.244Y-74.422
X175.514Y-74.422
T4
X61.976Y-57.768
X61.976Y-62.648
X64.77Y-69.938
X64.77Y-72.438
X64.77Y-77.05
X64.77Y-79.55
X64.77Y-84.162
X64.77Y-86.662
X77.46Y-107.686
X77.46Y-110.226
X77.46Y-112.766
X77.46Y-115.306
X78.476Y-54.62
X78.476Y-57.16
X78.476Y-59.7
X78.476Y-62.24
X78.476Y-64.78
X78.476Y-67.32
X78.476Y-69.86
X78.476Y-72.4
X81.016Y-92.446
X81.016Y-100.066
X83.556Y-92.446
X83.556Y-100.066
X85.08Y-107.686
X85.08Y-110.226
X85.08Y-112.766
X85.08Y-115.306
X86.096Y-54.62
X86.096Y-57.16
X86.096Y-59.7
X86.096Y-62.24
X86.096Y-64.78
X86.096Y-67.32
X86.096Y-69.86
X86.096Y-72.4
X86.096Y-92.446
X86.096Y-100.066
X88.636Y-92.446
X88.636Y-100.066
X89.921Y-77.988
X89.921Y-85.608
X91.176Y-92.446
X91.176Y-100.066
X91.181Y-57.907
X91.181Y-73.147
X92.461Y-77.988
X92.461Y-85.608
X93.716Y-92.446
X93.716Y-100.066
X93.721Y-57.907
X93.721Y-73.147
X95.001Y-77.988
X95.001Y-85.608
X96.256Y-92.446
X96.256Y-100.066
X96.261Y-57.907
X96.261Y-73.147
X97.541Y-77.988
X97.541Y-85.608
X98.796Y-92.446
X98.796Y-100.066
X98.801Y-57.907
X98.801Y-73.147
X100.081Y-77.988
X100.081Y-85.608
X101.341Y-57.907
X101.341Y-73.147
X102.621Y-77.988
X102.621Y-85.608
X103.881Y-57.907
X103.881Y-73.147
X105.161Y-77.988
X105.161Y-85.608
X106.416Y-92.7
X106.416Y-95.24
X106.416Y-97.78
X106.416Y-100.32
X106.421Y-57.907
X106.421Y-73.147
X108.961Y-57.907
X108.961Y-73.147
X111.501Y-57.907
X111.501Y-73.147
X114.036Y-92.7
X114.036Y-95.24
X114.036Y-97.78
X114.036Y-100.32
X114.041Y-57.907
X114.041Y-73.147
X115.58Y-77.988
X115.58Y-85.608
X116.581Y-57.907
X116.581Y-73.147
X118.12Y-77.988
X118.12Y-85.608
X119.121Y-57.907
X119.121Y-73.147
X120.66Y-77.988
X120.66Y-85.608
X121.661Y-57.907
X121.661Y-73.147
X123.2Y-77.988
X123.2Y-85.608
X124.201Y-57.907
X124.201Y-73.147
X125.74Y-77.988
X125.74Y-85.608
X126.741Y-57.907
X126.741Y-73.147
X128.26Y-92.7
X128.26Y-95.24
X128.26Y-97.78
X128.26Y-100.32
X128.28Y-77.988
X128.28Y-85.608
X129.281Y-57.907
X129.281Y-73.147
X130.82Y-77.988
X130.82Y-85.608
X131.821Y-57.907
X131.821Y-73.147
X133.36Y-77.988
X133.36Y-85.608
X134.361Y-57.907
X134.361Y-73.147
X135.88Y-92.7
X135.88Y-95.24
X135.88Y-97.78
X135.88Y-100.32
X136.901Y-57.907
X136.901Y-73.147
X139.441Y-57.907
X139.441Y-73.147
X154.422Y-92.7
X154.422Y-95.24
X154.422Y-97.78
X154.422Y-100.32
X162.042Y-92.7
X162.042Y-95.24
X162.042Y-97.78
X162.042Y-100.32
X165.344Y-107.686
X165.344Y-110.226
X165.344Y-112.766
X165.344Y-115.306
X172.964Y-107.686
X172.964Y-110.226
X172.964Y-112.766
X172.964Y-115.306
T5
X59.182Y-67.31
X59.182Y-77.47
X63.754Y-106.426
X63.754Y-116.586
X66.04Y-123.19
X67.056Y-106.426
X67.056Y-116.586
X68.58Y-120.65
X70.358Y-106.426
X70.358Y-116.586
X71.12Y-123.19
X73.66Y-106.426
X73.66Y-116.586
X74.422Y-54.102
X74.422Y-64.262
X76.2Y-123.19
X78.74Y-120.65
X81.28Y-123.19
X86.36Y-123.19
X88.9Y-120.65
X89.154Y-106.426
X89.154Y-116.586
X91.44Y-123.19
X92.456Y-106.426
X92.456Y-116.586
X95.758Y-106.426
X95.758Y-116.586
X96.52Y-123.19
X99.06Y-106.426
X99.06Y-116.586
X99.06Y-120.65
X101.6Y-123.19
X106.68Y-123.19
X108.712Y-106.426
X108.712Y-116.586
X109.22Y-120.65
X111.76Y-123.19
X112.014Y-106.426
X112.014Y-116.586
X115.316Y-106.426
X115.316Y-116.586
X116.84Y-123.19
X117.856Y-91.44
X117.856Y-101.6
X118.618Y-106.426
X118.618Y-116.586
X119.38Y-120.65
X121.158Y-91.44
X121.158Y-101.6
X121.92Y-106.426
X121.92Y-116.586
X121.92Y-123.19
X124.46Y-91.44
X124.46Y-101.6
X125.222Y-106.426
X125.222Y-116.586
X127.0Y-123.19
X128.524Y-106.426
X128.524Y-116.586
X129.54Y-120.65
X131.826Y-106.426
X131.826Y-116.586
X132.08Y-123.19
X135.128Y-106.426
X135.128Y-116.586
X137.16Y-123.19
X138.43Y-106.426
X138.43Y-116.586
X139.7Y-91.44
X139.7Y-101.6
X139.7Y-120.65
X141.732Y-106.426
X141.732Y-116.586
X142.24Y-123.19
X143.002Y-91.44
X143.002Y-101.6
X145.034Y-106.426
X145.034Y-116.586
X146.812Y-76.708
X146.812Y-86.868
X147.32Y-123.19
X148.336Y-106.426
X148.336Y-116.586
X149.86Y-120.65
X150.114Y-76.708
X150.114Y-86.868
X150.622Y-91.44
X150.622Y-101.6
X151.638Y-106.426
X151.638Y-116.586
X152.4Y-123.19
X153.416Y-76.708
X153.416Y-86.868
X154.94Y-106.426
X154.94Y-116.586
X157.48Y-123.19
X158.242Y-106.426
X158.242Y-116.586
X160.02Y-120.65
X161.544Y-106.426
X161.544Y-116.586
X162.56Y-123.19
X165.862Y-91.44
X165.862Y-101.6
X167.64Y-123.19
X170.18Y-120.65
X172.72Y-123.19
X172.974Y-60.198
X172.974Y-63.5
X172.974Y-66.802
X172.974Y-70.104
X172.974Y-79.248
X172.974Y-82.55
X172.974Y-85.852
X173.482Y-91.44
X173.482Y-101.6
X176.784Y-91.44
X176.784Y-101.6
X176.784Y-106.426
X176.784Y-116.586
X177.8Y-123.19
X180.34Y-120.65
X182.88Y-123.19
X183.134Y-60.198
X183.134Y-63.5
X183.134Y-66.802
X183.134Y-70.104
X183.134Y-79.248
X183.134Y-82.55
X183.134Y-85.852
X195.58Y-64.765
X195.58Y-67.305
T6
X54.61Y-63.754
X54.61Y-66.254
X54.61Y-68.754
X54.61Y-71.254
X54.61Y-73.754
X54.61Y-76.254
X54.61Y-78.754
X54.61Y-81.254
X54.61Y-89.154
X54.61Y-91.654
X54.61Y-94.154
X54.61Y-96.654
X54.61Y-99.154
X54.61Y-101.654
T7
X60.452Y-93.512
X60.452Y-98.512
X66.08Y-55.626
X66.08Y-60.198
X66.08Y-64.77
X71.08Y-55.626
X71.08Y-60.198
X71.08Y-64.77
X74.422Y-67.35
X74.422Y-72.35
X76.708Y-93.512
X76.708Y-98.512
X81.026Y-87.884
X83.566Y-87.884
X86.106Y-87.884
X103.886Y-105.196
X103.886Y-110.196
X103.886Y-112.816
X103.886Y-117.816
X110.744Y-79.288
X110.744Y-84.288
X111.506Y-53.086
X114.046Y-53.086
X116.586Y-53.086
X119.126Y-53.086
X129.286Y-53.086
X131.826Y-53.086
X134.366Y-53.086
X136.906Y-53.086
X138.176Y-79.288
X138.176Y-84.288
X143.002Y-79.288
X143.002Y-84.288
X146.812Y-90.21
X146.812Y-95.21
X146.812Y-97.83
X146.812Y-102.83
X157.226Y-79.542
X157.226Y-84.542
X167.64Y-69.382
X167.64Y-74.382
X169.672Y-90.21
X169.672Y-95.21
X169.672Y-97.83
X169.672Y-102.83
X180.594Y-90.21
X180.594Y-95.21
X180.594Y-105.196
X180.594Y-110.196
X180.594Y-112.816
X180.594Y-117.816
X194.818Y-109.51
X194.818Y-114.01
X195.58Y-83.82
X195.58Y-86.36
X195.58Y-88.9
X195.58Y-91.44
X195.58Y-93.98
T8
X147.24Y-62.992
X167.24Y-62.992
X192.318Y-108.26
X192.318Y-115.26
M30
