%TF.GenerationSoftware,KiCad,Pcbnew,8.0.0*%
%TF.CreationDate,2024-03-07T09:04:59+08:00*%
%TF.ProjectId,control_board,636f6e74-726f-46c5-9f62-6f6172642e6b,1.0*%
%TF.SameCoordinates,Original*%
%TF.FileFunction,Soldermask,Top*%
%TF.FilePolarity,Negative*%
%FSLAX46Y46*%
G04 Gerber Fmt 4.6, Leading zero omitted, Abs format (unit mm)*
G04 Created by KiCad (PCBNEW 8.0.0) date 2024-03-07 09:04:59*
%MOMM*%
%LPD*%
G01*
G04 APERTURE LIST*
G04 Aperture macros list*
%AMRoundRect*
0 Rectangle with rounded corners*
0 $1 Rounding radius*
0 $2 $3 $4 $5 $6 $7 $8 $9 X,Y pos of 4 corners*
0 Add a 4 corners polygon primitive as box body*
4,1,4,$2,$3,$4,$5,$6,$7,$8,$9,$2,$3,0*
0 Add four circle primitives for the rounded corners*
1,1,$1+$1,$2,$3*
1,1,$1+$1,$4,$5*
1,1,$1+$1,$6,$7*
1,1,$1+$1,$8,$9*
0 Add four rect primitives between the rounded corners*
20,1,$1+$1,$2,$3,$4,$5,0*
20,1,$1+$1,$4,$5,$6,$7,0*
20,1,$1+$1,$6,$7,$8,$9,0*
20,1,$1+$1,$8,$9,$2,$3,0*%
G04 Aperture macros list end*
%ADD10RoundRect,0.150000X0.150000X-0.875000X0.150000X0.875000X-0.150000X0.875000X-0.150000X-0.875000X0*%
%ADD11RoundRect,0.100000X-0.637500X-0.100000X0.637500X-0.100000X0.637500X0.100000X-0.637500X0.100000X0*%
%ADD12C,1.400000*%
%ADD13C,1.500000*%
%ADD14R,1.900000X1.900000*%
%ADD15C,1.900000*%
%ADD16R,1.600000X1.600000*%
%ADD17O,1.600000X1.600000*%
%ADD18C,3.200000*%
%ADD19C,1.600000*%
%ADD20R,1.700000X1.700000*%
%ADD21O,1.700000X1.700000*%
%ADD22RoundRect,0.250000X-0.725000X0.600000X-0.725000X-0.600000X0.725000X-0.600000X0.725000X0.600000X0*%
%ADD23O,1.950000X1.700000*%
%ADD24R,1.050000X1.500000*%
%ADD25O,1.050000X1.500000*%
%ADD26R,1.800000X1.800000*%
%ADD27C,1.800000*%
G04 APERTURE END LIST*
D10*
%TO.C,U5*%
X160655000Y-86692000D03*
X161925000Y-86692000D03*
X163195000Y-86692000D03*
X164465000Y-86692000D03*
X165735000Y-86692000D03*
X167005000Y-86692000D03*
X168275000Y-86692000D03*
X169545000Y-86692000D03*
X169545000Y-77392000D03*
X168275000Y-77392000D03*
X167005000Y-77392000D03*
X165735000Y-77392000D03*
X164465000Y-77392000D03*
X163195000Y-77392000D03*
X161925000Y-77392000D03*
X160655000Y-77392000D03*
%TD*%
D11*
%TO.C,U12*%
X65717500Y-93737000D03*
X65717500Y-94387000D03*
X65717500Y-95037000D03*
X65717500Y-95687000D03*
X65717500Y-96337000D03*
X65717500Y-96987000D03*
X65717500Y-97637000D03*
X65717500Y-98287000D03*
X71442500Y-98287000D03*
X71442500Y-97637000D03*
X71442500Y-96987000D03*
X71442500Y-96337000D03*
X71442500Y-95687000D03*
X71442500Y-95037000D03*
X71442500Y-94387000D03*
X71442500Y-93737000D03*
%TD*%
D10*
%TO.C,U13*%
X64135000Y-100662000D03*
X65405000Y-100662000D03*
X66675000Y-100662000D03*
X67945000Y-100662000D03*
X69215000Y-100662000D03*
X70485000Y-100662000D03*
X71755000Y-100662000D03*
X73025000Y-100662000D03*
X73025000Y-91362000D03*
X71755000Y-91362000D03*
X70485000Y-91362000D03*
X69215000Y-91362000D03*
X67945000Y-91362000D03*
X66675000Y-91362000D03*
X65405000Y-91362000D03*
X64135000Y-91362000D03*
%TD*%
D12*
%TO.C,R5*%
X183134000Y-85852000D03*
X172974000Y-85852000D03*
%TD*%
D13*
%TO.C,RV1*%
X106680000Y-123190000D03*
X109220000Y-120650000D03*
X111760000Y-123190000D03*
%TD*%
D12*
%TO.C,R26*%
X118618000Y-106426000D03*
X118618000Y-116586000D03*
%TD*%
D14*
%TO.C,BT1*%
X167240000Y-62992000D03*
D15*
X147240000Y-62992000D03*
%TD*%
D12*
%TO.C,R17*%
X131826000Y-116586000D03*
X131826000Y-106426000D03*
%TD*%
%TO.C,R15*%
X173482000Y-101600000D03*
X173482000Y-91440000D03*
%TD*%
%TO.C,R22*%
X151638000Y-116586000D03*
X151638000Y-106426000D03*
%TD*%
%TO.C,R30*%
X141732000Y-116586000D03*
X141732000Y-106426000D03*
%TD*%
D13*
%TO.C,RV5*%
X177800000Y-123190000D03*
X180340000Y-120650000D03*
X182880000Y-123190000D03*
%TD*%
D16*
%TO.C,U9*%
X135880000Y-100320000D03*
D17*
X135880000Y-97780000D03*
X135880000Y-95240000D03*
X135880000Y-92700000D03*
X128260000Y-92700000D03*
X128260000Y-95240000D03*
X128260000Y-97780000D03*
X128260000Y-100320000D03*
%TD*%
D13*
%TO.C,C12*%
X146812000Y-90210000D03*
X146812000Y-95210000D03*
%TD*%
%TO.C,C10*%
X169672000Y-97830000D03*
X169672000Y-102830000D03*
%TD*%
D12*
%TO.C,R47*%
X95758000Y-106426000D03*
X95758000Y-116586000D03*
%TD*%
D13*
%TO.C,C5*%
X110744000Y-84288000D03*
X110744000Y-79288000D03*
%TD*%
%TO.C,C18*%
X103886000Y-117816005D03*
X103886000Y-112816005D03*
%TD*%
%TO.C,C16*%
X103886000Y-110196005D03*
X103886000Y-105196005D03*
%TD*%
%TO.C,C19*%
X60452000Y-98512000D03*
X60452000Y-93512000D03*
%TD*%
D12*
%TO.C,R58*%
X172974000Y-70104000D03*
X183134000Y-70104000D03*
%TD*%
%TO.C,R28*%
X150622000Y-91440000D03*
X150622000Y-101600000D03*
%TD*%
D13*
%TO.C,C3*%
X143002000Y-84288000D03*
X143002000Y-79288000D03*
%TD*%
D12*
%TO.C,R43*%
X92456000Y-116586000D03*
X92456000Y-106426000D03*
%TD*%
D13*
%TO.C,C17*%
X180594000Y-105196000D03*
X180594000Y-110196000D03*
%TD*%
D12*
%TO.C,R49*%
X67056000Y-116586000D03*
X67056000Y-106426000D03*
%TD*%
D18*
%TO.C,H2*%
X194310000Y-54610000D03*
%TD*%
D13*
%TO.C,RV7*%
X147320000Y-123190000D03*
X149860000Y-120650000D03*
X152400000Y-123190000D03*
%TD*%
D16*
%TO.C,C25*%
X64770000Y-84161621D03*
D19*
X64770000Y-86661621D03*
%TD*%
D16*
%TO.C,U1*%
X86096000Y-72400000D03*
D17*
X86096000Y-69860000D03*
X86096000Y-67320000D03*
X86096000Y-64780000D03*
X86096000Y-62240000D03*
X86096000Y-59700000D03*
X86096000Y-57160000D03*
X86096000Y-54620000D03*
X78476000Y-54620000D03*
X78476000Y-57160000D03*
X78476000Y-59700000D03*
X78476000Y-62240000D03*
X78476000Y-64780000D03*
X78476000Y-67320000D03*
X78476000Y-69860000D03*
X78476000Y-72400000D03*
%TD*%
D12*
%TO.C,R34*%
X158242000Y-106426000D03*
X158242000Y-116586000D03*
%TD*%
D20*
%TO.C,J1*%
X111506000Y-53086000D03*
D21*
X114046000Y-53086000D03*
X116586000Y-53086000D03*
X119126000Y-53086000D03*
%TD*%
D12*
%TO.C,R25*%
X125222000Y-116586000D03*
X125222000Y-106426000D03*
%TD*%
%TO.C,R36*%
X145034000Y-106426000D03*
X145034000Y-116586000D03*
%TD*%
D16*
%TO.C,U4*%
X105161000Y-77988000D03*
D17*
X102621000Y-77988000D03*
X100081000Y-77988000D03*
X97541000Y-77988000D03*
X95001000Y-77988000D03*
X92461000Y-77988000D03*
X89921000Y-77988000D03*
X89921000Y-85608000D03*
X92461000Y-85608000D03*
X95001000Y-85608000D03*
X97541000Y-85608000D03*
X100081000Y-85608000D03*
X102621000Y-85608000D03*
X105161000Y-85608000D03*
%TD*%
D21*
%TO.C,J2*%
X136906000Y-53086000D03*
X134366000Y-53086000D03*
X131826000Y-53086000D03*
D20*
X129286000Y-53086000D03*
%TD*%
D13*
%TO.C,C15*%
X146812000Y-97830000D03*
X146812000Y-102830000D03*
%TD*%
%TO.C,C8*%
X157226000Y-84542000D03*
X157226000Y-79542000D03*
%TD*%
D12*
%TO.C,R1*%
X74422000Y-64262000D03*
X74422000Y-54102000D03*
%TD*%
D13*
%TO.C,C7*%
X66080000Y-55626000D03*
X71080000Y-55626000D03*
%TD*%
D20*
%TO.C,JP1*%
X81026000Y-87884000D03*
D21*
X83566000Y-87884000D03*
X86106000Y-87884000D03*
%TD*%
D12*
%TO.C,R53*%
X70358000Y-106426000D03*
X70358000Y-116586000D03*
%TD*%
D16*
%TO.C,U7*%
X172964000Y-115306000D03*
D17*
X172964000Y-112766000D03*
X172964000Y-110226000D03*
X172964000Y-107686000D03*
X165344000Y-107686000D03*
X165344000Y-110226000D03*
X165344000Y-112766000D03*
X165344000Y-115306000D03*
%TD*%
D16*
%TO.C,U6*%
X162042000Y-100320000D03*
D17*
X162042000Y-97780000D03*
X162042000Y-95240000D03*
X162042000Y-92700000D03*
X154422000Y-92700000D03*
X154422000Y-95240000D03*
X154422000Y-97780000D03*
X154422000Y-100320000D03*
%TD*%
D12*
%TO.C,R50*%
X63754000Y-116586000D03*
X63754000Y-106426000D03*
%TD*%
%TO.C,R46*%
X99060000Y-106426000D03*
X99060000Y-116586000D03*
%TD*%
D13*
%TO.C,C6*%
X66080000Y-64770000D03*
X71080000Y-64770000D03*
%TD*%
D12*
%TO.C,R8*%
X176784000Y-91440000D03*
X176784000Y-101600000D03*
%TD*%
%TO.C,R23*%
X176784000Y-116586000D03*
X176784000Y-106426000D03*
%TD*%
D13*
%TO.C,RV8*%
X157480000Y-123190000D03*
X160020000Y-120650000D03*
X162560000Y-123190000D03*
%TD*%
D16*
%TO.C,U3*%
X139441000Y-57907000D03*
D17*
X136901000Y-57907000D03*
X134361000Y-57907000D03*
X131821000Y-57907000D03*
X129281000Y-57907000D03*
X126741000Y-57907000D03*
X124201000Y-57907000D03*
X121661000Y-57907000D03*
X119121000Y-57907000D03*
X116581000Y-57907000D03*
X114041000Y-57907000D03*
X111501000Y-57907000D03*
X108961000Y-57907000D03*
X106421000Y-57907000D03*
X103881000Y-57907000D03*
X101341000Y-57907000D03*
X98801000Y-57907000D03*
X96261000Y-57907000D03*
X93721000Y-57907000D03*
X91181000Y-57907000D03*
X91181000Y-73147000D03*
X93721000Y-73147000D03*
X96261000Y-73147000D03*
X98801000Y-73147000D03*
X101341000Y-73147000D03*
X103881000Y-73147000D03*
X106421000Y-73147000D03*
X108961000Y-73147000D03*
X111501000Y-73147000D03*
X114041000Y-73147000D03*
X116581000Y-73147000D03*
X119121000Y-73147000D03*
X121661000Y-73147000D03*
X124201000Y-73147000D03*
X126741000Y-73147000D03*
X129281000Y-73147000D03*
X131821000Y-73147000D03*
X134361000Y-73147000D03*
X136901000Y-73147000D03*
X139441000Y-73147000D03*
%TD*%
D13*
%TO.C,C11*%
X169672000Y-95210000D03*
X169672000Y-90210000D03*
%TD*%
D12*
%TO.C,R6*%
X59182000Y-67310000D03*
X59182000Y-77470000D03*
%TD*%
%TO.C,R20*%
X121158000Y-101600000D03*
X121158000Y-91440000D03*
%TD*%
%TO.C,R39*%
X139700000Y-91440000D03*
X139700000Y-101600000D03*
%TD*%
D22*
%TO.C,J6*%
X54610000Y-89154000D03*
D23*
X54610000Y-91654000D03*
X54610000Y-94154000D03*
X54610000Y-96654000D03*
X54610000Y-99154000D03*
X54610000Y-101654000D03*
%TD*%
D13*
%TO.C,C20*%
X167640000Y-69382000D03*
X167640000Y-74382000D03*
%TD*%
D16*
%TO.C,C23*%
X64770000Y-69937621D03*
D19*
X64770000Y-72437621D03*
%TD*%
D16*
%TO.C,U11*%
X85080000Y-115306000D03*
D17*
X85080000Y-112766000D03*
X85080000Y-110226000D03*
X85080000Y-107686000D03*
X77460000Y-107686000D03*
X77460000Y-110226000D03*
X77460000Y-112766000D03*
X77460000Y-115306000D03*
%TD*%
D12*
%TO.C,R7*%
X183134000Y-79248000D03*
X172974000Y-79248000D03*
%TD*%
%TO.C,R56*%
X172974000Y-63500000D03*
X183134000Y-63500000D03*
%TD*%
D16*
%TO.C,U2*%
X133360000Y-77988000D03*
D17*
X130820000Y-77988000D03*
X128280000Y-77988000D03*
X125740000Y-77988000D03*
X123200000Y-77988000D03*
X120660000Y-77988000D03*
X118120000Y-77988000D03*
X115580000Y-77988000D03*
X115580000Y-85608000D03*
X118120000Y-85608000D03*
X120660000Y-85608000D03*
X123200000Y-85608000D03*
X125740000Y-85608000D03*
X128280000Y-85608000D03*
X130820000Y-85608000D03*
X133360000Y-85608000D03*
%TD*%
D18*
%TO.C,H1*%
X54610000Y-54610000D03*
%TD*%
D13*
%TO.C,C9*%
X180594000Y-90210000D03*
X180594000Y-95210000D03*
%TD*%
D12*
%TO.C,R57*%
X172974000Y-66802000D03*
X183134000Y-66802000D03*
%TD*%
%TO.C,R3*%
X146812000Y-76708000D03*
X146812000Y-86868000D03*
%TD*%
D13*
%TO.C,RV3*%
X167640000Y-123190000D03*
X170180000Y-120650000D03*
X172720000Y-123190000D03*
%TD*%
D12*
%TO.C,R55*%
X153416000Y-76708000D03*
X153416000Y-86868000D03*
%TD*%
%TO.C,R14*%
X112014000Y-106426000D03*
X112014000Y-116586000D03*
%TD*%
%TO.C,R32*%
X138430000Y-106426000D03*
X138430000Y-116586000D03*
%TD*%
%TO.C,R12*%
X121920000Y-116586000D03*
X121920000Y-106426000D03*
%TD*%
%TO.C,R35*%
X154940000Y-116586000D03*
X154940000Y-106426000D03*
%TD*%
D13*
%TO.C,C4*%
X71080000Y-60198000D03*
X66080000Y-60198000D03*
%TD*%
D20*
%TO.C,J4*%
X195580000Y-93980000D03*
D21*
X195580000Y-91440000D03*
X195580000Y-88900000D03*
X195580000Y-86360000D03*
X195580000Y-83820000D03*
%TD*%
D12*
%TO.C,R10*%
X165862000Y-91440000D03*
X165862000Y-101600000D03*
%TD*%
D18*
%TO.C,H3*%
X54610000Y-123190000D03*
%TD*%
D12*
%TO.C,R16*%
X115316000Y-116586000D03*
X115316000Y-106426000D03*
%TD*%
%TO.C,R4*%
X172974000Y-82550000D03*
X183134000Y-82550000D03*
%TD*%
D13*
%TO.C,C13*%
X180594000Y-117816000D03*
X180594000Y-112816000D03*
%TD*%
%TO.C,RV12*%
X76200000Y-123190000D03*
X78740000Y-120650000D03*
X81280000Y-123190000D03*
%TD*%
D18*
%TO.C,H4*%
X194310000Y-123190000D03*
%TD*%
D24*
%TO.C,Q1*%
X175514000Y-74422000D03*
D25*
X174244000Y-74422000D03*
X172974000Y-74422000D03*
%TD*%
D12*
%TO.C,R19*%
X128524000Y-106426000D03*
X128524000Y-116586000D03*
%TD*%
D13*
%TO.C,RV11*%
X66040000Y-123190000D03*
X68580000Y-120650000D03*
X71120000Y-123190000D03*
%TD*%
D12*
%TO.C,R21*%
X148336000Y-106426000D03*
X148336000Y-116586000D03*
%TD*%
%TO.C,R45*%
X89154000Y-116586000D03*
X89154000Y-106426000D03*
%TD*%
D13*
%TO.C,RV6*%
X137160000Y-123190000D03*
X139700000Y-120650000D03*
X142240000Y-123190000D03*
%TD*%
D12*
%TO.C,R52*%
X73660000Y-106426000D03*
X73660000Y-116586000D03*
%TD*%
D16*
%TO.C,U8*%
X114036000Y-100320000D03*
D17*
X114036000Y-97780000D03*
X114036000Y-95240000D03*
X114036000Y-92700000D03*
X106416000Y-92700000D03*
X106416000Y-95240000D03*
X106416000Y-97780000D03*
X106416000Y-100320000D03*
%TD*%
D16*
%TO.C,U10*%
X81016000Y-100066000D03*
D17*
X83556000Y-100066000D03*
X86096000Y-100066000D03*
X88636000Y-100066000D03*
X91176000Y-100066000D03*
X93716000Y-100066000D03*
X96256000Y-100066000D03*
X98796000Y-100066000D03*
X98796000Y-92446000D03*
X96256000Y-92446000D03*
X93716000Y-92446000D03*
X91176000Y-92446000D03*
X88636000Y-92446000D03*
X86096000Y-92446000D03*
X83556000Y-92446000D03*
X81016000Y-92446000D03*
%TD*%
D13*
%TO.C,C1*%
X74422000Y-72350000D03*
X74422000Y-67350000D03*
%TD*%
%TO.C,RV4*%
X127000000Y-123190000D03*
X129540000Y-120650000D03*
X132080000Y-123190000D03*
%TD*%
D12*
%TO.C,R59*%
X183134000Y-60198000D03*
X172974000Y-60198000D03*
%TD*%
D13*
%TO.C,RV9*%
X86360000Y-123190000D03*
X88900000Y-120650000D03*
X91440000Y-123190000D03*
%TD*%
D22*
%TO.C,J8*%
X54610000Y-63754000D03*
D23*
X54610000Y-66254000D03*
X54610000Y-68754000D03*
X54610000Y-71254000D03*
X54610000Y-73754000D03*
X54610000Y-76254000D03*
X54610000Y-78754000D03*
X54610000Y-81254000D03*
%TD*%
D13*
%TO.C,Y1*%
X61976000Y-62648000D03*
X61976000Y-57768000D03*
%TD*%
D15*
%TO.C,SW1*%
X192318000Y-115260000D03*
X192318000Y-108260000D03*
D13*
X194818000Y-114010000D03*
X194818000Y-109510000D03*
%TD*%
D26*
%TO.C,D1*%
X195580000Y-64765000D03*
D27*
X195580000Y-67305000D03*
%TD*%
D12*
%TO.C,R38*%
X135128000Y-116586000D03*
X135128000Y-106426000D03*
%TD*%
%TO.C,R41*%
X161544000Y-106426000D03*
X161544000Y-116586000D03*
%TD*%
D13*
%TO.C,RV2*%
X116840000Y-123190000D03*
X119380000Y-120650000D03*
X121920000Y-123190000D03*
%TD*%
D16*
%TO.C,C24*%
X64770000Y-77049621D03*
D19*
X64770000Y-79549621D03*
%TD*%
D13*
%TO.C,RV10*%
X96520000Y-123190000D03*
X99060000Y-120650000D03*
X101600000Y-123190000D03*
%TD*%
D12*
%TO.C,R33*%
X124460000Y-101600000D03*
X124460000Y-91440000D03*
%TD*%
%TO.C,R2*%
X150114000Y-76708000D03*
X150114000Y-86868000D03*
%TD*%
%TO.C,R11*%
X108712000Y-106426000D03*
X108712000Y-116586000D03*
%TD*%
%TO.C,R42*%
X143002000Y-91440000D03*
X143002000Y-101600000D03*
%TD*%
D13*
%TO.C,C14*%
X76708000Y-93512000D03*
X76708000Y-98512000D03*
%TD*%
D12*
%TO.C,R29*%
X117856000Y-91440000D03*
X117856000Y-101600000D03*
%TD*%
D13*
%TO.C,C2*%
X138176000Y-84288000D03*
X138176000Y-79288000D03*
%TD*%
M02*
