M48
; DRILL file {KiCad 8.0.0} date 2024-03-08T15:53:15+0800
; FORMAT={-:-/ absolute / metric / decimal}
; #@! TF.CreationDate,2024-03-08T15:53:15+08:00
; #@! TF.GenerationSoftware,Kicad,Pcbnew,8.0.0
; #@! TF.FileFunction,Plated,1,2,PTH
FMAT,2
METRIC
; #@! TA.AperFunction,Plated,PTH,ComponentDrill
T1C0.750
; #@! TA.AperFunction,Plated,PTH,ComponentDrill
T2C0.800
; #@! TA.AperFunction,Plated,PTH,ComponentDrill
T3C0.900
; #@! TA.AperFunction,Plated,PTH,ComponentDrill
T4C0.950
; #@! TA.AperFunction,Plated,PTH,ComponentDrill
T5C1.000
; #@! TA.AperFunction,Plated,PTH,ViaDrill
T6C1.016
; #@! TA.AperFunction,Plated,PTH,ComponentDrill
T7C1.100
; #@! TA.AperFunction,Plated,PTH,ComponentDrill
T8C1.200
; #@! TA.AperFunction,Plated,PTH,ComponentDrill
T9C1.700
; #@! TA.AperFunction,Plated,PTH,ComponentDrill
T10C1.800
%
G90
G05
T1
X73.406Y-62.992
X74.676Y-62.992
X75.946Y-62.992
X89.81Y-56.134
X89.81Y-57.404
X89.81Y-58.674
X148.463Y-88.128
X148.463Y-90.678
X150.622Y-89.408
X151.511Y-106.67
X151.511Y-109.22
X153.67Y-107.95
X154.051Y-72.634
X154.051Y-75.184
X156.21Y-73.914
X160.401Y-72.634
X160.401Y-75.184
X162.56Y-73.914
X162.687Y-106.67
X162.687Y-109.22
X164.846Y-107.95
X165.481Y-88.128
X165.481Y-90.678
X167.64Y-89.408
X170.815Y-88.128
X170.815Y-90.678
X172.974Y-89.408
X173.863Y-106.67
X173.863Y-109.22
X176.022Y-107.95
X176.403Y-72.634
X176.403Y-75.184
X178.562Y-73.914
X182.753Y-72.634
X182.753Y-75.184
X184.912Y-73.914
X185.039Y-106.67
X185.039Y-109.22
X187.198Y-107.95
X187.833Y-88.128
X187.833Y-90.678
X189.992Y-89.408
T2
X82.052Y-63.236
X82.052Y-70.856
X84.592Y-63.236
X84.592Y-70.856
X87.132Y-63.236
X87.132Y-70.856
X89.154Y-86.739
X89.154Y-90.239
X89.672Y-63.236
X89.672Y-70.856
X97.028Y-106.237
X97.028Y-108.737
X97.028Y-112.079
X97.028Y-114.579
X100.74Y-104.394
X100.74Y-106.934
X100.74Y-109.728
X100.74Y-112.268
X107.54Y-104.394
X107.54Y-106.934
X107.54Y-109.728
X107.54Y-112.268
X108.966Y-60.658
X108.966Y-63.158
X108.966Y-68.024
X108.966Y-70.524
X111.252Y-104.459
X111.252Y-106.959
X111.252Y-110.301
X111.252Y-112.801
X113.538Y-75.563
X113.538Y-79.063
X113.694Y-60.452
X113.694Y-63.246
X113.694Y-68.072
X113.694Y-70.866
X119.38Y-108.458
X119.38Y-110.998
X119.38Y-113.538
X120.494Y-60.452
X120.494Y-63.246
X120.494Y-68.072
X120.494Y-70.866
X126.238Y-57.864
X126.238Y-60.364
X126.238Y-71.072
X126.238Y-73.572
X134.62Y-57.864
X134.62Y-60.364
X134.62Y-71.072
X134.62Y-73.572
X134.864Y-104.638
X134.864Y-107.178
X134.864Y-109.718
X134.864Y-112.258
X140.97Y-57.806
X140.97Y-68.834
X142.484Y-104.638
X142.484Y-107.178
X142.484Y-109.718
X142.484Y-112.258
X143.51Y-57.806
X143.51Y-68.834
X146.05Y-57.806
X146.05Y-68.834
X148.336Y-94.136
X148.336Y-100.936
X150.622Y-94.136
X150.622Y-100.936
X165.354Y-94.136
X165.354Y-100.936
X167.64Y-94.136
X167.64Y-100.936
X170.688Y-94.136
X170.688Y-100.936
X172.974Y-94.136
X172.974Y-100.936
X186.436Y-55.601
X186.436Y-58.101
X187.706Y-94.136
X187.706Y-100.936
X188.468Y-60.452
X188.468Y-62.992
X188.468Y-65.532
X189.992Y-94.136
X189.992Y-100.936
T3
X59.944Y-60.198
X59.944Y-63.5
X62.484Y-56.896
X62.484Y-110.744
X62.484Y-120.904
X70.104Y-60.198
X70.104Y-63.5
X72.644Y-56.896
X76.2Y-74.168
X76.2Y-77.47
X76.2Y-80.772
X80.518Y-121.92
X86.36Y-74.168
X86.36Y-77.47
X86.36Y-80.772
X90.678Y-121.92
X93.472Y-55.88
X93.472Y-58.928
X93.472Y-62.23
X93.472Y-65.278
X93.472Y-68.326
X101.092Y-115.824
X103.632Y-55.88
X103.632Y-58.928
X103.632Y-62.23
X103.632Y-65.278
X103.632Y-68.326
X111.252Y-115.824
X116.078Y-103.378
X116.078Y-113.538
X121.666Y-116.078
X123.952Y-103.378
X123.952Y-113.538
X125.238Y-65.786
X125.476Y-123.19
X127.238Y-65.786
X127.254Y-103.378
X127.254Y-113.538
X128.016Y-120.65
X130.556Y-123.19
X131.826Y-116.078
X133.62Y-65.786
X133.858Y-90.932
X133.858Y-101.092
X134.874Y-123.19
X135.128Y-116.078
X135.62Y-65.786
X137.414Y-120.65
X139.954Y-123.19
X144.272Y-123.19
X145.288Y-116.078
X146.812Y-120.65
X148.336Y-102.87
X148.336Y-113.03
X149.352Y-123.19
X150.622Y-75.184
X150.622Y-85.344
X153.416Y-58.928
X153.416Y-69.088
X153.416Y-90.678
X153.416Y-100.838
X154.94Y-77.978
X154.94Y-88.138
X156.464Y-58.928
X156.464Y-69.088
X156.464Y-90.678
X156.464Y-100.838
X156.464Y-102.87
X156.464Y-113.03
X157.988Y-77.978
X157.988Y-88.138
X159.512Y-58.928
X159.512Y-69.088
X159.512Y-90.678
X159.512Y-100.838
X159.512Y-102.87
X159.512Y-113.03
X161.036Y-77.978
X161.036Y-88.138
X162.56Y-58.928
X162.56Y-69.088
X162.56Y-90.678
X162.56Y-100.838
X165.354Y-75.184
X165.354Y-85.344
X167.64Y-102.87
X167.64Y-113.03
X170.688Y-102.87
X170.688Y-113.03
X172.974Y-75.184
X172.974Y-85.344
X173.228Y-58.928
X173.228Y-69.088
X175.768Y-90.678
X175.768Y-100.838
X176.276Y-58.928
X176.276Y-69.088
X177.292Y-77.978
X177.292Y-88.138
X177.292Y-117.856
X177.292Y-121.412
X178.816Y-90.678
X178.816Y-100.838
X178.816Y-102.87
X178.816Y-113.03
X179.324Y-58.928
X179.324Y-69.088
X180.34Y-77.978
X180.34Y-88.138
X181.864Y-90.678
X181.864Y-100.838
X181.864Y-102.87
X181.864Y-113.03
X182.372Y-58.928
X182.372Y-69.088
X183.388Y-77.978
X183.388Y-88.138
X184.912Y-90.678
X184.912Y-100.838
X187.452Y-117.856
X187.452Y-121.412
X187.706Y-75.184
X187.706Y-85.344
X189.992Y-102.87
X189.992Y-113.03
X194.564Y-111.76
X194.564Y-114.3
T4
X194.31Y-63.755
X194.31Y-66.255
X194.31Y-68.755
X194.31Y-71.255
X194.31Y-73.755
X194.31Y-76.255
X194.31Y-78.755
X194.31Y-81.255
X194.31Y-89.151
X194.31Y-91.651
X194.31Y-94.151
X194.31Y-96.651
X194.31Y-99.151
X194.31Y-101.651
T5
X54.772Y-95.25
X54.904Y-103.378
X59.772Y-95.25
X59.904Y-103.378
X69.454Y-95.504
X69.454Y-118.004
X76.2Y-54.904
X76.2Y-59.904
X76.454Y-95.504
X76.454Y-118.004
X77.724Y-66.588
X77.724Y-71.588
X79.954Y-95.504
X80.772Y-54.904
X80.772Y-59.904
X83.454Y-95.504
X83.454Y-118.004
X85.344Y-54.904
X85.344Y-59.904
X86.954Y-95.504
X86.954Y-118.004
X88.178Y-75.184
X88.178Y-79.756
X90.454Y-95.504
X90.454Y-118.004
X93.178Y-75.184
X93.178Y-79.756
X97.536Y-83.312
X97.536Y-96.012
X97.536Y-101.092
X131.318Y-104.688
X131.318Y-109.688
X138.176Y-83.312
X138.176Y-88.392
X138.176Y-101.092
X141.01Y-63.5
X141.01Y-73.406
X146.01Y-63.5
X146.01Y-73.406
X169.164Y-58.928
X169.164Y-63.928
X169.164Y-72.938
X169.164Y-77.938
X188.468Y-67.604
X188.468Y-72.604
T6
X55.118Y-64.77
T7
X53.594Y-107.696
X60.706Y-70.612
X61.214Y-107.696
X63.246Y-70.612
X65.786Y-70.612
X68.834Y-91.44
X76.454Y-91.44
X99.314Y-75.438
X99.314Y-78.994
X105.41Y-87.63
X105.41Y-95.25
X106.934Y-75.438
X106.934Y-78.994
X108.966Y-87.63
X108.966Y-95.25
X112.522Y-87.63
X112.522Y-95.25
X116.078Y-87.63
X116.078Y-95.25
X119.634Y-87.63
X119.634Y-95.25
X123.19Y-87.63
X123.19Y-95.25
X126.746Y-87.63
X126.746Y-95.25
X130.302Y-87.63
X130.302Y-95.25
T8
X52.832Y-86.106
X64.77Y-91.44
X64.77Y-101.6
X73.152Y-86.106
T9
X56.43Y-112.626
X56.43Y-116.586
X99.06Y-121.412
X103.02Y-121.412
X106.98Y-121.412
X110.94Y-121.412
X114.9Y-121.412
X118.86Y-121.412
X154.94Y-121.412
X158.9Y-121.412
X162.86Y-121.412
X166.82Y-121.412
X170.78Y-121.412
T10
X54.246Y-75.692
X72.246Y-75.692
M30
