%TF.GenerationSoftware,KiCad,Pcbnew,8.0.0*%
%TF.CreationDate,2024-03-08T15:53:04+08:00*%
%TF.ProjectId,xyz_display_board,78797a5f-6469-4737-906c-61795f626f61,1.0*%
%TF.SameCoordinates,Original*%
%TF.FileFunction,Copper,L2,Bot*%
%TF.FilePolarity,Positive*%
%FSLAX46Y46*%
G04 Gerber Fmt 4.6, Leading zero omitted, Abs format (unit mm)*
G04 Created by KiCad (PCBNEW 8.0.0) date 2024-03-08 15:53:04*
%MOMM*%
%LPD*%
G01*
G04 APERTURE LIST*
G04 Aperture macros list*
%AMRoundRect*
0 Rectangle with rounded corners*
0 $1 Rounding radius*
0 $2 $3 $4 $5 $6 $7 $8 $9 X,Y pos of 4 corners*
0 Add a 4 corners polygon primitive as box body*
4,1,4,$2,$3,$4,$5,$6,$7,$8,$9,$2,$3,0*
0 Add four circle primitives for the rounded corners*
1,1,$1+$1,$2,$3*
1,1,$1+$1,$4,$5*
1,1,$1+$1,$6,$7*
1,1,$1+$1,$8,$9*
0 Add four rect primitives between the rounded corners*
20,1,$1+$1,$2,$3,$4,$5,0*
20,1,$1+$1,$4,$5,$6,$7,0*
20,1,$1+$1,$6,$7,$8,$9,0*
20,1,$1+$1,$8,$9,$2,$3,0*%
G04 Aperture macros list end*
%TA.AperFunction,ComponentPad*%
%ADD10C,1.500000*%
%TD*%
%TA.AperFunction,ComponentPad*%
%ADD11R,1.500000X1.500000*%
%TD*%
%TA.AperFunction,ComponentPad*%
%ADD12R,1.600000X1.600000*%
%TD*%
%TA.AperFunction,ComponentPad*%
%ADD13C,1.600000*%
%TD*%
%TA.AperFunction,ComponentPad*%
%ADD14C,1.400000*%
%TD*%
%TA.AperFunction,ComponentPad*%
%ADD15R,1.400000X1.400000*%
%TD*%
%TA.AperFunction,ComponentPad*%
%ADD16C,1.300000*%
%TD*%
%TA.AperFunction,ComponentPad*%
%ADD17RoundRect,0.250000X0.725000X-0.600000X0.725000X0.600000X-0.725000X0.600000X-0.725000X-0.600000X0*%
%TD*%
%TA.AperFunction,ComponentPad*%
%ADD18O,1.950000X1.700000*%
%TD*%
%TA.AperFunction,ComponentPad*%
%ADD19R,2.200000X2.200000*%
%TD*%
%TA.AperFunction,ComponentPad*%
%ADD20O,2.200000X2.200000*%
%TD*%
%TA.AperFunction,ComponentPad*%
%ADD21RoundRect,0.250001X-1.099999X-1.099999X1.099999X-1.099999X1.099999X1.099999X-1.099999X1.099999X0*%
%TD*%
%TA.AperFunction,ComponentPad*%
%ADD22C,2.700000*%
%TD*%
%TA.AperFunction,ComponentPad*%
%ADD23O,1.600000X1.600000*%
%TD*%
%TA.AperFunction,ComponentPad*%
%ADD24R,1.905000X2.000000*%
%TD*%
%TA.AperFunction,ComponentPad*%
%ADD25O,1.905000X2.000000*%
%TD*%
%TA.AperFunction,ComponentPad*%
%ADD26R,2.400000X2.400000*%
%TD*%
%TA.AperFunction,ComponentPad*%
%ADD27O,2.400000X2.400000*%
%TD*%
%TA.AperFunction,ComponentPad*%
%ADD28R,1.500000X1.050000*%
%TD*%
%TA.AperFunction,ComponentPad*%
%ADD29O,1.500000X1.050000*%
%TD*%
%TA.AperFunction,ComponentPad*%
%ADD30RoundRect,0.250001X-1.099999X1.099999X-1.099999X-1.099999X1.099999X-1.099999X1.099999X1.099999X0*%
%TD*%
%TA.AperFunction,ComponentPad*%
%ADD31C,2.400000*%
%TD*%
%TA.AperFunction,ComponentPad*%
%ADD32R,2.000000X2.000000*%
%TD*%
%TA.AperFunction,ComponentPad*%
%ADD33C,2.000000*%
%TD*%
%TA.AperFunction,ComponentPad*%
%ADD34R,1.050000X1.500000*%
%TD*%
%TA.AperFunction,ComponentPad*%
%ADD35O,1.050000X1.500000*%
%TD*%
%TA.AperFunction,ViaPad*%
%ADD36C,1.524000*%
%TD*%
%TA.AperFunction,Conductor*%
%ADD37C,1.016000*%
%TD*%
%TA.AperFunction,Conductor*%
%ADD38C,1.524000*%
%TD*%
%TA.AperFunction,Conductor*%
%ADD39C,0.508000*%
%TD*%
%TA.AperFunction,Conductor*%
%ADD40C,2.032000*%
%TD*%
%TA.AperFunction,Conductor*%
%ADD41C,1.244600*%
%TD*%
%TA.AperFunction,Conductor*%
%ADD42C,3.022600*%
%TD*%
%TA.AperFunction,Conductor*%
%ADD43C,3.048000*%
%TD*%
%TA.AperFunction,Conductor*%
%ADD44C,2.006600*%
%TD*%
%TA.AperFunction,Conductor*%
%ADD45C,2.540000*%
%TD*%
G04 APERTURE END LIST*
D10*
%TO.P,Q1,1,C*%
%TO.N,Net-(J2-Pad4)*%
X119380000Y-113538000D03*
%TO.P,Q1,2,B*%
%TO.N,Net-(Q1-Pad2)*%
X119380000Y-110998000D03*
D11*
%TO.P,Q1,3,E*%
%TO.N,T_5*%
X119380000Y-108458000D03*
%TD*%
D12*
%TO.P,T1,1,1*%
%TO.N,CRT_F1*%
X69454000Y-118004000D03*
D13*
%TO.P,T1,2,2*%
%TO.N,Net-(F2-Pad1)*%
X76454000Y-118004000D03*
%TO.P,T1,3,3*%
%TO.N,T_3*%
X83454000Y-118004000D03*
%TO.P,T1,4,4*%
%TO.N,T_4*%
X86954000Y-118004000D03*
%TO.P,T1,5,5*%
%TO.N,T_5*%
X90454000Y-118004000D03*
%TO.P,T1,6,6*%
%TO.N,GND*%
X90454000Y-95504000D03*
%TO.P,T1,7,7*%
%TO.N,Net-(C20-Pad2)*%
X86954000Y-95504000D03*
%TO.P,T1,8,8*%
%TO.N,Net-(C16-Pad2)*%
X83454000Y-95504000D03*
%TO.P,T1,9,9*%
%TO.N,GND*%
X79954000Y-95504000D03*
%TO.P,T1,10,10*%
%TO.N,Net-(D1-Pad2)*%
X76454000Y-95504000D03*
%TO.P,T1,11,11*%
%TO.N,+12V*%
X69454000Y-95504000D03*
%TD*%
D14*
%TO.P,D13,1,K*%
%TO.N,Net-(C17-Pad2)*%
X113694000Y-68072000D03*
D15*
%TO.P,D13,2,A*%
%TO.N,Net-(C19-Pad2)*%
X120494000Y-68072000D03*
%TD*%
D14*
%TO.P,R9,1*%
%TO.N,Net-(C8-Pad2)*%
X103632000Y-62230000D03*
%TO.P,R9,2*%
%TO.N,GND*%
X93472000Y-62230000D03*
%TD*%
%TO.P,U9,1,VCC*%
%TO.N,+300V*%
X97536000Y-83312000D03*
%TO.P,U9,2,GND*%
%TO.N,GND*%
X97536000Y-96012000D03*
%TO.P,U9,3,PULSE*%
%TO.N,Net-(C20-Pad2)*%
X97536000Y-101092000D03*
%TO.P,U9,4,NC*%
%TO.N,unconnected-(U9-Pad4)*%
X138176000Y-101092000D03*
%TO.P,U9,5,HV*%
%TO.N,Net-(C15-Pad2)*%
X138176000Y-88392000D03*
%TO.P,U9,6,NC*%
%TO.N,unconnected-(U9-Pad6)*%
X138176000Y-83312000D03*
%TD*%
D12*
%TO.P,C22,1*%
%TO.N,Net-(C22-Pad1)*%
X97028000Y-106236888D03*
D13*
%TO.P,C22,2*%
%TO.N,T_3*%
X97028000Y-108736888D03*
%TD*%
D14*
%TO.P,D35,1,K*%
%TO.N,Net-(D34-Pad2)*%
X170688000Y-94136000D03*
D15*
%TO.P,D35,2,A*%
%TO.N,Net-(D35-Pad2)*%
X170688000Y-100936000D03*
%TD*%
D16*
%TO.P,Q13,1,C*%
%TO.N,Net-(D34-Pad1)*%
X170815000Y-90678000D03*
%TO.P,Q13,2,B*%
%TO.N,Net-(Q13-Pad2)*%
X172974000Y-89408000D03*
%TO.P,Q13,3,E*%
%TO.N,Net-(Q13-Pad3)*%
X170815000Y-88128000D03*
%TD*%
D14*
%TO.P,R42,1*%
%TO.N,-5VA*%
X183388000Y-77978000D03*
%TO.P,R42,2*%
%TO.N,Net-(Q14-Pad2)*%
X183388000Y-88138000D03*
%TD*%
%TO.P,R34,1*%
%TO.N,-5VA*%
X154940000Y-77978000D03*
%TO.P,R34,2*%
%TO.N,Net-(Q7-Pad2)*%
X154940000Y-88138000D03*
%TD*%
D12*
%TO.P,C17,1*%
%TO.N,Net-(C16-Pad2)*%
X108966000Y-70524380D03*
D13*
%TO.P,C17,2*%
%TO.N,Net-(C17-Pad2)*%
X108966000Y-68024380D03*
%TD*%
D17*
%TO.P,J7,1,Pin_1*%
%TO.N,GND*%
X194310000Y-101650800D03*
D18*
%TO.P,J7,2,Pin_2*%
%TO.N,Z_IN*%
X194310000Y-99150800D03*
%TO.P,J7,3,Pin_3*%
%TO.N,GND*%
X194310000Y-96650800D03*
%TO.P,J7,4,Pin_4*%
%TO.N,Y_IN*%
X194310000Y-94150800D03*
%TO.P,J7,5,Pin_5*%
%TO.N,GND*%
X194310000Y-91650800D03*
%TO.P,J7,6,Pin_6*%
%TO.N,X_IN*%
X194310000Y-89150800D03*
%TD*%
D14*
%TO.P,R40,1*%
%TO.N,Net-(Q11-Pad3)*%
X173228000Y-69088000D03*
%TO.P,R40,2*%
%TO.N,+5VA*%
X173228000Y-58928000D03*
%TD*%
D19*
%TO.P,D2,1,K*%
%TO.N,GND*%
X105410000Y-95250000D03*
D20*
%TO.P,D2,2,A*%
%TO.N,Net-(C10-Pad1)*%
X105410000Y-87630000D03*
%TD*%
D14*
%TO.P,R29,1*%
%TO.N,+300V*%
X167640000Y-113030000D03*
%TO.P,R29,2*%
%TO.N,Net-(D22-Pad2)*%
X167640000Y-102870000D03*
%TD*%
D10*
%TO.P,C38,1*%
%TO.N,Net-(C23-Pad2)*%
X131318000Y-109688000D03*
%TO.P,C38,2*%
%TO.N,T_5*%
X131318000Y-104688000D03*
%TD*%
D14*
%TO.P,R37,1*%
%TO.N,Net-(Q12-Pad3)*%
X181864000Y-100838000D03*
%TO.P,R37,2*%
%TO.N,Net-(Q14-Pad2)*%
X181864000Y-90678000D03*
%TD*%
D19*
%TO.P,D5,1,K*%
%TO.N,Net-(C10-Pad2)*%
X116078000Y-87630000D03*
D20*
%TO.P,D5,2,A*%
%TO.N,Net-(C11-Pad2)*%
X116078000Y-95250000D03*
%TD*%
D11*
%TO.P,U7,1,GND*%
%TO.N,GND*%
X140970000Y-68834000D03*
D10*
%TO.P,U7,2,VI*%
%TO.N,Net-(C28-Pad2)*%
X143510000Y-68834000D03*
%TO.P,U7,3,VO*%
%TO.N,-5VA*%
X146050000Y-68834000D03*
%TD*%
D14*
%TO.P,R6,1*%
%TO.N,Net-(Q3-Pad1)*%
X59944000Y-60198000D03*
%TO.P,R6,2*%
%TO.N,GND*%
X70104000Y-60198000D03*
%TD*%
D10*
%TO.P,RV1,1,1*%
%TO.N,Net-(R68-Pad2)*%
X125476000Y-123190000D03*
%TO.P,RV1,2,2*%
%TO.N,Net-(J2-Pad3)*%
X128016000Y-120650000D03*
%TO.P,RV1,3,3*%
%TO.N,Net-(R69-Pad1)*%
X130556000Y-123190000D03*
%TD*%
%TO.P,C7,1*%
%TO.N,Net-(C7-Pad1)*%
X88178000Y-79756000D03*
%TO.P,C7,2*%
%TO.N,GND*%
X93178000Y-79756000D03*
%TD*%
D14*
%TO.P,R36,1*%
%TO.N,+300V*%
X148336000Y-113030000D03*
%TO.P,R36,2*%
%TO.N,Net-(D27-Pad2)*%
X148336000Y-102870000D03*
%TD*%
D19*
%TO.P,D9,1,K*%
%TO.N,Net-(C14-Pad2)*%
X130302000Y-87630000D03*
D20*
%TO.P,D9,2,A*%
%TO.N,Net-(C15-Pad2)*%
X130302000Y-95250000D03*
%TD*%
D16*
%TO.P,Q15,1,C*%
%TO.N,+300V*%
X173863000Y-109220000D03*
%TO.P,Q15,2,B*%
%TO.N,Net-(D35-Pad2)*%
X176022000Y-107950000D03*
%TO.P,Q15,3,E*%
%TO.N,Net-(Q15-Pad3)*%
X173863000Y-106670000D03*
%TD*%
%TO.P,Q14,1,C*%
%TO.N,Net-(D31-Pad1)*%
X187833000Y-90678000D03*
%TO.P,Q14,2,B*%
%TO.N,Net-(Q14-Pad2)*%
X189992000Y-89408000D03*
%TO.P,Q14,3,E*%
%TO.N,Net-(Q13-Pad3)*%
X187833000Y-88128000D03*
%TD*%
D14*
%TO.P,D17,1,K*%
%TO.N,Net-(C15-Pad2)*%
X107540000Y-104394000D03*
D15*
%TO.P,D17,2,A*%
%TO.N,Net-(C22-Pad1)*%
X100740000Y-104394000D03*
%TD*%
D21*
%TO.P,J2,1,Pin_1*%
%TO.N,CRT_F2*%
X99060000Y-121412000D03*
D22*
%TO.P,J2,2,Pin_2*%
%TO.N,CRT_F1*%
X103020000Y-121412000D03*
%TO.P,J2,3,Pin_3*%
%TO.N,Net-(J2-Pad3)*%
X106980000Y-121412000D03*
%TO.P,J2,4,Pin_4*%
%TO.N,Net-(J2-Pad4)*%
X110940000Y-121412000D03*
%TO.P,J2,5,Pin_5*%
%TO.N,unconnected-(J2-Pad5)*%
X114900000Y-121412000D03*
%TO.P,J2,6,Pin_6*%
%TO.N,Net-(J2-Pad6)*%
X118860000Y-121412000D03*
%TD*%
D12*
%TO.P,C33,1*%
%TO.N,+12V*%
X186436000Y-58101113D03*
D13*
%TO.P,C33,2*%
%TO.N,GND*%
X186436000Y-55601113D03*
%TD*%
D14*
%TO.P,D23,1,K*%
%TO.N,Net-(D23-Pad1)*%
X165354000Y-94136000D03*
D15*
%TO.P,D23,2,A*%
%TO.N,Net-(D22-Pad1)*%
X165354000Y-100936000D03*
%TD*%
D16*
%TO.P,Q11,1,C*%
%TO.N,Net-(Q11-Pad1)*%
X176403000Y-75184000D03*
%TO.P,Q11,2,B*%
%TO.N,Net-(Q11-Pad2)*%
X178562000Y-73914000D03*
%TO.P,Q11,3,E*%
%TO.N,Net-(Q11-Pad3)*%
X176403000Y-72634000D03*
%TD*%
D14*
%TO.P,R64,1*%
%TO.N,Net-(Q14-Pad2)*%
X187706000Y-85344000D03*
%TO.P,R64,2*%
%TO.N,Net-(Q10-Pad1)*%
X187706000Y-75184000D03*
%TD*%
%TO.P,R62,1*%
%TO.N,Net-(Q12-Pad3)*%
X184912000Y-100838000D03*
%TO.P,R62,2*%
%TO.N,Net-(D31-Pad1)*%
X184912000Y-90678000D03*
%TD*%
%TO.P,R66,1*%
%TO.N,Net-(Q13-Pad3)*%
X180340000Y-88138000D03*
%TO.P,R66,2*%
%TO.N,-5VA*%
X180340000Y-77978000D03*
%TD*%
%TO.P,R65,1*%
%TO.N,Net-(Q13-Pad2)*%
X172974000Y-85344000D03*
%TO.P,R65,2*%
%TO.N,Net-(Q11-Pad1)*%
X172974000Y-75184000D03*
%TD*%
D10*
%TO.P,C29,1*%
%TO.N,+5VA*%
X146010000Y-63500000D03*
%TO.P,C29,2*%
%TO.N,GND*%
X141010000Y-63500000D03*
%TD*%
D14*
%TO.P,R50,1*%
%TO.N,Net-(C15-Pad2)*%
X133858000Y-90932000D03*
%TO.P,R50,2*%
%TO.N,T_5*%
X133858000Y-101092000D03*
%TD*%
%TO.P,R60,1*%
%TO.N,/Deflection_Amplifier/YP*%
X181864000Y-113030000D03*
%TO.P,R60,2*%
%TO.N,Net-(Q12-Pad3)*%
X181864000Y-102870000D03*
%TD*%
%TO.P,R39,1*%
%TO.N,Net-(Q10-Pad3)*%
X182372000Y-69088000D03*
%TO.P,R39,2*%
%TO.N,+5VA*%
X182372000Y-58928000D03*
%TD*%
D10*
%TO.P,L2,1,1*%
%TO.N,Net-(C19-Pad2)*%
X133620000Y-65786000D03*
%TO.P,L2,2,2*%
%TO.N,Net-(C28-Pad2)*%
X135620000Y-65786000D03*
%TD*%
D12*
%TO.P,C16,1*%
%TO.N,Net-(C16-Pad1)*%
X108966000Y-63158380D03*
D13*
%TO.P,C16,2*%
%TO.N,Net-(C16-Pad2)*%
X108966000Y-60658380D03*
%TD*%
D14*
%TO.P,R57,1*%
%TO.N,Net-(Q7-Pad2)*%
X150622000Y-85344000D03*
%TO.P,R57,2*%
%TO.N,Net-(Q5-Pad1)*%
X150622000Y-75184000D03*
%TD*%
D19*
%TO.P,D7,1,K*%
%TO.N,Net-(C12-Pad2)*%
X123190000Y-87630000D03*
D20*
%TO.P,D7,2,A*%
%TO.N,Net-(C13-Pad2)*%
X123190000Y-95250000D03*
%TD*%
D14*
%TO.P,R51,1*%
%TO.N,+300V*%
X177292000Y-117856000D03*
%TO.P,R51,2*%
%TO.N,Net-(NE1-Pad1)*%
X187452000Y-117856000D03*
%TD*%
%TO.P,R7,1*%
%TO.N,Net-(C8-Pad2)*%
X93472000Y-65278000D03*
%TO.P,R7,2*%
%TO.N,Net-(R7-Pad2)*%
X103632000Y-65278000D03*
%TD*%
%TO.P,NE1,1*%
%TO.N,Net-(NE1-Pad1)*%
X194564000Y-114300000D03*
%TO.P,NE1,2*%
%TO.N,GND*%
X194564000Y-111760000D03*
%TD*%
%TO.P,D30,1,K*%
%TO.N,Net-(D30-Pad1)*%
X189992000Y-94136000D03*
D15*
%TO.P,D30,2,A*%
%TO.N,Net-(D30-Pad2)*%
X189992000Y-100936000D03*
%TD*%
D19*
%TO.P,D20,1,K*%
%TO.N,+12V*%
X61214000Y-107696000D03*
D20*
%TO.P,D20,2,A*%
%TO.N,GND*%
X53594000Y-107696000D03*
%TD*%
D14*
%TO.P,R61,1*%
%TO.N,/Deflection_Amplifier/YN*%
X178816000Y-113030000D03*
%TO.P,R61,2*%
%TO.N,Net-(Q15-Pad3)*%
X178816000Y-102870000D03*
%TD*%
%TO.P,R63,1*%
%TO.N,Net-(Q15-Pad3)*%
X175768000Y-100838000D03*
%TO.P,R63,2*%
%TO.N,Net-(D34-Pad1)*%
X175768000Y-90678000D03*
%TD*%
D17*
%TO.P,J5,1,Pin_1*%
%TO.N,-5VA*%
X194310000Y-81254600D03*
D18*
%TO.P,J5,2,Pin_2*%
%TO.N,GND*%
X194310000Y-78754600D03*
%TO.P,J5,3,Pin_3*%
%TO.N,+5VA*%
X194310000Y-76254600D03*
%TO.P,J5,4,Pin_4*%
%TO.N,GND*%
X194310000Y-73754600D03*
%TO.P,J5,5,Pin_5*%
%TO.N,PWR_ON*%
X194310000Y-71254600D03*
%TO.P,J5,6,Pin_6*%
%TO.N,GND*%
X194310000Y-68754600D03*
%TO.P,J5,7,Pin_7*%
%TO.N,+5VD*%
X194310000Y-66254600D03*
%TO.P,J5,8,Pin_8*%
%TO.N,+12V*%
X194310000Y-63754600D03*
%TD*%
D16*
%TO.P,Q9,1,C*%
%TO.N,+300V*%
X151511000Y-109220000D03*
%TO.P,Q9,2,B*%
%TO.N,Net-(D27-Pad2)*%
X153670000Y-107950000D03*
%TO.P,Q9,3,E*%
%TO.N,Net-(Q9-Pad3)*%
X151511000Y-106670000D03*
%TD*%
D14*
%TO.P,R24,1*%
%TO.N,VREF*%
X72644000Y-56896000D03*
%TO.P,R24,2*%
%TO.N,Net-(C37-Pad1)*%
X62484000Y-56896000D03*
%TD*%
%TO.P,R32,1*%
%TO.N,Net-(Q4-Pad3)*%
X159512000Y-69088000D03*
%TO.P,R32,2*%
%TO.N,Net-(Q5-Pad3)*%
X159512000Y-58928000D03*
%TD*%
%TO.P,D22,1,K*%
%TO.N,Net-(D22-Pad1)*%
X167640000Y-94136000D03*
D15*
%TO.P,D22,2,A*%
%TO.N,Net-(D22-Pad2)*%
X167640000Y-100936000D03*
%TD*%
D14*
%TO.P,R1,1*%
%TO.N,VREF*%
X76200000Y-77470000D03*
%TO.P,R1,2*%
%TO.N,Net-(C4-Pad1)*%
X86360000Y-77470000D03*
%TD*%
D19*
%TO.P,D3,1,K*%
%TO.N,Net-(C10-Pad1)*%
X108966000Y-87630000D03*
D20*
%TO.P,D3,2,A*%
%TO.N,Net-(C11-Pad1)*%
X108966000Y-95250000D03*
%TD*%
D14*
%TO.P,D10,1,K*%
%TO.N,Net-(C16-Pad1)*%
X113694000Y-60452000D03*
D15*
%TO.P,D10,2,A*%
%TO.N,GND*%
X120494000Y-60452000D03*
%TD*%
D10*
%TO.P,C2,1*%
%TO.N,+12V*%
X59904000Y-103378000D03*
%TO.P,C2,2*%
%TO.N,GND*%
X54904000Y-103378000D03*
%TD*%
D14*
%TO.P,D11,1,K*%
%TO.N,GND*%
X120494000Y-70866000D03*
D15*
%TO.P,D11,2,A*%
%TO.N,Net-(C17-Pad2)*%
X113694000Y-70866000D03*
%TD*%
D14*
%TO.P,R35,1*%
%TO.N,Net-(Q9-Pad3)*%
X156464000Y-100838000D03*
%TO.P,R35,2*%
%TO.N,Net-(Q7-Pad2)*%
X156464000Y-90678000D03*
%TD*%
%TO.P,R10,1*%
%TO.N,Net-(C8-Pad1)*%
X76200000Y-74168000D03*
%TO.P,R10,2*%
%TO.N,Net-(C8-Pad2)*%
X86360000Y-74168000D03*
%TD*%
D19*
%TO.P,D15,1,K*%
%TO.N,+300V*%
X106934000Y-75438000D03*
D20*
%TO.P,D15,2,A*%
%TO.N,Net-(C20-Pad1)*%
X99314000Y-75438000D03*
%TD*%
D14*
%TO.P,D12,1,K*%
%TO.N,Net-(C18-Pad1)*%
X120494000Y-63246000D03*
D15*
%TO.P,D12,2,A*%
%TO.N,Net-(C16-Pad1)*%
X113694000Y-63246000D03*
%TD*%
D14*
%TO.P,R69,1*%
%TO.N,Net-(R69-Pad1)*%
X127254000Y-113538000D03*
%TO.P,R69,2*%
%TO.N,Net-(C15-Pad2)*%
X127254000Y-103378000D03*
%TD*%
D10*
%TO.P,C5,1*%
%TO.N,VREF*%
X80772000Y-59904000D03*
%TO.P,C5,2*%
%TO.N,GND*%
X80772000Y-54904000D03*
%TD*%
D16*
%TO.P,Q12,1,C*%
%TO.N,+300V*%
X185039000Y-109220000D03*
%TO.P,Q12,2,B*%
%TO.N,Net-(D30-Pad2)*%
X187198000Y-107950000D03*
%TO.P,Q12,3,E*%
%TO.N,Net-(Q12-Pad3)*%
X185039000Y-106670000D03*
%TD*%
D12*
%TO.P,C21,1*%
%TO.N,+300V*%
X113538000Y-75563349D03*
D13*
%TO.P,C21,2*%
%TO.N,GND*%
X113538000Y-79063349D03*
%TD*%
D10*
%TO.P,L1,1,1*%
%TO.N,Net-(C18-Pad1)*%
X125238000Y-65786000D03*
%TO.P,L1,2,2*%
%TO.N,Net-(C27-Pad1)*%
X127238000Y-65786000D03*
%TD*%
D16*
%TO.P,Q8,1,C*%
%TO.N,Net-(D23-Pad1)*%
X165481000Y-90678000D03*
%TO.P,Q8,2,B*%
%TO.N,Net-(Q8-Pad2)*%
X167640000Y-89408000D03*
%TO.P,Q8,3,E*%
%TO.N,Net-(Q7-Pad3)*%
X165481000Y-88128000D03*
%TD*%
D14*
%TO.P,R18,1*%
%TO.N,Net-(C15-Pad2)*%
X116078000Y-103378000D03*
%TO.P,R18,2*%
%TO.N,Net-(J2-Pad4)*%
X116078000Y-113538000D03*
%TD*%
%TO.P,D18,1,K*%
%TO.N,Net-(C24-Pad1)*%
X100740000Y-112268000D03*
D15*
%TO.P,D18,2,A*%
%TO.N,T_5*%
X107540000Y-112268000D03*
%TD*%
D16*
%TO.P,Q10,1,C*%
%TO.N,Net-(Q10-Pad1)*%
X182753000Y-75184000D03*
%TO.P,Q10,2,B*%
%TO.N,Y_IN*%
X184912000Y-73914000D03*
%TO.P,Q10,3,E*%
%TO.N,Net-(Q10-Pad3)*%
X182753000Y-72634000D03*
%TD*%
D19*
%TO.P,D8,1,K*%
%TO.N,Net-(C13-Pad2)*%
X126746000Y-95250000D03*
D20*
%TO.P,D8,2,A*%
%TO.N,Net-(C14-Pad2)*%
X126746000Y-87630000D03*
%TD*%
D14*
%TO.P,R67,1*%
%TO.N,Net-(Q11-Pad2)*%
X176276000Y-69088000D03*
%TO.P,R67,2*%
%TO.N,GND*%
X176276000Y-58928000D03*
%TD*%
D12*
%TO.P,C20,1*%
%TO.N,Net-(C20-Pad1)*%
X89154000Y-86739349D03*
D13*
%TO.P,C20,2*%
%TO.N,Net-(C20-Pad2)*%
X89154000Y-90239349D03*
%TD*%
D14*
%TO.P,R38,1*%
%TO.N,+300V*%
X189992000Y-113030000D03*
%TO.P,R38,2*%
%TO.N,Net-(D30-Pad2)*%
X189992000Y-102870000D03*
%TD*%
D12*
%TO.P,U1,1,COMP*%
%TO.N,Net-(C8-Pad1)*%
X82052000Y-70856000D03*
D23*
%TO.P,U1,2,FB*%
%TO.N,Net-(C8-Pad2)*%
X84592000Y-70856000D03*
%TO.P,U1,3,CS*%
%TO.N,Net-(C7-Pad1)*%
X87132000Y-70856000D03*
%TO.P,U1,4,RC*%
%TO.N,Net-(C4-Pad1)*%
X89672000Y-70856000D03*
%TO.P,U1,5,GND*%
%TO.N,GND*%
X89672000Y-63236000D03*
%TO.P,U1,6,OUT*%
%TO.N,Net-(R2-Pad1)*%
X87132000Y-63236000D03*
%TO.P,U1,7,VCC*%
%TO.N,+12V*%
X84592000Y-63236000D03*
%TO.P,U1,8,VREF*%
%TO.N,VREF*%
X82052000Y-63236000D03*
%TD*%
D14*
%TO.P,D19,1,K*%
%TO.N,Net-(C23-Pad2)*%
X107540000Y-109728000D03*
D15*
%TO.P,D19,2,A*%
%TO.N,Net-(C24-Pad1)*%
X100740000Y-109728000D03*
%TD*%
D10*
%TO.P,C34,1*%
%TO.N,+5VD*%
X188468000Y-67604000D03*
%TO.P,C34,2*%
%TO.N,GND*%
X188468000Y-72604000D03*
%TD*%
D12*
%TO.P,C18,1*%
%TO.N,Net-(C18-Pad1)*%
X126238000Y-60364380D03*
D13*
%TO.P,C18,2*%
%TO.N,GND*%
X126238000Y-57864380D03*
%TD*%
D12*
%TO.P,C23,1*%
%TO.N,Net-(C15-Pad2)*%
X111252000Y-104458888D03*
D13*
%TO.P,C23,2*%
%TO.N,Net-(C23-Pad2)*%
X111252000Y-106958888D03*
%TD*%
D19*
%TO.P,D4,1,K*%
%TO.N,Net-(C11-Pad1)*%
X112522000Y-95250000D03*
D20*
%TO.P,D4,2,A*%
%TO.N,Net-(C10-Pad2)*%
X112522000Y-87630000D03*
%TD*%
D14*
%TO.P,R49,1*%
%TO.N,VREF*%
X93472000Y-58928000D03*
%TO.P,R49,2*%
%TO.N,Net-(Q2-Pad2)*%
X103632000Y-58928000D03*
%TD*%
D24*
%TO.P,Q3,1,G*%
%TO.N,Net-(Q3-Pad1)*%
X65786000Y-70612000D03*
D25*
%TO.P,Q3,2,D*%
%TO.N,Net-(D1-Pad2)*%
X63246000Y-70612000D03*
%TO.P,Q3,3,S*%
%TO.N,Net-(Q3-Pad3)*%
X60706000Y-70612000D03*
%TD*%
D14*
%TO.P,R30,1*%
%TO.N,Net-(Q4-Pad3)*%
X162560000Y-69088000D03*
%TO.P,R30,2*%
%TO.N,+5VA*%
X162560000Y-58928000D03*
%TD*%
D26*
%TO.P,D39,1,A1*%
%TO.N,Net-(D1-Pad1)*%
X64770000Y-91440000D03*
D27*
%TO.P,D39,2,A2*%
%TO.N,+12V*%
X64770000Y-101600000D03*
%TD*%
D14*
%TO.P,R56,1*%
%TO.N,Net-(Q8-Pad2)*%
X165354000Y-85344000D03*
%TO.P,R56,2*%
%TO.N,Net-(Q4-Pad1)*%
X165354000Y-75184000D03*
%TD*%
%TO.P,D16,1,K*%
%TO.N,Net-(C22-Pad1)*%
X100740000Y-106934000D03*
D15*
%TO.P,D16,2,A*%
%TO.N,T_5*%
X107540000Y-106934000D03*
%TD*%
D28*
%TO.P,Q2,1,E*%
%TO.N,GND*%
X89810000Y-56134000D03*
D29*
%TO.P,Q2,2,B*%
%TO.N,Net-(Q2-Pad2)*%
X89810000Y-57404000D03*
%TO.P,Q2,3,C*%
%TO.N,Net-(C37-Pad1)*%
X89810000Y-58674000D03*
%TD*%
D12*
%TO.P,C28,1*%
%TO.N,GND*%
X134620000Y-73572380D03*
D13*
%TO.P,C28,2*%
%TO.N,Net-(C28-Pad2)*%
X134620000Y-71072380D03*
%TD*%
D19*
%TO.P,D14,1,K*%
%TO.N,Net-(C20-Pad1)*%
X99314000Y-78994000D03*
D20*
%TO.P,D14,2,A*%
%TO.N,GND*%
X106934000Y-78994000D03*
%TD*%
D14*
%TO.P,R44,1*%
%TO.N,Net-(Q15-Pad3)*%
X178816000Y-100838000D03*
%TO.P,R44,2*%
%TO.N,Net-(Q13-Pad2)*%
X178816000Y-90678000D03*
%TD*%
D16*
%TO.P,Q5,1,C*%
%TO.N,Net-(Q5-Pad1)*%
X154051000Y-75184000D03*
%TO.P,Q5,2,B*%
%TO.N,Net-(Q5-Pad2)*%
X156210000Y-73914000D03*
%TO.P,Q5,3,E*%
%TO.N,Net-(Q5-Pad3)*%
X154051000Y-72634000D03*
%TD*%
D14*
%TO.P,D26,1,K*%
%TO.N,Net-(D26-Pad1)*%
X150622000Y-94136000D03*
D15*
%TO.P,D26,2,A*%
%TO.N,Net-(D26-Pad2)*%
X150622000Y-100936000D03*
%TD*%
D11*
%TO.P,U6,1,VO*%
%TO.N,+5VD*%
X188468000Y-65532000D03*
D10*
%TO.P,U6,2,GND*%
%TO.N,GND*%
X188468000Y-62992000D03*
%TO.P,U6,3,VI*%
%TO.N,+12V*%
X188468000Y-60452000D03*
%TD*%
D12*
%TO.P,U3,1,NC*%
%TO.N,unconnected-(U3-Pad1)*%
X142484000Y-112258000D03*
D23*
%TO.P,U3,2,A*%
%TO.N,Net-(R19-Pad1)*%
X142484000Y-109718000D03*
%TO.P,U3,3,C*%
%TO.N,GND*%
X142484000Y-107178000D03*
%TO.P,U3,4,NC*%
%TO.N,unconnected-(U3-Pad4)*%
X142484000Y-104638000D03*
%TO.P,U3,5,GND*%
%TO.N,T_5*%
X134864000Y-104638000D03*
%TO.P,U3,6,VO*%
%TO.N,Net-(Q1-Pad2)*%
X134864000Y-107178000D03*
%TO.P,U3,7,EN*%
%TO.N,Net-(C23-Pad2)*%
X134864000Y-109718000D03*
%TO.P,U3,8,VCC*%
X134864000Y-112258000D03*
%TD*%
D14*
%TO.P,R41,1*%
%TO.N,Net-(Q10-Pad3)*%
X179324000Y-69088000D03*
%TO.P,R41,2*%
%TO.N,Net-(Q11-Pad3)*%
X179324000Y-58928000D03*
%TD*%
%TO.P,R8,1*%
%TO.N,Net-(R7-Pad2)*%
X93472000Y-68326000D03*
%TO.P,R8,2*%
%TO.N,+300V*%
X103632000Y-68326000D03*
%TD*%
D10*
%TO.P,C36,1*%
%TO.N,GND*%
X169164000Y-72938000D03*
%TO.P,C36,2*%
%TO.N,-5VA*%
X169164000Y-77938000D03*
%TD*%
D14*
%TO.P,R43,1*%
%TO.N,-5VA*%
X177292000Y-77978000D03*
%TO.P,R43,2*%
%TO.N,Net-(Q13-Pad2)*%
X177292000Y-88138000D03*
%TD*%
%TO.P,R52,1*%
%TO.N,Net-(Q6-Pad3)*%
X162560000Y-100838000D03*
%TO.P,R52,2*%
%TO.N,Net-(D23-Pad1)*%
X162560000Y-90678000D03*
%TD*%
D30*
%TO.P,J1,1,Pin_1*%
%TO.N,Net-(F1-Pad1)*%
X56430000Y-112626000D03*
D22*
%TO.P,J1,2,Pin_2*%
%TO.N,GND*%
X56430000Y-116586000D03*
%TD*%
D14*
%TO.P,R53,1*%
%TO.N,Net-(Q9-Pad3)*%
X153416000Y-100838000D03*
%TO.P,R53,2*%
%TO.N,Net-(D26-Pad1)*%
X153416000Y-90678000D03*
%TD*%
%TO.P,R70,1*%
%TO.N,PWR_ON*%
X103632000Y-55880000D03*
%TO.P,R70,2*%
%TO.N,Net-(Q2-Pad2)*%
X93472000Y-55880000D03*
%TD*%
%TO.P,R68,1*%
%TO.N,Net-(R68-Pad1)*%
X131826000Y-116078000D03*
%TO.P,R68,2*%
%TO.N,Net-(R68-Pad2)*%
X121666000Y-116078000D03*
%TD*%
%TO.P,R55,1*%
%TO.N,/Deflection_Amplifier/XN*%
X156464000Y-113030000D03*
%TO.P,R55,2*%
%TO.N,Net-(Q9-Pad3)*%
X156464000Y-102870000D03*
%TD*%
%TO.P,R33,1*%
%TO.N,-5VA*%
X161036000Y-77978000D03*
%TO.P,R33,2*%
%TO.N,Net-(Q8-Pad2)*%
X161036000Y-88138000D03*
%TD*%
D10*
%TO.P,F1,1*%
%TO.N,Net-(F1-Pad1)*%
X62484000Y-120904000D03*
%TO.P,F1,2*%
%TO.N,+12V*%
X62484000Y-110744000D03*
%TD*%
D14*
%TO.P,R45,1*%
%TO.N,+300V*%
X170688000Y-113030000D03*
%TO.P,R45,2*%
%TO.N,Net-(D35-Pad2)*%
X170688000Y-102870000D03*
%TD*%
%TO.P,R59,1*%
%TO.N,Net-(Q5-Pad2)*%
X156464000Y-69088000D03*
%TO.P,R59,2*%
%TO.N,GND*%
X156464000Y-58928000D03*
%TD*%
D19*
%TO.P,D1,1,K*%
%TO.N,Net-(D1-Pad1)*%
X68834000Y-91440000D03*
D20*
%TO.P,D1,2,A*%
%TO.N,Net-(D1-Pad2)*%
X76454000Y-91440000D03*
%TD*%
D16*
%TO.P,Q4,1,C*%
%TO.N,Net-(Q4-Pad1)*%
X160401000Y-75184000D03*
%TO.P,Q4,2,B*%
%TO.N,X_IN*%
X162560000Y-73914000D03*
%TO.P,Q4,3,E*%
%TO.N,Net-(Q4-Pad3)*%
X160401000Y-72634000D03*
%TD*%
D10*
%TO.P,C3,1*%
%TO.N,+12V*%
X85344000Y-59904000D03*
%TO.P,C3,2*%
%TO.N,GND*%
X85344000Y-54904000D03*
%TD*%
D14*
%TO.P,R16,1*%
%TO.N,Net-(C23-Pad2)*%
X123952000Y-103378000D03*
%TO.P,R16,2*%
%TO.N,Net-(Q1-Pad2)*%
X123952000Y-113538000D03*
%TD*%
D12*
%TO.P,C27,1*%
%TO.N,Net-(C27-Pad1)*%
X134620000Y-60364380D03*
D13*
%TO.P,C27,2*%
%TO.N,GND*%
X134620000Y-57864380D03*
%TD*%
D10*
%TO.P,C37,1*%
%TO.N,Net-(C37-Pad1)*%
X76200000Y-54904000D03*
%TO.P,C37,2*%
%TO.N,GND*%
X76200000Y-59904000D03*
%TD*%
D14*
%TO.P,D27,1,K*%
%TO.N,Net-(D26-Pad2)*%
X148336000Y-94136000D03*
D15*
%TO.P,D27,2,A*%
%TO.N,Net-(D27-Pad2)*%
X148336000Y-100936000D03*
%TD*%
D31*
%TO.P,R26,1*%
%TO.N,Net-(Q3-Pad3)*%
X73152000Y-86106000D03*
D27*
%TO.P,R26,2*%
%TO.N,GND*%
X52832000Y-86106000D03*
%TD*%
D14*
%TO.P,R28,1*%
%TO.N,Net-(Q6-Pad3)*%
X159512000Y-100838000D03*
%TO.P,R28,2*%
%TO.N,Net-(Q8-Pad2)*%
X159512000Y-90678000D03*
%TD*%
D31*
%TO.P,HS1,1*%
%TO.N,unconnected-(HS1-Pad1)*%
X54246000Y-75692000D03*
%TO.P,HS1,2*%
%TO.N,unconnected-(HS1-Pad2)*%
X72246000Y-75692000D03*
%TD*%
D10*
%TO.P,RV3,1,1*%
%TO.N,GND*%
X144272000Y-123190000D03*
%TO.P,RV3,2,2*%
%TO.N,/Deflection_Amplifier/ASTIG*%
X146812000Y-120650000D03*
%TO.P,RV3,3,3*%
%TO.N,+300V*%
X149352000Y-123190000D03*
%TD*%
%TO.P,C35,1*%
%TO.N,+5VA*%
X169164000Y-58928000D03*
%TO.P,C35,2*%
%TO.N,GND*%
X169164000Y-63928000D03*
%TD*%
%TO.P,C32,1*%
%TO.N,GND*%
X141010000Y-73406000D03*
%TO.P,C32,2*%
%TO.N,-5VA*%
X146010000Y-73406000D03*
%TD*%
D16*
%TO.P,Q7,1,C*%
%TO.N,Net-(D26-Pad1)*%
X148463000Y-90678000D03*
%TO.P,Q7,2,B*%
%TO.N,Net-(Q7-Pad2)*%
X150622000Y-89408000D03*
%TO.P,Q7,3,E*%
%TO.N,Net-(Q7-Pad3)*%
X148463000Y-88128000D03*
%TD*%
D12*
%TO.P,C19,1*%
%TO.N,GND*%
X126238000Y-73572380D03*
D13*
%TO.P,C19,2*%
%TO.N,Net-(C19-Pad2)*%
X126238000Y-71072380D03*
%TD*%
D32*
%TO.P,C1,1*%
%TO.N,+12V*%
X59771677Y-95250000D03*
D33*
%TO.P,C1,2*%
%TO.N,GND*%
X54771677Y-95250000D03*
%TD*%
D10*
%TO.P,C8,1*%
%TO.N,Net-(C8-Pad1)*%
X77724000Y-71588000D03*
%TO.P,C8,2*%
%TO.N,Net-(C8-Pad2)*%
X77724000Y-66588000D03*
%TD*%
%TO.P,RV2,1,1*%
%TO.N,Net-(R68-Pad1)*%
X134874000Y-123190000D03*
%TO.P,RV2,2,2*%
%TO.N,Net-(J2-Pad6)*%
X137414000Y-120650000D03*
%TO.P,RV2,3,3*%
%TO.N,Net-(R15-Pad2)*%
X139954000Y-123190000D03*
%TD*%
D12*
%TO.P,C25,1*%
%TO.N,Net-(C23-Pad2)*%
X111252000Y-110300888D03*
D13*
%TO.P,C25,2*%
%TO.N,T_5*%
X111252000Y-112800888D03*
%TD*%
D14*
%TO.P,R19,1*%
%TO.N,Net-(R19-Pad1)*%
X177292000Y-121412000D03*
%TO.P,R19,2*%
%TO.N,Z_IN*%
X187452000Y-121412000D03*
%TD*%
D12*
%TO.P,C24,1*%
%TO.N,Net-(C24-Pad1)*%
X97028000Y-112078888D03*
D13*
%TO.P,C24,2*%
%TO.N,T_4*%
X97028000Y-114578888D03*
%TD*%
D16*
%TO.P,Q6,1,C*%
%TO.N,+300V*%
X162687000Y-109220000D03*
%TO.P,Q6,2,B*%
%TO.N,Net-(D22-Pad2)*%
X164846000Y-107950000D03*
%TO.P,Q6,3,E*%
%TO.N,Net-(Q6-Pad3)*%
X162687000Y-106670000D03*
%TD*%
D14*
%TO.P,R58,1*%
%TO.N,Net-(Q7-Pad3)*%
X157988000Y-88138000D03*
%TO.P,R58,2*%
%TO.N,-5VA*%
X157988000Y-77978000D03*
%TD*%
%TO.P,R54,1*%
%TO.N,/Deflection_Amplifier/XP*%
X159512000Y-113030000D03*
%TO.P,R54,2*%
%TO.N,Net-(Q6-Pad3)*%
X159512000Y-102870000D03*
%TD*%
%TO.P,R15,1*%
%TO.N,GND*%
X145288000Y-116078000D03*
%TO.P,R15,2*%
%TO.N,Net-(R15-Pad2)*%
X135128000Y-116078000D03*
%TD*%
D21*
%TO.P,J6,1,Pin_1*%
%TO.N,/Deflection_Amplifier/ASTIG*%
X154940000Y-121412000D03*
D22*
%TO.P,J6,2,Pin_2*%
%TO.N,/Deflection_Amplifier/XN*%
X158900000Y-121412000D03*
%TO.P,J6,3,Pin_3*%
%TO.N,/Deflection_Amplifier/XP*%
X162860000Y-121412000D03*
%TO.P,J6,4,Pin_4*%
%TO.N,/Deflection_Amplifier/YN*%
X166820000Y-121412000D03*
%TO.P,J6,5,Pin_5*%
%TO.N,/Deflection_Amplifier/YP*%
X170780000Y-121412000D03*
%TD*%
D10*
%TO.P,F2,1*%
%TO.N,Net-(F2-Pad1)*%
X80518000Y-121920000D03*
%TO.P,F2,2*%
%TO.N,CRT_F2*%
X90678000Y-121920000D03*
%TD*%
D14*
%TO.P,D31,1,K*%
%TO.N,Net-(D31-Pad1)*%
X187706000Y-94136000D03*
D15*
%TO.P,D31,2,A*%
%TO.N,Net-(D30-Pad1)*%
X187706000Y-100936000D03*
%TD*%
D11*
%TO.P,U8,1,VO*%
%TO.N,+5VA*%
X146050000Y-57806000D03*
D10*
%TO.P,U8,2,GND*%
%TO.N,GND*%
X143510000Y-57806000D03*
%TO.P,U8,3,VI*%
%TO.N,Net-(C27-Pad1)*%
X140970000Y-57806000D03*
%TD*%
D14*
%TO.P,R48,1*%
%TO.N,Net-(J2-Pad3)*%
X111252000Y-115824000D03*
%TO.P,R48,2*%
%TO.N,CRT_F1*%
X101092000Y-115824000D03*
%TD*%
D10*
%TO.P,C4,1*%
%TO.N,Net-(C4-Pad1)*%
X88178000Y-75184000D03*
%TO.P,C4,2*%
%TO.N,GND*%
X93178000Y-75184000D03*
%TD*%
D19*
%TO.P,D6,1,K*%
%TO.N,Net-(C11-Pad2)*%
X119634000Y-95250000D03*
D20*
%TO.P,D6,2,A*%
%TO.N,Net-(C12-Pad2)*%
X119634000Y-87630000D03*
%TD*%
D14*
%TO.P,D34,1,K*%
%TO.N,Net-(D34-Pad1)*%
X172974000Y-94136000D03*
D15*
%TO.P,D34,2,A*%
%TO.N,Net-(D34-Pad2)*%
X172974000Y-100936000D03*
%TD*%
D14*
%TO.P,R2,1*%
%TO.N,Net-(R2-Pad1)*%
X70104000Y-63500000D03*
%TO.P,R2,2*%
%TO.N,Net-(Q3-Pad1)*%
X59944000Y-63500000D03*
%TD*%
D34*
%TO.P,Q16,1,E*%
%TO.N,Net-(C8-Pad1)*%
X75946000Y-62992000D03*
D35*
%TO.P,Q16,2,B*%
%TO.N,Net-(C37-Pad1)*%
X74676000Y-62992000D03*
%TO.P,Q16,3,C*%
%TO.N,GND*%
X73406000Y-62992000D03*
%TD*%
D14*
%TO.P,R31,1*%
%TO.N,Net-(Q5-Pad3)*%
X153416000Y-69088000D03*
%TO.P,R31,2*%
%TO.N,+5VA*%
X153416000Y-58928000D03*
%TD*%
%TO.P,R4,1*%
%TO.N,Net-(C7-Pad1)*%
X86360000Y-80772000D03*
%TO.P,R4,2*%
%TO.N,Net-(Q3-Pad3)*%
X76200000Y-80772000D03*
%TD*%
D36*
%TO.N,+12V*%
X55118000Y-64770000D03*
%TD*%
D37*
%TO.N,Net-(Q12-Pad3)*%
X184912000Y-106543000D02*
X185039000Y-106670000D01*
X184912000Y-100838000D02*
X184912000Y-106543000D01*
X181864000Y-100838000D02*
X181864000Y-102870000D01*
%TO.N,Net-(Q9-Pad3)*%
X151511000Y-105537000D02*
X153416000Y-103632000D01*
X153416000Y-103632000D02*
X153416000Y-100838000D01*
X151511000Y-106670000D02*
X151511000Y-105537000D01*
%TO.N,Net-(Q15-Pad3)*%
X175768000Y-103632000D02*
X175768000Y-100838000D01*
X173863000Y-105537000D02*
X175768000Y-103632000D01*
X173863000Y-106670000D02*
X173863000Y-105537000D01*
%TO.N,Net-(Q6-Pad3)*%
X162560000Y-106543000D02*
X162687000Y-106670000D01*
X162560000Y-100838000D02*
X162560000Y-106543000D01*
%TO.N,Net-(D31-Pad1)*%
X187833000Y-90678000D02*
X187833000Y-94009000D01*
%TO.N,Net-(D34-Pad1)*%
X175768000Y-90678000D02*
X175768000Y-92456000D01*
X175768000Y-92456000D02*
X174088000Y-94136000D01*
X174088000Y-94136000D02*
X172974000Y-94136000D01*
D38*
%TO.N,GND*%
X196596000Y-101600000D02*
X196850000Y-101346000D01*
X194310000Y-101600000D02*
X196596000Y-101600000D01*
X196719200Y-96650800D02*
X196850000Y-96520000D01*
X194360800Y-96650800D02*
X196719200Y-96650800D01*
X196756000Y-91600000D02*
X196850000Y-91694000D01*
X194310000Y-91600000D02*
X196756000Y-91600000D01*
D39*
%TO.N,X_IN*%
X162560000Y-75692000D02*
X166878000Y-80010000D01*
X194310000Y-86614000D02*
X194310000Y-89100000D01*
X162560000Y-73914000D02*
X162560000Y-75692000D01*
X166878000Y-80010000D02*
X187706000Y-80010000D01*
X187706000Y-80010000D02*
X194310000Y-86614000D01*
D38*
%TO.N,GND*%
X196810000Y-78780000D02*
X196850000Y-78740000D01*
X194310000Y-78780000D02*
X196810000Y-78780000D01*
D37*
%TO.N,-5VA*%
X191998600Y-81254600D02*
X194284600Y-81254600D01*
X183388000Y-77978000D02*
X188722000Y-77978000D01*
X188722000Y-77978000D02*
X191998600Y-81254600D01*
%TO.N,+5VA*%
X192993000Y-76280000D02*
X194310000Y-76280000D01*
X191262000Y-74549000D02*
X192993000Y-76280000D01*
X189738000Y-70104000D02*
X191262000Y-71628000D01*
X182372000Y-65278000D02*
X187198000Y-70104000D01*
X187198000Y-70104000D02*
X189738000Y-70104000D01*
X182372000Y-58928000D02*
X182372000Y-65278000D01*
X191262000Y-71628000D02*
X191262000Y-74549000D01*
%TO.N,GND*%
X196436600Y-73754600D02*
X196850000Y-74168000D01*
X194335400Y-73754600D02*
X196436600Y-73754600D01*
D38*
X196262600Y-68754600D02*
X196850000Y-69342000D01*
X194335400Y-68754600D02*
X196262600Y-68754600D01*
D37*
%TO.N,+5VD*%
X188468000Y-65532000D02*
X191262000Y-65532000D01*
X191262000Y-65532000D02*
X191984600Y-66254600D01*
X191984600Y-66254600D02*
X194310000Y-66254600D01*
D38*
%TO.N,Net-(C16-Pad1)*%
X113694000Y-63246000D02*
X113694000Y-60452000D01*
X113606380Y-63158380D02*
X113694000Y-63246000D01*
X108966000Y-63158380D02*
X113606380Y-63158380D01*
D40*
%TO.N,GND*%
X90454000Y-96744000D02*
X90454000Y-95504000D01*
D38*
X52324000Y-72390000D02*
X52084489Y-72629511D01*
D40*
X82042000Y-98806000D02*
X88392000Y-98806000D01*
X186436000Y-55601113D02*
X183158887Y-52324000D01*
X97536000Y-90170000D02*
X106934000Y-80772000D01*
X97536000Y-96012000D02*
X104648000Y-96012000D01*
D37*
X70104000Y-60198000D02*
X73660000Y-60198000D01*
D38*
X196850000Y-63246000D02*
X193548000Y-59944000D01*
X126238000Y-57864380D02*
X123081620Y-57864380D01*
X172974000Y-55626000D02*
X159766000Y-55626000D01*
D40*
X120494000Y-70866000D02*
X118872000Y-70866000D01*
D41*
X51942517Y-72771483D02*
X51942517Y-78105000D01*
D38*
X152908000Y-55372000D02*
X156464000Y-58928000D01*
D37*
X145288000Y-106172000D02*
X145288000Y-107188000D01*
D40*
X143510000Y-61000005D02*
X143510000Y-57806006D01*
D37*
X145288000Y-116078000D02*
X144272000Y-117094000D01*
X73406000Y-62992000D02*
X73406000Y-60452000D01*
X73660000Y-60198000D02*
X75906000Y-60198000D01*
D40*
X97028000Y-95504000D02*
X97536000Y-96012000D01*
D38*
X196850000Y-78740000D02*
X196850000Y-74168000D01*
D42*
X52831517Y-93310812D02*
X52831517Y-108966000D01*
D40*
X107003349Y-79063349D02*
X106934000Y-78994000D01*
D38*
X149352000Y-66294000D02*
X141224000Y-66294000D01*
D37*
X89810000Y-56134000D02*
X86574000Y-56134000D01*
X89672000Y-63236000D02*
X92466000Y-63236000D01*
D40*
X117094000Y-69088000D02*
X117094000Y-60706000D01*
X143510000Y-57806006D02*
X143510000Y-55626000D01*
X90454000Y-95504000D02*
X97028000Y-95504000D01*
X113538000Y-79063349D02*
X117532651Y-79063349D01*
X118872000Y-70866000D02*
X117094000Y-69088000D01*
X88392000Y-98806000D02*
X90454000Y-96744000D01*
D43*
X52832000Y-86106000D02*
X52832000Y-93310329D01*
D40*
X120494000Y-76102000D02*
X120494000Y-70866000D01*
D38*
X188468000Y-62992000D02*
X190500000Y-62992000D01*
D40*
X106934000Y-80772000D02*
X106934000Y-78994000D01*
D44*
X52323517Y-80771517D02*
X52323517Y-78486000D01*
D38*
X190500000Y-62992000D02*
X193548000Y-59944000D01*
D37*
X145288000Y-107188000D02*
X145278000Y-107178000D01*
D38*
X193548000Y-59944000D02*
X189205113Y-55601113D01*
D37*
X145288000Y-99822000D02*
X145288000Y-106172000D01*
D40*
X52324000Y-114554000D02*
X52324000Y-108966000D01*
D38*
X169164000Y-72938005D02*
X169164000Y-63927990D01*
X143510000Y-55626000D02*
X143764000Y-55372000D01*
D40*
X120494000Y-60452000D02*
X117348000Y-60452000D01*
D38*
X93178000Y-75184000D02*
X93178000Y-79756000D01*
D40*
X120494000Y-73758000D02*
X120494000Y-70866000D01*
D37*
X93620000Y-52324000D02*
X93726000Y-52324000D01*
X144272000Y-117094000D02*
X144272000Y-123190000D01*
D38*
X151718000Y-63928000D02*
X149352000Y-66294000D01*
D40*
X117094000Y-60706000D02*
X117094000Y-52832000D01*
D37*
X89810000Y-56134000D02*
X93620000Y-52324000D01*
D38*
X123081620Y-57864380D02*
X120494000Y-60452000D01*
X169164000Y-63928000D02*
X151718000Y-63928000D01*
D37*
X80772000Y-54904000D02*
X78740000Y-52872000D01*
X92466000Y-63236000D02*
X93472000Y-62230000D01*
D40*
X113538000Y-79063349D02*
X107003349Y-79063349D01*
X117602000Y-52324000D02*
X93726000Y-52324000D01*
D37*
X144780000Y-101092000D02*
X144272000Y-101600000D01*
D38*
X141010000Y-63500000D02*
X141010000Y-68794000D01*
D40*
X79954000Y-96718000D02*
X82042000Y-98806000D01*
D43*
X52832000Y-93310329D02*
X54771671Y-95250000D01*
D38*
X196850000Y-109474000D02*
X196850000Y-101346000D01*
D40*
X134620000Y-73572380D02*
X140843620Y-73572380D01*
X104648000Y-96012000D02*
X105410000Y-95250000D01*
X93726000Y-52324000D02*
X78740000Y-52324000D01*
D37*
X145288000Y-103124000D02*
X145288000Y-106172000D01*
X145278000Y-107178000D02*
X142484000Y-107178000D01*
D40*
X54771677Y-95250000D02*
X56134000Y-93887677D01*
D38*
X196850000Y-101346000D02*
X196850000Y-96520000D01*
D40*
X141010000Y-73406000D02*
X141010000Y-63500000D01*
D37*
X86574000Y-56134000D02*
X85344000Y-54904000D01*
D38*
X172974000Y-55626000D02*
X179578000Y-55626000D01*
D37*
X73152000Y-60198000D02*
X73660000Y-60198000D01*
D40*
X140843620Y-73572380D02*
X141010000Y-73406000D01*
X53594000Y-107696000D02*
X53594000Y-104688000D01*
X52324000Y-108966000D02*
X53594000Y-107696000D01*
D38*
X141010000Y-68794000D02*
X140970000Y-68834000D01*
X134620000Y-57864380D02*
X126238000Y-57864380D01*
X196850000Y-91694000D02*
X196850000Y-78740000D01*
D44*
X52324000Y-63881000D02*
X52324000Y-72390000D01*
D40*
X117094000Y-52832000D02*
X117602000Y-52324000D01*
D37*
X75906000Y-60198000D02*
X76200000Y-59904000D01*
D38*
X143764000Y-55372000D02*
X152908000Y-55372000D01*
X196850000Y-74168000D02*
X196850000Y-69342000D01*
X176276000Y-58928000D02*
X179578000Y-55626000D01*
X156464000Y-58928000D02*
X159766000Y-55626000D01*
X134620000Y-57864380D02*
X137112380Y-55372000D01*
D37*
X73406000Y-60452000D02*
X73152000Y-60198000D01*
D38*
X159766000Y-55626000D02*
X153416000Y-55626000D01*
X196850000Y-96520000D02*
X196850000Y-91694000D01*
D40*
X126238000Y-73572380D02*
X134620000Y-73572380D01*
X78740000Y-52324000D02*
X63881000Y-52324000D01*
X56430000Y-116586000D02*
X54356000Y-116586000D01*
D37*
X85344000Y-54904000D02*
X80772000Y-54904000D01*
D38*
X194564000Y-111760000D02*
X196850000Y-109474000D01*
D44*
X56134000Y-84582000D02*
X52323517Y-80771517D01*
D37*
X144272000Y-102108000D02*
X145288000Y-103124000D01*
D38*
X189205113Y-55601113D02*
X186436000Y-55601113D01*
D40*
X144780000Y-77176000D02*
X141010000Y-73406000D01*
X117348000Y-60452000D02*
X117094000Y-60706000D01*
X54356000Y-116586000D02*
X52324000Y-114554000D01*
X126238000Y-73572380D02*
X120679620Y-73572380D01*
X141010005Y-63500000D02*
X143510000Y-61000005D01*
X53594000Y-104688000D02*
X54904000Y-103378000D01*
X117532651Y-79063349D02*
X120494000Y-76102000D01*
D37*
X78740000Y-52872000D02*
X78740000Y-52324000D01*
D40*
X63881000Y-52324000D02*
X52324000Y-63881000D01*
X54904000Y-95382323D02*
X54771677Y-95250000D01*
D38*
X179578000Y-55626000D02*
X186411113Y-55626000D01*
D40*
X97536000Y-96012000D02*
X97536000Y-90170000D01*
D38*
X196850000Y-69342000D02*
X196850000Y-63246000D01*
D40*
X79954000Y-95504000D02*
X79954000Y-96718000D01*
X144780000Y-101092000D02*
X144780000Y-77176000D01*
X54904000Y-103378000D02*
X54904000Y-95382323D01*
X183158887Y-52324000D02*
X117602000Y-52324000D01*
X56134000Y-93887677D02*
X56134000Y-84582000D01*
D37*
X145288000Y-116078000D02*
X145288000Y-107188000D01*
D38*
X137112380Y-55372000D02*
X143764000Y-55372000D01*
D40*
X120679620Y-73572380D02*
X120494000Y-73758000D01*
D38*
X176276000Y-58928000D02*
X172974000Y-55626000D01*
D37*
X144272000Y-101600000D02*
X144272000Y-102108000D01*
D38*
%TO.N,Net-(C17-Pad2)*%
X113694000Y-68072000D02*
X113694000Y-70866000D01*
X113646380Y-68024380D02*
X113694000Y-68072000D01*
X108966000Y-68024380D02*
X113646380Y-68024380D01*
D37*
%TO.N,Net-(C18-Pad1)*%
X125238000Y-63992000D02*
X125238000Y-65786000D01*
X126238000Y-62992000D02*
X125238000Y-63992000D01*
X126238000Y-60364380D02*
X126238000Y-62992000D01*
X124674620Y-60364380D02*
X126238000Y-60364380D01*
X121793000Y-63246000D02*
X124674620Y-60364380D01*
X120494000Y-63246000D02*
X121793000Y-63246000D01*
%TO.N,Net-(C19-Pad2)*%
X123237620Y-68072000D02*
X126238000Y-71072380D01*
X120494000Y-68072000D02*
X123237620Y-68072000D01*
X128333620Y-71072380D02*
X133620000Y-65786000D01*
X126238000Y-71072380D02*
X128333620Y-71072380D01*
%TO.N,Net-(C22-Pad1)*%
X100740000Y-106934000D02*
X100740000Y-104394000D01*
X97028000Y-106236888D02*
X100042888Y-106236888D01*
X100042888Y-106236888D02*
X100740000Y-106934000D01*
%TO.N,T_5*%
X108072888Y-112800888D02*
X112751112Y-112800888D01*
X105410000Y-106934000D02*
X104394000Y-107950000D01*
X112751112Y-112800888D02*
X117094000Y-108458000D01*
X107540000Y-106934000D02*
X105410000Y-106934000D01*
X117094000Y-108458000D02*
X119380000Y-108458000D01*
X104394000Y-107950000D02*
X104394000Y-112522000D01*
X96372000Y-118004000D02*
X90454000Y-118004000D01*
X100330000Y-114046000D02*
X96372000Y-118004000D01*
X102870000Y-114046000D02*
X100330000Y-114046000D01*
X107540000Y-112268000D02*
X104648000Y-112268000D01*
X107540000Y-112268000D02*
X108072888Y-112800888D01*
X104394000Y-112522000D02*
X102870000Y-114046000D01*
X104648000Y-112268000D02*
X104394000Y-112522000D01*
%TO.N,Net-(C24-Pad1)*%
X100550888Y-112078888D02*
X100740000Y-112268000D01*
X100740000Y-112268000D02*
X100740000Y-109728000D01*
X97028000Y-112078888D02*
X100550888Y-112078888D01*
%TO.N,Net-(C23-Pad2)*%
X127318888Y-105688888D02*
X131358000Y-109728000D01*
X116307112Y-105688888D02*
X127318888Y-105688888D01*
X134864000Y-109718000D02*
X134864000Y-112258000D01*
X131358000Y-109728000D02*
X134854000Y-109728000D01*
X115037112Y-106958888D02*
X116307112Y-105688888D01*
X111252000Y-106958888D02*
X111252000Y-110300888D01*
X111252000Y-106958888D02*
X115037112Y-106958888D01*
X123952000Y-105664000D02*
X123952000Y-103378000D01*
X107540000Y-109728000D02*
X110679112Y-109728000D01*
X110679112Y-109728000D02*
X111252000Y-110300888D01*
%TO.N,Net-(D22-Pad1)*%
X167640000Y-96520000D02*
X167640000Y-94136000D01*
X165354000Y-100936000D02*
X165354000Y-98806000D01*
X165354000Y-98806000D02*
X167640000Y-96520000D01*
%TO.N,Net-(D22-Pad2)*%
X167640000Y-102870000D02*
X167640000Y-105156000D01*
X167640000Y-100936000D02*
X167640000Y-102870000D01*
X167640000Y-105156000D02*
X164846000Y-107950000D01*
%TO.N,Net-(D23-Pad1)*%
X165481000Y-90678000D02*
X165481000Y-94009000D01*
X162560000Y-90678000D02*
X165481000Y-90678000D01*
%TO.N,Net-(D26-Pad1)*%
X153416000Y-92964000D02*
X153416000Y-90678000D01*
X150622000Y-92837000D02*
X150622000Y-94136000D01*
X150622000Y-94136000D02*
X152244000Y-94136000D01*
X148463000Y-90678000D02*
X150622000Y-92837000D01*
X152244000Y-94136000D02*
X153416000Y-92964000D01*
%TO.N,Net-(D26-Pad2)*%
X148336000Y-96583500D02*
X150622000Y-98869500D01*
X148336000Y-94136000D02*
X148336000Y-96583500D01*
X150622000Y-98869500D02*
X150622000Y-100936000D01*
%TO.N,Net-(D27-Pad2)*%
X148336000Y-100936000D02*
X148336000Y-102870000D01*
%TO.N,Net-(D30-Pad1)*%
X189992000Y-94136000D02*
X189992000Y-96520000D01*
X189992000Y-96520000D02*
X187706000Y-98806000D01*
X187706000Y-98806000D02*
X187706000Y-100936000D01*
%TO.N,Net-(D30-Pad2)*%
X189992000Y-102870000D02*
X189992000Y-105156000D01*
X189992000Y-100936000D02*
X189992000Y-102870000D01*
X189992000Y-105156000D02*
X187198000Y-107950000D01*
%TO.N,Net-(D31-Pad1)*%
X184912000Y-90678000D02*
X187833000Y-90678000D01*
%TO.N,Net-(D34-Pad1)*%
X170815000Y-90678000D02*
X172974000Y-92837000D01*
X172974000Y-92837000D02*
X172974000Y-94136000D01*
%TO.N,Net-(D34-Pad2)*%
X170688000Y-94136000D02*
X170688000Y-96520000D01*
X172974000Y-98806000D02*
X172974000Y-100936000D01*
X170688000Y-96520000D02*
X172974000Y-98806000D01*
%TO.N,Net-(D35-Pad2)*%
X170688000Y-100936000D02*
X170688000Y-102870000D01*
D40*
%TO.N,Net-(D1-Pad1)*%
X64770000Y-91440000D02*
X68834000Y-91440000D01*
D37*
%TO.N,+12V*%
X59263677Y-76535677D02*
X59263677Y-95250000D01*
X186436000Y-58420000D02*
X188468000Y-60452000D01*
X186436000Y-58101113D02*
X186436000Y-58420000D01*
X55118000Y-72390000D02*
X59263677Y-76535677D01*
X55118000Y-64770000D02*
X55118000Y-72390000D01*
D39*
%TO.N,Net-(Q2-Pad2)*%
X93472000Y-55880000D02*
X100584000Y-55880000D01*
X100584000Y-55880000D02*
X103632000Y-58928000D01*
X89810000Y-57404000D02*
X91948000Y-57404000D01*
X91948000Y-57404000D02*
X93472000Y-55880000D01*
%TO.N,Net-(C37-Pad1)*%
X64476000Y-54904000D02*
X76200000Y-54904000D01*
X77764000Y-54904000D02*
X80010000Y-57150000D01*
X62484000Y-56896000D02*
X64476000Y-54904000D01*
X85344000Y-57150000D02*
X86868000Y-58674000D01*
X86868000Y-58674000D02*
X89810000Y-58674000D01*
X80010000Y-57150000D02*
X85344000Y-57150000D01*
X76200000Y-54904000D02*
X77764000Y-54904000D01*
D37*
%TO.N,Net-(Q3-Pad1)*%
X59944000Y-60198000D02*
X59944000Y-63500000D01*
X59944000Y-63500000D02*
X65786000Y-69342000D01*
X65786000Y-69342000D02*
X65786000Y-70612000D01*
D45*
%TO.N,Net-(D1-Pad2)*%
X76454000Y-84963000D02*
X76454000Y-91440000D01*
D40*
X63246000Y-72136000D02*
X63246000Y-70612000D01*
D45*
X65786000Y-74295000D02*
X76454000Y-84963000D01*
X76454000Y-95504000D02*
X76454000Y-91440000D01*
D40*
X65786000Y-74676000D02*
X63246000Y-72136000D01*
D45*
%TO.N,Net-(Q3-Pad3)*%
X60960000Y-73914000D02*
X73152000Y-86106000D01*
D40*
X60706000Y-70612000D02*
X60706000Y-73914000D01*
D39*
%TO.N,Net-(C8-Pad1)*%
X78446000Y-70866000D02*
X82042000Y-70866000D01*
X77724000Y-71588000D02*
X78446000Y-70866000D01*
%TO.N,Net-(C8-Pad2)*%
X84582000Y-66568000D02*
X84582000Y-70846000D01*
X96139000Y-65278000D02*
X99187000Y-62230000D01*
X93472000Y-65278000D02*
X96139000Y-65278000D01*
X93472000Y-65278000D02*
X92202000Y-66548000D01*
X99187000Y-62230000D02*
X103632000Y-62230000D01*
X77764000Y-66548000D02*
X92202000Y-66548000D01*
%TO.N,Net-(C7-Pad1)*%
X84328000Y-78740000D02*
X86360000Y-80772000D01*
X84328000Y-73660000D02*
X84328000Y-78740000D01*
X87132000Y-70856000D02*
X84328000Y-73660000D01*
X86360000Y-80772000D02*
X87162000Y-80772000D01*
X87162000Y-80772000D02*
X88178000Y-79756000D01*
%TO.N,Net-(C4-Pad1)*%
X86360000Y-77002000D02*
X88178000Y-75184000D01*
X86360000Y-77470000D02*
X86360000Y-77002000D01*
X89672000Y-73690000D02*
X88178000Y-75184000D01*
X89672000Y-70856000D02*
X89672000Y-73690000D01*
%TO.N,Net-(R2-Pad1)*%
X85598000Y-64770000D02*
X87132000Y-63236000D01*
X71374000Y-64770000D02*
X85598000Y-64770000D01*
X70104000Y-63500000D02*
X71374000Y-64770000D01*
%TO.N,VREF*%
X72644000Y-56896000D02*
X77764000Y-56896000D01*
X82042000Y-61174000D02*
X82042000Y-61468000D01*
X80772000Y-59904000D02*
X82042000Y-61174000D01*
X82042000Y-61468000D02*
X90932000Y-61468000D01*
X82042000Y-63226000D02*
X82042000Y-61468000D01*
X77764000Y-56896000D02*
X80772000Y-59904000D01*
X90932000Y-61468000D02*
X93472000Y-58928000D01*
D37*
%TO.N,Net-(Q1-Pad2)*%
X119380000Y-110998000D02*
X121412000Y-110998000D01*
X121412000Y-110998000D02*
X123952000Y-113538000D01*
%TO.N,+5VD*%
X188468000Y-67604000D02*
X188468000Y-65532000D01*
%TO.N,Net-(C28-Pad2)*%
X135620000Y-65786000D02*
X135620000Y-70072380D01*
X135620000Y-70072380D02*
X134620000Y-71072380D01*
%TO.N,+5VA*%
X152294000Y-57806000D02*
X153416000Y-58928000D01*
X146010000Y-63500000D02*
X146010000Y-57846000D01*
X146050000Y-57806000D02*
X152294000Y-57806000D01*
X153416000Y-58928000D02*
X155448000Y-60960000D01*
X160528000Y-60960000D02*
X162560000Y-58928000D01*
X155448000Y-60960000D02*
X160528000Y-60960000D01*
%TO.N,Net-(C27-Pad1)*%
X129198380Y-65786000D02*
X134620000Y-60364380D01*
X127238000Y-65786000D02*
X129198380Y-65786000D01*
X138411620Y-60364380D02*
X140970000Y-57806000D01*
X134620000Y-60364380D02*
X138411620Y-60364380D01*
D38*
%TO.N,Net-(C20-Pad1)*%
X99314000Y-75438000D02*
X99314000Y-78994000D01*
D37*
X89154000Y-86739349D02*
X90298651Y-86739349D01*
X90298651Y-86739349D02*
X98044000Y-78994000D01*
X98044000Y-78994000D02*
X99314000Y-78994000D01*
D38*
%TO.N,Net-(C20-Pad2)*%
X86954004Y-95504000D02*
X86954004Y-92439338D01*
X86954004Y-92439338D02*
X89154000Y-90239342D01*
D37*
%TO.N,+300V*%
X161417000Y-110490000D02*
X152781000Y-110490000D01*
X162687000Y-109220000D02*
X166497000Y-113030000D01*
D39*
X103632000Y-75438000D02*
X103632000Y-68326000D01*
D37*
X148336000Y-112395000D02*
X151511000Y-109220000D01*
X167640000Y-113030000D02*
X170688000Y-113030000D01*
X162687000Y-109220000D02*
X161417000Y-110490000D01*
X188849000Y-113030000D02*
X189992000Y-113030000D01*
X173863000Y-109220000D02*
X175133000Y-110490000D01*
X170688000Y-112395000D02*
X173863000Y-109220000D01*
X183769000Y-110490000D02*
X185039000Y-109220000D01*
X170688000Y-113030000D02*
X170688000Y-112395000D01*
X148336000Y-113030000D02*
X148336000Y-112395000D01*
X148336000Y-113030000D02*
X149352000Y-114046000D01*
X152781000Y-110490000D02*
X151511000Y-109220000D01*
D38*
X106934000Y-75438000D02*
X113412651Y-75438000D01*
D37*
X185039000Y-109220000D02*
X188849000Y-113030000D01*
X175133000Y-110490000D02*
X183769000Y-110490000D01*
D39*
X103632000Y-80010000D02*
X103632000Y-75438000D01*
X100330000Y-83312000D02*
X103632000Y-80010000D01*
X97536000Y-83312000D02*
X100330000Y-83312000D01*
D37*
X166497000Y-113030000D02*
X167640000Y-113030000D01*
D39*
X103632000Y-75438000D02*
X106934000Y-75438000D01*
D38*
X113412651Y-75438000D02*
X113538000Y-75563349D01*
D37*
X149352000Y-114046000D02*
X149352000Y-123190000D01*
%TO.N,T_3*%
X92746000Y-108712000D02*
X97003112Y-108712000D01*
X83454000Y-118004000D02*
X92746000Y-108712000D01*
%TO.N,T_4*%
X90404000Y-114554000D02*
X97003112Y-114554000D01*
X86954000Y-118004000D02*
X90404000Y-114554000D01*
D40*
%TO.N,Net-(F1-Pad1)*%
X56430012Y-112625988D02*
X59031988Y-112625988D01*
X59031988Y-112625988D02*
X62484000Y-116078000D01*
X62484000Y-116078000D02*
X62484000Y-120904000D01*
D37*
%TO.N,CRT_F2*%
X90678000Y-121920000D02*
X98552000Y-121920000D01*
%TO.N,CRT_F1*%
X101600000Y-124460000D02*
X103020000Y-123040000D01*
X103020000Y-121412000D02*
X103020000Y-117752000D01*
X69490000Y-118004000D02*
X75946000Y-124460000D01*
X103020000Y-123040000D02*
X103020000Y-121412000D01*
X103020000Y-117752000D02*
X101092000Y-115824000D01*
X75946000Y-124460000D02*
X101600000Y-124460000D01*
%TO.N,/Deflection_Amplifier/XN*%
X156464000Y-113030000D02*
X156464000Y-115824000D01*
X156464000Y-115824000D02*
X158900000Y-118260000D01*
X158900000Y-118260000D02*
X158900000Y-121412000D01*
%TO.N,/Deflection_Amplifier/XP*%
X159512000Y-113030000D02*
X162860000Y-116378000D01*
X162860000Y-116378000D02*
X162860000Y-121412000D01*
%TO.N,/Deflection_Amplifier/YN*%
X174752000Y-113030000D02*
X166820000Y-120962000D01*
X178816000Y-113030000D02*
X174752000Y-113030000D01*
%TO.N,/Deflection_Amplifier/YP*%
X181864000Y-113792000D02*
X180340000Y-115316000D01*
X176022000Y-115316000D02*
X170780000Y-120558000D01*
X170780000Y-120558000D02*
X170780000Y-121412000D01*
X181864000Y-113030000D02*
X181864000Y-113792000D01*
X180340000Y-115316000D02*
X176022000Y-115316000D01*
%TO.N,Net-(Q4-Pad3)*%
X159512000Y-71745000D02*
X159512000Y-69088000D01*
X160401000Y-72634000D02*
X159512000Y-71745000D01*
X159512000Y-69088000D02*
X162560000Y-69088000D01*
%TO.N,Net-(Q5-Pad1)*%
X150622000Y-75184000D02*
X154051000Y-75184000D01*
%TO.N,Net-(Q5-Pad2)*%
X156464000Y-69088000D02*
X156464000Y-73660000D01*
X156464000Y-73660000D02*
X156210000Y-73914000D01*
%TO.N,Net-(Q5-Pad3)*%
X153416000Y-71999000D02*
X154051000Y-72634000D01*
X153416000Y-69088000D02*
X153416000Y-71999000D01*
%TO.N,Net-(Q6-Pad3)*%
X159512000Y-100838000D02*
X159512000Y-102870000D01*
X162560000Y-100838000D02*
X159512000Y-100838000D01*
%TO.N,Net-(Q7-Pad2)*%
X150622000Y-85344000D02*
X152146000Y-85344000D01*
X156464000Y-89662000D02*
X156464000Y-90678000D01*
X152146000Y-85344000D02*
X154940000Y-88138000D01*
X154940000Y-88138000D02*
X156464000Y-89662000D01*
X150622000Y-89408000D02*
X150622000Y-85344000D01*
%TO.N,Net-(Q8-Pad2)*%
X166370000Y-85344000D02*
X167894000Y-86868000D01*
X159512000Y-89662000D02*
X161036000Y-88138000D01*
X167894000Y-86868000D02*
X167894000Y-89154000D01*
X165354000Y-85344000D02*
X166370000Y-85344000D01*
X163830000Y-85344000D02*
X165354000Y-85344000D01*
X159512000Y-90678000D02*
X159512000Y-89662000D01*
X161036000Y-88138000D02*
X163830000Y-85344000D01*
X167894000Y-89154000D02*
X167640000Y-89408000D01*
%TO.N,Net-(Q9-Pad3)*%
X156464000Y-100838000D02*
X153416000Y-100838000D01*
X156464000Y-102362000D02*
X156464000Y-100838000D01*
%TO.N,Net-(Q10-Pad1)*%
X186944000Y-75946000D02*
X187706000Y-75184000D01*
X183515000Y-75946000D02*
X186944000Y-75946000D01*
X182753000Y-75184000D02*
X183515000Y-75946000D01*
%TO.N,Net-(Q10-Pad3)*%
X179324000Y-69088000D02*
X182372000Y-69088000D01*
X182372000Y-69088000D02*
X182372000Y-72253000D01*
X182372000Y-72253000D02*
X182753000Y-72634000D01*
%TO.N,Net-(Q11-Pad1)*%
X172974000Y-75184000D02*
X176403000Y-75184000D01*
%TO.N,Net-(Q11-Pad2)*%
X176276000Y-69088000D02*
X178562000Y-71374000D01*
X178562000Y-71374000D02*
X178562000Y-73914000D01*
%TO.N,Net-(Q11-Pad3)*%
X174234000Y-72634000D02*
X173228000Y-71628000D01*
X179324000Y-61468000D02*
X179324000Y-58928000D01*
X173228000Y-67564000D02*
X179324000Y-61468000D01*
X173228000Y-71628000D02*
X173228000Y-69088000D01*
X176403000Y-72634000D02*
X174234000Y-72634000D01*
X173228000Y-69088000D02*
X173228000Y-67564000D01*
%TO.N,Net-(Q12-Pad3)*%
X184912000Y-100838000D02*
X181864000Y-100838000D01*
%TO.N,Net-(Q13-Pad2)*%
X174498000Y-85344000D02*
X178816000Y-89662000D01*
X172974000Y-85344000D02*
X174498000Y-85344000D01*
X178816000Y-89662000D02*
X178816000Y-90678000D01*
X172974000Y-89408000D02*
X172974000Y-85344000D01*
%TO.N,Net-(Q14-Pad2)*%
X189992000Y-89408000D02*
X190246000Y-89154000D01*
X186182000Y-85344000D02*
X183388000Y-88138000D01*
X181864000Y-89662000D02*
X181864000Y-90678000D01*
X190246000Y-86868000D02*
X188722000Y-85344000D01*
X187706000Y-85344000D02*
X186182000Y-85344000D01*
X183388000Y-88138000D02*
X181864000Y-89662000D01*
X190246000Y-89154000D02*
X190246000Y-86868000D01*
X188722000Y-85344000D02*
X187706000Y-85344000D01*
%TO.N,Net-(Q15-Pad3)*%
X178816000Y-102870000D02*
X178816000Y-100838000D01*
X178816000Y-100838000D02*
X175768000Y-100838000D01*
D39*
%TO.N,Net-(R7-Pad2)*%
X100076000Y-65278000D02*
X103632000Y-65278000D01*
X97028000Y-68326000D02*
X100076000Y-65278000D01*
X93472000Y-68326000D02*
X97028000Y-68326000D01*
D37*
%TO.N,Net-(R15-Pad2)*%
X137160000Y-116078000D02*
X139954000Y-118872000D01*
X135128000Y-116078000D02*
X137160000Y-116078000D01*
X139954000Y-118872000D02*
X139954000Y-123190000D01*
%TO.N,Net-(R68-Pad1)*%
X131826000Y-116840000D02*
X133858000Y-118872000D01*
X133858000Y-122174000D02*
X134874000Y-123190000D01*
X131826000Y-116078000D02*
X131826000Y-116840000D01*
X133858000Y-118872000D02*
X133858000Y-122174000D01*
%TO.N,Net-(R68-Pad2)*%
X121666000Y-116078000D02*
X123444000Y-117856000D01*
X123444000Y-121158000D02*
X125476000Y-123190000D01*
X123444000Y-117856000D02*
X123444000Y-121158000D01*
%TO.N,Net-(R69-Pad1)*%
X131064000Y-122682000D02*
X130556000Y-123190000D01*
X127254000Y-113538000D02*
X127254000Y-115824000D01*
X131064000Y-119634000D02*
X131064000Y-122682000D01*
X127254000Y-115824000D02*
X131064000Y-119634000D01*
%TO.N,Net-(F2-Pad1)*%
X76454000Y-119888000D02*
X78486000Y-121920000D01*
X78486000Y-121920000D02*
X80518000Y-121920000D01*
X76454000Y-118004000D02*
X76454000Y-119888000D01*
%TO.N,Net-(C15-Pad2)*%
X112332888Y-103378000D02*
X116078000Y-103378000D01*
X111252000Y-104458888D02*
X112332888Y-103378000D01*
X107604888Y-104458888D02*
X111252000Y-104458888D01*
%TO.N,Net-(J2-Pad4)*%
X116078000Y-115316000D02*
X116078000Y-113538000D01*
X116078000Y-113538000D02*
X119380000Y-113538000D01*
X110940000Y-120454000D02*
X116078000Y-115316000D01*
X110940000Y-121412000D02*
X110940000Y-120454000D01*
%TD*%
%TA.AperFunction,Conductor*%
%TO.N,GND*%
G36*
X185944431Y-51328502D02*
G01*
X185965405Y-51345405D01*
X189447095Y-54827095D01*
X189481121Y-54889407D01*
X189484000Y-54916190D01*
X189484000Y-56262000D01*
X189463998Y-56330121D01*
X189410342Y-56376614D01*
X189358000Y-56388000D01*
X179577998Y-56388000D01*
X176566905Y-59399095D01*
X176504593Y-59433121D01*
X176477810Y-59436000D01*
X176074190Y-59436000D01*
X176006069Y-59415998D01*
X175985095Y-59399095D01*
X172974001Y-56388000D01*
X172974000Y-56388000D01*
X160020000Y-56388000D01*
X160019998Y-56388000D01*
X157008905Y-59399095D01*
X156946593Y-59433121D01*
X156919810Y-59436000D01*
X156262190Y-59436000D01*
X156194069Y-59415998D01*
X156173095Y-59399095D01*
X152908001Y-56134000D01*
X152908000Y-56134000D01*
X137160000Y-56134000D01*
X137159998Y-56134000D01*
X134656905Y-58637095D01*
X134594593Y-58671120D01*
X134567810Y-58674000D01*
X123443998Y-58674000D01*
X120686905Y-61431095D01*
X120624593Y-61465121D01*
X120597810Y-61468000D01*
X116204000Y-61468000D01*
X116135879Y-61447998D01*
X116089386Y-61394342D01*
X116078000Y-61342000D01*
X116078000Y-59436000D01*
X116078000Y-51434500D01*
X116098002Y-51366379D01*
X116151658Y-51319886D01*
X116204000Y-51308500D01*
X185876310Y-51308500D01*
X185944431Y-51328502D01*
G37*
%TD.AperFunction*%
%TD*%
%TA.AperFunction,Conductor*%
%TO.N,GND*%
G36*
X117094000Y-59436000D02*
G01*
X116078000Y-59436000D01*
X116077999Y-59435998D01*
X110018905Y-53376904D01*
X109984879Y-53314592D01*
X109982000Y-53287809D01*
X109982000Y-52450000D01*
X110002002Y-52381879D01*
X110055658Y-52335386D01*
X110108000Y-52324000D01*
X116078000Y-52324000D01*
X117094000Y-52324000D01*
X117094000Y-59436000D01*
G37*
%TD.AperFunction*%
%TD*%
%TA.AperFunction,Conductor*%
%TO.N,GND*%
G36*
X93668121Y-51328502D02*
G01*
X93714614Y-51382158D01*
X93726000Y-51434500D01*
X93726000Y-52779809D01*
X93705998Y-52847930D01*
X93689095Y-52868904D01*
X90224404Y-56333595D01*
X90162092Y-56367621D01*
X90135309Y-56370500D01*
X89483206Y-56370500D01*
X89283538Y-56410217D01*
X89283533Y-56410219D01*
X89095453Y-56488124D01*
X88926186Y-56601225D01*
X88926179Y-56601230D01*
X88922315Y-56605095D01*
X88860003Y-56639121D01*
X88833220Y-56642000D01*
X86666190Y-56642000D01*
X86598069Y-56621998D01*
X86577095Y-56605095D01*
X85344001Y-55372000D01*
X85344000Y-55372000D01*
X80824190Y-55372000D01*
X80756069Y-55351998D01*
X80735095Y-55335095D01*
X78522905Y-53122905D01*
X78488879Y-53060593D01*
X78486000Y-53033810D01*
X78486000Y-51434500D01*
X78506002Y-51366379D01*
X78559658Y-51319886D01*
X78612000Y-51308500D01*
X93600000Y-51308500D01*
X93668121Y-51328502D01*
G37*
%TD.AperFunction*%
%TD*%
%TA.AperFunction,Conductor*%
%TO.N,+12V*%
G36*
X70554121Y-94000002D02*
G01*
X70600614Y-94053658D01*
X70612000Y-94106000D01*
X70612000Y-105359250D01*
X70591998Y-105427371D01*
X70576825Y-105446582D01*
X64299181Y-111975332D01*
X64237548Y-112010572D01*
X64208356Y-112014000D01*
X62282190Y-112014000D01*
X62214069Y-111993998D01*
X62193095Y-111977095D01*
X58456905Y-108240905D01*
X58422879Y-108178593D01*
X58420000Y-108151810D01*
X58420000Y-94106000D01*
X58440002Y-94037879D01*
X58493658Y-93991386D01*
X58546000Y-93980000D01*
X70486000Y-93980000D01*
X70554121Y-94000002D01*
G37*
%TD.AperFunction*%
%TD*%
M02*
