%TF.GenerationSoftware,KiCad,Pcbnew,8.0.0*%
%TF.CreationDate,2024-03-08T15:53:04+08:00*%
%TF.ProjectId,xyz_display_board,78797a5f-6469-4737-906c-61795f626f61,1.0*%
%TF.SameCoordinates,Original*%
%TF.FileFunction,Soldermask,Top*%
%TF.FilePolarity,Negative*%
%FSLAX46Y46*%
G04 Gerber Fmt 4.6, Leading zero omitted, Abs format (unit mm)*
G04 Created by KiCad (PCBNEW 8.0.0) date 2024-03-08 15:53:04*
%MOMM*%
%LPD*%
G01*
G04 APERTURE LIST*
G04 Aperture macros list*
%AMRoundRect*
0 Rectangle with rounded corners*
0 $1 Rounding radius*
0 $2 $3 $4 $5 $6 $7 $8 $9 X,Y pos of 4 corners*
0 Add a 4 corners polygon primitive as box body*
4,1,4,$2,$3,$4,$5,$6,$7,$8,$9,$2,$3,0*
0 Add four circle primitives for the rounded corners*
1,1,$1+$1,$2,$3*
1,1,$1+$1,$4,$5*
1,1,$1+$1,$6,$7*
1,1,$1+$1,$8,$9*
0 Add four rect primitives between the rounded corners*
20,1,$1+$1,$2,$3,$4,$5,0*
20,1,$1+$1,$4,$5,$6,$7,0*
20,1,$1+$1,$6,$7,$8,$9,0*
20,1,$1+$1,$8,$9,$2,$3,0*%
G04 Aperture macros list end*
%ADD10C,1.500000*%
%ADD11R,1.500000X1.500000*%
%ADD12R,1.600000X1.600000*%
%ADD13C,1.600000*%
%ADD14C,1.400000*%
%ADD15R,1.400000X1.400000*%
%ADD16C,1.300000*%
%ADD17RoundRect,0.250000X0.725000X-0.600000X0.725000X0.600000X-0.725000X0.600000X-0.725000X-0.600000X0*%
%ADD18O,1.950000X1.700000*%
%ADD19R,2.200000X2.200000*%
%ADD20O,2.200000X2.200000*%
%ADD21C,3.200000*%
%ADD22RoundRect,0.250001X-1.099999X-1.099999X1.099999X-1.099999X1.099999X1.099999X-1.099999X1.099999X0*%
%ADD23C,2.700000*%
%ADD24RoundRect,0.250000X-0.325000X-0.650000X0.325000X-0.650000X0.325000X0.650000X-0.325000X0.650000X0*%
%ADD25O,1.600000X1.600000*%
%ADD26R,1.905000X2.000000*%
%ADD27O,1.905000X2.000000*%
%ADD28R,2.400000X2.400000*%
%ADD29O,2.400000X2.400000*%
%ADD30R,1.500000X1.050000*%
%ADD31O,1.500000X1.050000*%
%ADD32RoundRect,0.250001X-1.099999X1.099999X-1.099999X-1.099999X1.099999X-1.099999X1.099999X1.099999X0*%
%ADD33C,2.400000*%
%ADD34R,2.000000X2.000000*%
%ADD35C,2.000000*%
%ADD36R,1.050000X1.500000*%
%ADD37O,1.050000X1.500000*%
G04 APERTURE END LIST*
D10*
%TO.C,Q1*%
X119380000Y-113538000D03*
X119380000Y-110998000D03*
D11*
X119380000Y-108458000D03*
%TD*%
D12*
%TO.C,T1*%
X69454000Y-118004000D03*
D13*
X76454000Y-118004000D03*
X83454000Y-118004000D03*
X86954000Y-118004000D03*
X90454000Y-118004000D03*
X90454000Y-95504000D03*
X86954000Y-95504000D03*
X83454000Y-95504000D03*
X79954000Y-95504000D03*
X76454000Y-95504000D03*
X69454000Y-95504000D03*
%TD*%
D14*
%TO.C,D13*%
X113694000Y-68072000D03*
D15*
X120494000Y-68072000D03*
%TD*%
D14*
%TO.C,R9*%
X103632000Y-62230000D03*
X93472000Y-62230000D03*
%TD*%
%TO.C,U9*%
X97536000Y-83312000D03*
X97536000Y-96012000D03*
X97536000Y-101092000D03*
X138176000Y-101092000D03*
X138176000Y-88392000D03*
X138176000Y-83312000D03*
%TD*%
D12*
%TO.C,C22*%
X97028000Y-106236888D03*
D13*
X97028000Y-108736888D03*
%TD*%
D14*
%TO.C,D35*%
X170688000Y-94136000D03*
D15*
X170688000Y-100936000D03*
%TD*%
D16*
%TO.C,Q13*%
X170815000Y-90678000D03*
X172974000Y-89408000D03*
X170815000Y-88128000D03*
%TD*%
D14*
%TO.C,R42*%
X183388000Y-77978000D03*
X183388000Y-88138000D03*
%TD*%
%TO.C,R34*%
X154940000Y-77978000D03*
X154940000Y-88138000D03*
%TD*%
D12*
%TO.C,C17*%
X108966000Y-70524380D03*
D13*
X108966000Y-68024380D03*
%TD*%
D17*
%TO.C,J7*%
X194310000Y-101650800D03*
D18*
X194310000Y-99150800D03*
X194310000Y-96650800D03*
X194310000Y-94150800D03*
X194310000Y-91650800D03*
X194310000Y-89150800D03*
%TD*%
D14*
%TO.C,R40*%
X173228000Y-69088000D03*
X173228000Y-58928000D03*
%TD*%
D19*
%TO.C,D2*%
X105410000Y-95250000D03*
D20*
X105410000Y-87630000D03*
%TD*%
D14*
%TO.C,R29*%
X167640000Y-113030000D03*
X167640000Y-102870000D03*
%TD*%
D10*
%TO.C,C38*%
X131318000Y-109688000D03*
X131318000Y-104688000D03*
%TD*%
D14*
%TO.C,R37*%
X181864000Y-100838000D03*
X181864000Y-90678000D03*
%TD*%
D19*
%TO.C,D5*%
X116078000Y-87630000D03*
D20*
X116078000Y-95250000D03*
%TD*%
D11*
%TO.C,U7*%
X140970000Y-68834000D03*
D10*
X143510000Y-68834000D03*
X146050000Y-68834000D03*
%TD*%
D14*
%TO.C,R6*%
X59944000Y-60198000D03*
X70104000Y-60198000D03*
%TD*%
D10*
%TO.C,RV1*%
X125476000Y-123190000D03*
X128016000Y-120650000D03*
X130556000Y-123190000D03*
%TD*%
%TO.C,C7*%
X88178000Y-79756000D03*
X93178000Y-79756000D03*
%TD*%
D14*
%TO.C,R36*%
X148336000Y-113030000D03*
X148336000Y-102870000D03*
%TD*%
D19*
%TO.C,D9*%
X130302000Y-87630000D03*
D20*
X130302000Y-95250000D03*
%TD*%
D16*
%TO.C,Q15*%
X173863000Y-109220000D03*
X176022000Y-107950000D03*
X173863000Y-106670000D03*
%TD*%
D21*
%TO.C,H4*%
X194310000Y-123190000D03*
%TD*%
D16*
%TO.C,Q14*%
X187833000Y-90678000D03*
X189992000Y-89408000D03*
X187833000Y-88128000D03*
%TD*%
D14*
%TO.C,D17*%
X107540000Y-104394000D03*
D15*
X100740000Y-104394000D03*
%TD*%
D22*
%TO.C,J2*%
X99060000Y-121412000D03*
D23*
X103020000Y-121412000D03*
X106980000Y-121412000D03*
X110940000Y-121412000D03*
X114900000Y-121412000D03*
X118860000Y-121412000D03*
%TD*%
D12*
%TO.C,C33*%
X186436000Y-58101113D03*
D13*
X186436000Y-55601113D03*
%TD*%
D14*
%TO.C,D23*%
X165354000Y-94136000D03*
D15*
X165354000Y-100936000D03*
%TD*%
D16*
%TO.C,Q11*%
X176403000Y-75184000D03*
X178562000Y-73914000D03*
X176403000Y-72634000D03*
%TD*%
D24*
%TO.C,C10*%
X112825000Y-84074000D03*
X115775000Y-84074000D03*
%TD*%
D14*
%TO.C,R64*%
X187706000Y-85344000D03*
X187706000Y-75184000D03*
%TD*%
%TO.C,R62*%
X184912000Y-100838000D03*
X184912000Y-90678000D03*
%TD*%
%TO.C,R66*%
X180340000Y-88138000D03*
X180340000Y-77978000D03*
%TD*%
%TO.C,R65*%
X172974000Y-85344000D03*
X172974000Y-75184000D03*
%TD*%
D21*
%TO.C,H2*%
X194310000Y-54610000D03*
%TD*%
D10*
%TO.C,C29*%
X146010000Y-63500000D03*
X141010000Y-63500000D03*
%TD*%
D14*
%TO.C,R50*%
X133858000Y-90932000D03*
X133858000Y-101092000D03*
%TD*%
%TO.C,R60*%
X181864000Y-113030000D03*
X181864000Y-102870000D03*
%TD*%
%TO.C,R39*%
X182372000Y-69088000D03*
X182372000Y-58928000D03*
%TD*%
D10*
%TO.C,L2*%
X133620000Y-65786000D03*
X135620000Y-65786000D03*
%TD*%
D12*
%TO.C,C16*%
X108966000Y-63158380D03*
D13*
X108966000Y-60658380D03*
%TD*%
D14*
%TO.C,R57*%
X150622000Y-85344000D03*
X150622000Y-75184000D03*
%TD*%
D19*
%TO.C,D7*%
X123190000Y-87630000D03*
D20*
X123190000Y-95250000D03*
%TD*%
D14*
%TO.C,R51*%
X177292000Y-117856000D03*
X187452000Y-117856000D03*
%TD*%
%TO.C,R7*%
X93472000Y-65278000D03*
X103632000Y-65278000D03*
%TD*%
%TO.C,NE1*%
X194564000Y-114300000D03*
X194564000Y-111760000D03*
%TD*%
%TO.C,D30*%
X189992000Y-94136000D03*
D15*
X189992000Y-100936000D03*
%TD*%
D19*
%TO.C,D20*%
X61214000Y-107696000D03*
D20*
X53594000Y-107696000D03*
%TD*%
D24*
%TO.C,C15*%
X127049000Y-99314000D03*
X129999000Y-99314000D03*
%TD*%
D14*
%TO.C,R61*%
X178816000Y-113030000D03*
X178816000Y-102870000D03*
%TD*%
%TO.C,R63*%
X175768000Y-100838000D03*
X175768000Y-90678000D03*
%TD*%
D17*
%TO.C,J5*%
X194310000Y-81254600D03*
D18*
X194310000Y-78754600D03*
X194310000Y-76254600D03*
X194310000Y-73754600D03*
X194310000Y-71254600D03*
X194310000Y-68754600D03*
X194310000Y-66254600D03*
X194310000Y-63754600D03*
%TD*%
D16*
%TO.C,Q9*%
X151511000Y-109220000D03*
X153670000Y-107950000D03*
X151511000Y-106670000D03*
%TD*%
D14*
%TO.C,R24*%
X72644000Y-56896000D03*
X62484000Y-56896000D03*
%TD*%
%TO.C,R32*%
X159512000Y-69088000D03*
X159512000Y-58928000D03*
%TD*%
%TO.C,D22*%
X167640000Y-94136000D03*
D15*
X167640000Y-100936000D03*
%TD*%
D14*
%TO.C,R1*%
X76200000Y-77470000D03*
X86360000Y-77470000D03*
%TD*%
D19*
%TO.C,D3*%
X108966000Y-87630000D03*
D20*
X108966000Y-95250000D03*
%TD*%
D14*
%TO.C,D10*%
X113694000Y-60452000D03*
D15*
X120494000Y-60452000D03*
%TD*%
D10*
%TO.C,C2*%
X59904000Y-103378000D03*
X54904000Y-103378000D03*
%TD*%
D14*
%TO.C,D11*%
X120494000Y-70866000D03*
D15*
X113694000Y-70866000D03*
%TD*%
D14*
%TO.C,R35*%
X156464000Y-100838000D03*
X156464000Y-90678000D03*
%TD*%
%TO.C,R10*%
X76200000Y-74168000D03*
X86360000Y-74168000D03*
%TD*%
D19*
%TO.C,D15*%
X106934000Y-75438000D03*
D20*
X99314000Y-75438000D03*
%TD*%
D14*
%TO.C,D12*%
X120494000Y-63246000D03*
D15*
X113694000Y-63246000D03*
%TD*%
D14*
%TO.C,R69*%
X127254000Y-113538000D03*
X127254000Y-103378000D03*
%TD*%
D10*
%TO.C,C5*%
X80772000Y-59904000D03*
X80772000Y-54904000D03*
%TD*%
D16*
%TO.C,Q12*%
X185039000Y-109220000D03*
X187198000Y-107950000D03*
X185039000Y-106670000D03*
%TD*%
D12*
%TO.C,C21*%
X113538000Y-75563349D03*
D13*
X113538000Y-79063349D03*
%TD*%
D10*
%TO.C,L1*%
X125238000Y-65786000D03*
X127238000Y-65786000D03*
%TD*%
D16*
%TO.C,Q8*%
X165481000Y-90678000D03*
X167640000Y-89408000D03*
X165481000Y-88128000D03*
%TD*%
D14*
%TO.C,R18*%
X116078000Y-103378000D03*
X116078000Y-113538000D03*
%TD*%
%TO.C,D18*%
X100740000Y-112268000D03*
D15*
X107540000Y-112268000D03*
%TD*%
D16*
%TO.C,Q10*%
X182753000Y-75184000D03*
X184912000Y-73914000D03*
X182753000Y-72634000D03*
%TD*%
D19*
%TO.C,D8*%
X126746000Y-95250000D03*
D20*
X126746000Y-87630000D03*
%TD*%
D14*
%TO.C,R67*%
X176276000Y-69088000D03*
X176276000Y-58928000D03*
%TD*%
D12*
%TO.C,C20*%
X89154000Y-86739349D03*
D13*
X89154000Y-90239349D03*
%TD*%
D14*
%TO.C,R38*%
X189992000Y-113030000D03*
X189992000Y-102870000D03*
%TD*%
D12*
%TO.C,U1*%
X82052000Y-70856000D03*
D25*
X84592000Y-70856000D03*
X87132000Y-70856000D03*
X89672000Y-70856000D03*
X89672000Y-63236000D03*
X87132000Y-63236000D03*
X84592000Y-63236000D03*
X82052000Y-63236000D03*
%TD*%
D14*
%TO.C,D19*%
X107540000Y-109728000D03*
D15*
X100740000Y-109728000D03*
%TD*%
D10*
%TO.C,C34*%
X188468000Y-67604000D03*
X188468000Y-72604000D03*
%TD*%
D12*
%TO.C,C18*%
X126238000Y-60364380D03*
D13*
X126238000Y-57864380D03*
%TD*%
D12*
%TO.C,C23*%
X111252000Y-104458888D03*
D13*
X111252000Y-106958888D03*
%TD*%
D19*
%TO.C,D4*%
X112522000Y-95250000D03*
D20*
X112522000Y-87630000D03*
%TD*%
D14*
%TO.C,R49*%
X93472000Y-58928000D03*
X103632000Y-58928000D03*
%TD*%
D26*
%TO.C,Q3*%
X65786000Y-70612000D03*
D27*
X63246000Y-70612000D03*
X60706000Y-70612000D03*
%TD*%
D14*
%TO.C,R30*%
X162560000Y-69088000D03*
X162560000Y-58928000D03*
%TD*%
D24*
%TO.C,C26*%
X105713000Y-84074000D03*
X108663000Y-84074000D03*
%TD*%
D28*
%TO.C,D39*%
X64770000Y-91440000D03*
D29*
X64770000Y-101600000D03*
%TD*%
D14*
%TO.C,R56*%
X165354000Y-85344000D03*
X165354000Y-75184000D03*
%TD*%
%TO.C,D16*%
X100740000Y-106934000D03*
D15*
X107540000Y-106934000D03*
%TD*%
D21*
%TO.C,H1*%
X54610000Y-54610000D03*
%TD*%
D30*
%TO.C,Q2*%
X89810000Y-56134000D03*
D31*
X89810000Y-57404000D03*
X89810000Y-58674000D03*
%TD*%
D12*
%TO.C,C28*%
X134620000Y-73572380D03*
D13*
X134620000Y-71072380D03*
%TD*%
D19*
%TO.C,D14*%
X99314000Y-78994000D03*
D20*
X106934000Y-78994000D03*
%TD*%
D14*
%TO.C,R44*%
X178816000Y-100838000D03*
X178816000Y-90678000D03*
%TD*%
D16*
%TO.C,Q5*%
X154051000Y-75184000D03*
X156210000Y-73914000D03*
X154051000Y-72634000D03*
%TD*%
D24*
%TO.C,C12*%
X119937000Y-84074000D03*
X122887000Y-84074000D03*
%TD*%
D14*
%TO.C,D26*%
X150622000Y-94136000D03*
D15*
X150622000Y-100936000D03*
%TD*%
D11*
%TO.C,U6*%
X188468000Y-65532000D03*
D10*
X188468000Y-62992000D03*
X188468000Y-60452000D03*
%TD*%
D12*
%TO.C,U3*%
X142484000Y-112258000D03*
D25*
X142484000Y-109718000D03*
X142484000Y-107178000D03*
X142484000Y-104638000D03*
X134864000Y-104638000D03*
X134864000Y-107178000D03*
X134864000Y-109718000D03*
X134864000Y-112258000D03*
%TD*%
D14*
%TO.C,R41*%
X179324000Y-69088000D03*
X179324000Y-58928000D03*
%TD*%
D24*
%TO.C,C14*%
X127049000Y-84074000D03*
X129999000Y-84074000D03*
%TD*%
D14*
%TO.C,R8*%
X93472000Y-68326000D03*
X103632000Y-68326000D03*
%TD*%
D10*
%TO.C,C36*%
X169164000Y-72938000D03*
X169164000Y-77938000D03*
%TD*%
D14*
%TO.C,R43*%
X177292000Y-77978000D03*
X177292000Y-88138000D03*
%TD*%
%TO.C,R52*%
X162560000Y-100838000D03*
X162560000Y-90678000D03*
%TD*%
D32*
%TO.C,J1*%
X56430000Y-112626000D03*
D23*
X56430000Y-116586000D03*
%TD*%
D14*
%TO.C,R53*%
X153416000Y-100838000D03*
X153416000Y-90678000D03*
%TD*%
%TO.C,R70*%
X103632000Y-55880000D03*
X93472000Y-55880000D03*
%TD*%
%TO.C,R68*%
X131826000Y-116078000D03*
X121666000Y-116078000D03*
%TD*%
D24*
%TO.C,C11*%
X112825000Y-99314000D03*
X115775000Y-99314000D03*
%TD*%
D14*
%TO.C,R55*%
X156464000Y-113030000D03*
X156464000Y-102870000D03*
%TD*%
%TO.C,R33*%
X161036000Y-77978000D03*
X161036000Y-88138000D03*
%TD*%
D10*
%TO.C,F1*%
X62484000Y-120904000D03*
X62484000Y-110744000D03*
%TD*%
D14*
%TO.C,R45*%
X170688000Y-113030000D03*
X170688000Y-102870000D03*
%TD*%
%TO.C,R59*%
X156464000Y-69088000D03*
X156464000Y-58928000D03*
%TD*%
D19*
%TO.C,D1*%
X68834000Y-91440000D03*
D20*
X76454000Y-91440000D03*
%TD*%
D16*
%TO.C,Q4*%
X160401000Y-75184000D03*
X162560000Y-73914000D03*
X160401000Y-72634000D03*
%TD*%
D10*
%TO.C,C3*%
X85344000Y-59904000D03*
X85344000Y-54904000D03*
%TD*%
D14*
%TO.C,R16*%
X123952000Y-103378000D03*
X123952000Y-113538000D03*
%TD*%
D12*
%TO.C,C27*%
X134620000Y-60364380D03*
D13*
X134620000Y-57864380D03*
%TD*%
D10*
%TO.C,C37*%
X76200000Y-54904000D03*
X76200000Y-59904000D03*
%TD*%
D14*
%TO.C,D27*%
X148336000Y-94136000D03*
D15*
X148336000Y-100936000D03*
%TD*%
D33*
%TO.C,R26*%
X73152000Y-86106000D03*
D29*
X52832000Y-86106000D03*
%TD*%
D14*
%TO.C,R28*%
X159512000Y-100838000D03*
X159512000Y-90678000D03*
%TD*%
D33*
%TO.C,HS1*%
X54246000Y-75692000D03*
X72246000Y-75692000D03*
%TD*%
D10*
%TO.C,RV3*%
X144272000Y-123190000D03*
X146812000Y-120650000D03*
X149352000Y-123190000D03*
%TD*%
%TO.C,C35*%
X169164000Y-58928000D03*
X169164000Y-63928000D03*
%TD*%
%TO.C,C32*%
X141010000Y-73406000D03*
X146010000Y-73406000D03*
%TD*%
D16*
%TO.C,Q7*%
X148463000Y-90678000D03*
X150622000Y-89408000D03*
X148463000Y-88128000D03*
%TD*%
D12*
%TO.C,C19*%
X126238000Y-73572380D03*
D13*
X126238000Y-71072380D03*
%TD*%
D34*
%TO.C,C1*%
X59771677Y-95250000D03*
D35*
X54771677Y-95250000D03*
%TD*%
D10*
%TO.C,C8*%
X77724000Y-71588000D03*
X77724000Y-66588000D03*
%TD*%
D24*
%TO.C,C9*%
X105713000Y-99314000D03*
X108663000Y-99314000D03*
%TD*%
D10*
%TO.C,RV2*%
X134874000Y-123190000D03*
X137414000Y-120650000D03*
X139954000Y-123190000D03*
%TD*%
D21*
%TO.C,H3*%
X54610000Y-123190000D03*
%TD*%
D12*
%TO.C,C25*%
X111252000Y-110300888D03*
D13*
X111252000Y-112800888D03*
%TD*%
D14*
%TO.C,R19*%
X177292000Y-121412000D03*
X187452000Y-121412000D03*
%TD*%
D12*
%TO.C,C24*%
X97028000Y-112078888D03*
D13*
X97028000Y-114578888D03*
%TD*%
D16*
%TO.C,Q6*%
X162687000Y-109220000D03*
X164846000Y-107950000D03*
X162687000Y-106670000D03*
%TD*%
D14*
%TO.C,R58*%
X157988000Y-88138000D03*
X157988000Y-77978000D03*
%TD*%
%TO.C,R54*%
X159512000Y-113030000D03*
X159512000Y-102870000D03*
%TD*%
%TO.C,R15*%
X145288000Y-116078000D03*
X135128000Y-116078000D03*
%TD*%
D22*
%TO.C,J6*%
X154940000Y-121412000D03*
D23*
X158900000Y-121412000D03*
X162860000Y-121412000D03*
X166820000Y-121412000D03*
X170780000Y-121412000D03*
%TD*%
D10*
%TO.C,F2*%
X80518000Y-121920000D03*
X90678000Y-121920000D03*
%TD*%
D14*
%TO.C,D31*%
X187706000Y-94136000D03*
D15*
X187706000Y-100936000D03*
%TD*%
D24*
%TO.C,C13*%
X119937000Y-99314000D03*
X122887000Y-99314000D03*
%TD*%
D11*
%TO.C,U8*%
X146050000Y-57806000D03*
D10*
X143510000Y-57806000D03*
X140970000Y-57806000D03*
%TD*%
D14*
%TO.C,R48*%
X111252000Y-115824000D03*
X101092000Y-115824000D03*
%TD*%
D10*
%TO.C,C4*%
X88178000Y-75184000D03*
X93178000Y-75184000D03*
%TD*%
D19*
%TO.C,D6*%
X119634000Y-95250000D03*
D20*
X119634000Y-87630000D03*
%TD*%
D14*
%TO.C,D34*%
X172974000Y-94136000D03*
D15*
X172974000Y-100936000D03*
%TD*%
D14*
%TO.C,R2*%
X70104000Y-63500000D03*
X59944000Y-63500000D03*
%TD*%
D36*
%TO.C,Q16*%
X75946000Y-62992000D03*
D37*
X74676000Y-62992000D03*
X73406000Y-62992000D03*
%TD*%
D14*
%TO.C,R31*%
X153416000Y-69088000D03*
X153416000Y-58928000D03*
%TD*%
%TO.C,R4*%
X86360000Y-80772000D03*
X76200000Y-80772000D03*
%TD*%
M02*
