%TF.GenerationSoftware,KiCad,Pcbnew,8.0.0*%
%TF.CreationDate,2024-03-08T15:53:04+08:00*%
%TF.ProjectId,xyz_display_board,78797a5f-6469-4737-906c-61795f626f61,1.0*%
%TF.SameCoordinates,Original*%
%TF.FileFunction,Legend,Bot*%
%TF.FilePolarity,Positive*%
%FSLAX46Y46*%
G04 Gerber Fmt 4.6, Leading zero omitted, Abs format (unit mm)*
G04 Created by KiCad (PCBNEW 8.0.0) date 2024-03-08 15:53:04*
%MOMM*%
%LPD*%
G01*
G04 APERTURE LIST*
%ADD10C,0.152400*%
%ADD11C,0.508000*%
%ADD12C,0.000000*%
G04 APERTURE END LIST*
D10*
X142430022Y-79162423D02*
X142502594Y-79234995D01*
X142502594Y-79234995D02*
X142720308Y-79307566D01*
X142720308Y-79307566D02*
X142865451Y-79307566D01*
X142865451Y-79307566D02*
X143083165Y-79234995D01*
X143083165Y-79234995D02*
X143228308Y-79089852D01*
X143228308Y-79089852D02*
X143300879Y-78944709D01*
X143300879Y-78944709D02*
X143373451Y-78654423D01*
X143373451Y-78654423D02*
X143373451Y-78436709D01*
X143373451Y-78436709D02*
X143300879Y-78146423D01*
X143300879Y-78146423D02*
X143228308Y-78001280D01*
X143228308Y-78001280D02*
X143083165Y-77856137D01*
X143083165Y-77856137D02*
X142865451Y-77783566D01*
X142865451Y-77783566D02*
X142720308Y-77783566D01*
X142720308Y-77783566D02*
X142502594Y-77856137D01*
X142502594Y-77856137D02*
X142430022Y-77928709D01*
X141849451Y-78872137D02*
X141123737Y-78872137D01*
X141994594Y-79307566D02*
X141486594Y-77783566D01*
X141486594Y-77783566D02*
X140978594Y-79307566D01*
X140470593Y-77783566D02*
X140470593Y-79017280D01*
X140470593Y-79017280D02*
X140398022Y-79162423D01*
X140398022Y-79162423D02*
X140325451Y-79234995D01*
X140325451Y-79234995D02*
X140180308Y-79307566D01*
X140180308Y-79307566D02*
X139890022Y-79307566D01*
X139890022Y-79307566D02*
X139744879Y-79234995D01*
X139744879Y-79234995D02*
X139672308Y-79162423D01*
X139672308Y-79162423D02*
X139599736Y-79017280D01*
X139599736Y-79017280D02*
X139599736Y-77783566D01*
X139091737Y-77783566D02*
X138220880Y-77783566D01*
X138656308Y-79307566D02*
X138656308Y-77783566D01*
X137712879Y-79307566D02*
X137712879Y-77783566D01*
X136696880Y-77783566D02*
X136406594Y-77783566D01*
X136406594Y-77783566D02*
X136261451Y-77856137D01*
X136261451Y-77856137D02*
X136116308Y-78001280D01*
X136116308Y-78001280D02*
X136043737Y-78291566D01*
X136043737Y-78291566D02*
X136043737Y-78799566D01*
X136043737Y-78799566D02*
X136116308Y-79089852D01*
X136116308Y-79089852D02*
X136261451Y-79234995D01*
X136261451Y-79234995D02*
X136406594Y-79307566D01*
X136406594Y-79307566D02*
X136696880Y-79307566D01*
X136696880Y-79307566D02*
X136842023Y-79234995D01*
X136842023Y-79234995D02*
X136987165Y-79089852D01*
X136987165Y-79089852D02*
X137059737Y-78799566D01*
X137059737Y-78799566D02*
X137059737Y-78291566D01*
X137059737Y-78291566D02*
X136987165Y-78001280D01*
X136987165Y-78001280D02*
X136842023Y-77856137D01*
X136842023Y-77856137D02*
X136696880Y-77783566D01*
X135390594Y-79307566D02*
X135390594Y-77783566D01*
X135390594Y-77783566D02*
X134519737Y-79307566D01*
X134519737Y-79307566D02*
X134519737Y-77783566D01*
X133794023Y-79162423D02*
X133721452Y-79234995D01*
X133721452Y-79234995D02*
X133794023Y-79307566D01*
X133794023Y-79307566D02*
X133866595Y-79234995D01*
X133866595Y-79234995D02*
X133794023Y-79162423D01*
X133794023Y-79162423D02*
X133794023Y-79307566D01*
X133794023Y-78726995D02*
X133866595Y-77856137D01*
X133866595Y-77856137D02*
X133794023Y-77783566D01*
X133794023Y-77783566D02*
X133721452Y-77856137D01*
X133721452Y-77856137D02*
X133794023Y-78726995D01*
X133794023Y-78726995D02*
X133794023Y-77783566D01*
X131907166Y-79307566D02*
X131907166Y-77783566D01*
X131907166Y-78509280D02*
X131036309Y-78509280D01*
X131036309Y-79307566D02*
X131036309Y-77783566D01*
X130310595Y-79307566D02*
X130310595Y-77783566D01*
X128786596Y-77856137D02*
X128931739Y-77783566D01*
X128931739Y-77783566D02*
X129149453Y-77783566D01*
X129149453Y-77783566D02*
X129367167Y-77856137D01*
X129367167Y-77856137D02*
X129512310Y-78001280D01*
X129512310Y-78001280D02*
X129584881Y-78146423D01*
X129584881Y-78146423D02*
X129657453Y-78436709D01*
X129657453Y-78436709D02*
X129657453Y-78654423D01*
X129657453Y-78654423D02*
X129584881Y-78944709D01*
X129584881Y-78944709D02*
X129512310Y-79089852D01*
X129512310Y-79089852D02*
X129367167Y-79234995D01*
X129367167Y-79234995D02*
X129149453Y-79307566D01*
X129149453Y-79307566D02*
X129004310Y-79307566D01*
X129004310Y-79307566D02*
X128786596Y-79234995D01*
X128786596Y-79234995D02*
X128714024Y-79162423D01*
X128714024Y-79162423D02*
X128714024Y-78654423D01*
X128714024Y-78654423D02*
X129004310Y-78654423D01*
X128060881Y-79307566D02*
X128060881Y-77783566D01*
X128060881Y-78509280D02*
X127190024Y-78509280D01*
X127190024Y-79307566D02*
X127190024Y-77783566D01*
X125520882Y-77783566D02*
X125012882Y-79307566D01*
X125012882Y-79307566D02*
X124504882Y-77783566D01*
X123706596Y-77783566D02*
X123416310Y-77783566D01*
X123416310Y-77783566D02*
X123271167Y-77856137D01*
X123271167Y-77856137D02*
X123126024Y-78001280D01*
X123126024Y-78001280D02*
X123053453Y-78291566D01*
X123053453Y-78291566D02*
X123053453Y-78799566D01*
X123053453Y-78799566D02*
X123126024Y-79089852D01*
X123126024Y-79089852D02*
X123271167Y-79234995D01*
X123271167Y-79234995D02*
X123416310Y-79307566D01*
X123416310Y-79307566D02*
X123706596Y-79307566D01*
X123706596Y-79307566D02*
X123851739Y-79234995D01*
X123851739Y-79234995D02*
X123996881Y-79089852D01*
X123996881Y-79089852D02*
X124069453Y-78799566D01*
X124069453Y-78799566D02*
X124069453Y-78291566D01*
X124069453Y-78291566D02*
X123996881Y-78001280D01*
X123996881Y-78001280D02*
X123851739Y-77856137D01*
X123851739Y-77856137D02*
X123706596Y-77783566D01*
X121674596Y-79307566D02*
X122400310Y-79307566D01*
X122400310Y-79307566D02*
X122400310Y-77783566D01*
X121384311Y-77783566D02*
X120513454Y-77783566D01*
X120948882Y-79307566D02*
X120948882Y-77783566D01*
X120078025Y-78872137D02*
X119352311Y-78872137D01*
X120223168Y-79307566D02*
X119715168Y-77783566D01*
X119715168Y-77783566D02*
X119207168Y-79307566D01*
X117900882Y-77856137D02*
X118046025Y-77783566D01*
X118046025Y-77783566D02*
X118263739Y-77783566D01*
X118263739Y-77783566D02*
X118481453Y-77856137D01*
X118481453Y-77856137D02*
X118626596Y-78001280D01*
X118626596Y-78001280D02*
X118699167Y-78146423D01*
X118699167Y-78146423D02*
X118771739Y-78436709D01*
X118771739Y-78436709D02*
X118771739Y-78654423D01*
X118771739Y-78654423D02*
X118699167Y-78944709D01*
X118699167Y-78944709D02*
X118626596Y-79089852D01*
X118626596Y-79089852D02*
X118481453Y-79234995D01*
X118481453Y-79234995D02*
X118263739Y-79307566D01*
X118263739Y-79307566D02*
X118118596Y-79307566D01*
X118118596Y-79307566D02*
X117900882Y-79234995D01*
X117900882Y-79234995D02*
X117828310Y-79162423D01*
X117828310Y-79162423D02*
X117828310Y-78654423D01*
X117828310Y-78654423D02*
X118118596Y-78654423D01*
X117175167Y-78509280D02*
X116667167Y-78509280D01*
X116449453Y-79307566D02*
X117175167Y-79307566D01*
X117175167Y-79307566D02*
X117175167Y-77783566D01*
X117175167Y-77783566D02*
X116449453Y-77783566D01*
X115796310Y-79162423D02*
X115723739Y-79234995D01*
X115723739Y-79234995D02*
X115796310Y-79307566D01*
X115796310Y-79307566D02*
X115868882Y-79234995D01*
X115868882Y-79234995D02*
X115796310Y-79162423D01*
X115796310Y-79162423D02*
X115796310Y-79307566D01*
X115796310Y-78726995D02*
X115868882Y-77856137D01*
X115868882Y-77856137D02*
X115796310Y-77783566D01*
X115796310Y-77783566D02*
X115723739Y-77856137D01*
X115723739Y-77856137D02*
X115796310Y-78726995D01*
X115796310Y-78726995D02*
X115796310Y-77783566D01*
X187896022Y-125390423D02*
X187968594Y-125462995D01*
X187968594Y-125462995D02*
X188186308Y-125535566D01*
X188186308Y-125535566D02*
X188331451Y-125535566D01*
X188331451Y-125535566D02*
X188549165Y-125462995D01*
X188549165Y-125462995D02*
X188694308Y-125317852D01*
X188694308Y-125317852D02*
X188766879Y-125172709D01*
X188766879Y-125172709D02*
X188839451Y-124882423D01*
X188839451Y-124882423D02*
X188839451Y-124664709D01*
X188839451Y-124664709D02*
X188766879Y-124374423D01*
X188766879Y-124374423D02*
X188694308Y-124229280D01*
X188694308Y-124229280D02*
X188549165Y-124084137D01*
X188549165Y-124084137D02*
X188331451Y-124011566D01*
X188331451Y-124011566D02*
X188186308Y-124011566D01*
X188186308Y-124011566D02*
X187968594Y-124084137D01*
X187968594Y-124084137D02*
X187896022Y-124156709D01*
X187315451Y-125100137D02*
X186589737Y-125100137D01*
X187460594Y-125535566D02*
X186952594Y-124011566D01*
X186952594Y-124011566D02*
X186444594Y-125535566D01*
X185936593Y-124011566D02*
X185936593Y-125245280D01*
X185936593Y-125245280D02*
X185864022Y-125390423D01*
X185864022Y-125390423D02*
X185791451Y-125462995D01*
X185791451Y-125462995D02*
X185646308Y-125535566D01*
X185646308Y-125535566D02*
X185356022Y-125535566D01*
X185356022Y-125535566D02*
X185210879Y-125462995D01*
X185210879Y-125462995D02*
X185138308Y-125390423D01*
X185138308Y-125390423D02*
X185065736Y-125245280D01*
X185065736Y-125245280D02*
X185065736Y-124011566D01*
X184557737Y-124011566D02*
X183686880Y-124011566D01*
X184122308Y-125535566D02*
X184122308Y-124011566D01*
X183178879Y-125535566D02*
X183178879Y-124011566D01*
X182162880Y-124011566D02*
X181872594Y-124011566D01*
X181872594Y-124011566D02*
X181727451Y-124084137D01*
X181727451Y-124084137D02*
X181582308Y-124229280D01*
X181582308Y-124229280D02*
X181509737Y-124519566D01*
X181509737Y-124519566D02*
X181509737Y-125027566D01*
X181509737Y-125027566D02*
X181582308Y-125317852D01*
X181582308Y-125317852D02*
X181727451Y-125462995D01*
X181727451Y-125462995D02*
X181872594Y-125535566D01*
X181872594Y-125535566D02*
X182162880Y-125535566D01*
X182162880Y-125535566D02*
X182308023Y-125462995D01*
X182308023Y-125462995D02*
X182453165Y-125317852D01*
X182453165Y-125317852D02*
X182525737Y-125027566D01*
X182525737Y-125027566D02*
X182525737Y-124519566D01*
X182525737Y-124519566D02*
X182453165Y-124229280D01*
X182453165Y-124229280D02*
X182308023Y-124084137D01*
X182308023Y-124084137D02*
X182162880Y-124011566D01*
X180856594Y-125535566D02*
X180856594Y-124011566D01*
X180856594Y-124011566D02*
X179985737Y-125535566D01*
X179985737Y-125535566D02*
X179985737Y-124011566D01*
X179260023Y-125390423D02*
X179187452Y-125462995D01*
X179187452Y-125462995D02*
X179260023Y-125535566D01*
X179260023Y-125535566D02*
X179332595Y-125462995D01*
X179332595Y-125462995D02*
X179260023Y-125390423D01*
X179260023Y-125390423D02*
X179260023Y-125535566D01*
X179260023Y-124954995D02*
X179332595Y-124084137D01*
X179332595Y-124084137D02*
X179260023Y-124011566D01*
X179260023Y-124011566D02*
X179187452Y-124084137D01*
X179187452Y-124084137D02*
X179260023Y-124954995D01*
X179260023Y-124954995D02*
X179260023Y-124011566D01*
X177373166Y-125535566D02*
X177373166Y-124011566D01*
X177373166Y-124737280D02*
X176502309Y-124737280D01*
X176502309Y-125535566D02*
X176502309Y-124011566D01*
X175776595Y-125535566D02*
X175776595Y-124011566D01*
X174252596Y-124084137D02*
X174397739Y-124011566D01*
X174397739Y-124011566D02*
X174615453Y-124011566D01*
X174615453Y-124011566D02*
X174833167Y-124084137D01*
X174833167Y-124084137D02*
X174978310Y-124229280D01*
X174978310Y-124229280D02*
X175050881Y-124374423D01*
X175050881Y-124374423D02*
X175123453Y-124664709D01*
X175123453Y-124664709D02*
X175123453Y-124882423D01*
X175123453Y-124882423D02*
X175050881Y-125172709D01*
X175050881Y-125172709D02*
X174978310Y-125317852D01*
X174978310Y-125317852D02*
X174833167Y-125462995D01*
X174833167Y-125462995D02*
X174615453Y-125535566D01*
X174615453Y-125535566D02*
X174470310Y-125535566D01*
X174470310Y-125535566D02*
X174252596Y-125462995D01*
X174252596Y-125462995D02*
X174180024Y-125390423D01*
X174180024Y-125390423D02*
X174180024Y-124882423D01*
X174180024Y-124882423D02*
X174470310Y-124882423D01*
X173526881Y-125535566D02*
X173526881Y-124011566D01*
X173526881Y-124737280D02*
X172656024Y-124737280D01*
X172656024Y-125535566D02*
X172656024Y-124011566D01*
X170986882Y-124011566D02*
X170478882Y-125535566D01*
X170478882Y-125535566D02*
X169970882Y-124011566D01*
X169172596Y-124011566D02*
X168882310Y-124011566D01*
X168882310Y-124011566D02*
X168737167Y-124084137D01*
X168737167Y-124084137D02*
X168592024Y-124229280D01*
X168592024Y-124229280D02*
X168519453Y-124519566D01*
X168519453Y-124519566D02*
X168519453Y-125027566D01*
X168519453Y-125027566D02*
X168592024Y-125317852D01*
X168592024Y-125317852D02*
X168737167Y-125462995D01*
X168737167Y-125462995D02*
X168882310Y-125535566D01*
X168882310Y-125535566D02*
X169172596Y-125535566D01*
X169172596Y-125535566D02*
X169317739Y-125462995D01*
X169317739Y-125462995D02*
X169462881Y-125317852D01*
X169462881Y-125317852D02*
X169535453Y-125027566D01*
X169535453Y-125027566D02*
X169535453Y-124519566D01*
X169535453Y-124519566D02*
X169462881Y-124229280D01*
X169462881Y-124229280D02*
X169317739Y-124084137D01*
X169317739Y-124084137D02*
X169172596Y-124011566D01*
X167140596Y-125535566D02*
X167866310Y-125535566D01*
X167866310Y-125535566D02*
X167866310Y-124011566D01*
X166850311Y-124011566D02*
X165979454Y-124011566D01*
X166414882Y-125535566D02*
X166414882Y-124011566D01*
X165544025Y-125100137D02*
X164818311Y-125100137D01*
X165689168Y-125535566D02*
X165181168Y-124011566D01*
X165181168Y-124011566D02*
X164673168Y-125535566D01*
X163366882Y-124084137D02*
X163512025Y-124011566D01*
X163512025Y-124011566D02*
X163729739Y-124011566D01*
X163729739Y-124011566D02*
X163947453Y-124084137D01*
X163947453Y-124084137D02*
X164092596Y-124229280D01*
X164092596Y-124229280D02*
X164165167Y-124374423D01*
X164165167Y-124374423D02*
X164237739Y-124664709D01*
X164237739Y-124664709D02*
X164237739Y-124882423D01*
X164237739Y-124882423D02*
X164165167Y-125172709D01*
X164165167Y-125172709D02*
X164092596Y-125317852D01*
X164092596Y-125317852D02*
X163947453Y-125462995D01*
X163947453Y-125462995D02*
X163729739Y-125535566D01*
X163729739Y-125535566D02*
X163584596Y-125535566D01*
X163584596Y-125535566D02*
X163366882Y-125462995D01*
X163366882Y-125462995D02*
X163294310Y-125390423D01*
X163294310Y-125390423D02*
X163294310Y-124882423D01*
X163294310Y-124882423D02*
X163584596Y-124882423D01*
X162641167Y-124737280D02*
X162133167Y-124737280D01*
X161915453Y-125535566D02*
X162641167Y-125535566D01*
X162641167Y-125535566D02*
X162641167Y-124011566D01*
X162641167Y-124011566D02*
X161915453Y-124011566D01*
X161262310Y-125390423D02*
X161189739Y-125462995D01*
X161189739Y-125462995D02*
X161262310Y-125535566D01*
X161262310Y-125535566D02*
X161334882Y-125462995D01*
X161334882Y-125462995D02*
X161262310Y-125390423D01*
X161262310Y-125390423D02*
X161262310Y-125535566D01*
X161262310Y-124954995D02*
X161334882Y-124084137D01*
X161334882Y-124084137D02*
X161262310Y-124011566D01*
X161262310Y-124011566D02*
X161189739Y-124084137D01*
X161189739Y-124084137D02*
X161262310Y-124954995D01*
X161262310Y-124954995D02*
X161262310Y-124011566D01*
X94805022Y-125390423D02*
X94877594Y-125462995D01*
X94877594Y-125462995D02*
X95095308Y-125535566D01*
X95095308Y-125535566D02*
X95240451Y-125535566D01*
X95240451Y-125535566D02*
X95458165Y-125462995D01*
X95458165Y-125462995D02*
X95603308Y-125317852D01*
X95603308Y-125317852D02*
X95675879Y-125172709D01*
X95675879Y-125172709D02*
X95748451Y-124882423D01*
X95748451Y-124882423D02*
X95748451Y-124664709D01*
X95748451Y-124664709D02*
X95675879Y-124374423D01*
X95675879Y-124374423D02*
X95603308Y-124229280D01*
X95603308Y-124229280D02*
X95458165Y-124084137D01*
X95458165Y-124084137D02*
X95240451Y-124011566D01*
X95240451Y-124011566D02*
X95095308Y-124011566D01*
X95095308Y-124011566D02*
X94877594Y-124084137D01*
X94877594Y-124084137D02*
X94805022Y-124156709D01*
X94224451Y-125100137D02*
X93498737Y-125100137D01*
X94369594Y-125535566D02*
X93861594Y-124011566D01*
X93861594Y-124011566D02*
X93353594Y-125535566D01*
X92845593Y-124011566D02*
X92845593Y-125245280D01*
X92845593Y-125245280D02*
X92773022Y-125390423D01*
X92773022Y-125390423D02*
X92700451Y-125462995D01*
X92700451Y-125462995D02*
X92555308Y-125535566D01*
X92555308Y-125535566D02*
X92265022Y-125535566D01*
X92265022Y-125535566D02*
X92119879Y-125462995D01*
X92119879Y-125462995D02*
X92047308Y-125390423D01*
X92047308Y-125390423D02*
X91974736Y-125245280D01*
X91974736Y-125245280D02*
X91974736Y-124011566D01*
X91466737Y-124011566D02*
X90595880Y-124011566D01*
X91031308Y-125535566D02*
X91031308Y-124011566D01*
X90087879Y-125535566D02*
X90087879Y-124011566D01*
X89071880Y-124011566D02*
X88781594Y-124011566D01*
X88781594Y-124011566D02*
X88636451Y-124084137D01*
X88636451Y-124084137D02*
X88491308Y-124229280D01*
X88491308Y-124229280D02*
X88418737Y-124519566D01*
X88418737Y-124519566D02*
X88418737Y-125027566D01*
X88418737Y-125027566D02*
X88491308Y-125317852D01*
X88491308Y-125317852D02*
X88636451Y-125462995D01*
X88636451Y-125462995D02*
X88781594Y-125535566D01*
X88781594Y-125535566D02*
X89071880Y-125535566D01*
X89071880Y-125535566D02*
X89217023Y-125462995D01*
X89217023Y-125462995D02*
X89362165Y-125317852D01*
X89362165Y-125317852D02*
X89434737Y-125027566D01*
X89434737Y-125027566D02*
X89434737Y-124519566D01*
X89434737Y-124519566D02*
X89362165Y-124229280D01*
X89362165Y-124229280D02*
X89217023Y-124084137D01*
X89217023Y-124084137D02*
X89071880Y-124011566D01*
X87765594Y-125535566D02*
X87765594Y-124011566D01*
X87765594Y-124011566D02*
X86894737Y-125535566D01*
X86894737Y-125535566D02*
X86894737Y-124011566D01*
X86169023Y-125390423D02*
X86096452Y-125462995D01*
X86096452Y-125462995D02*
X86169023Y-125535566D01*
X86169023Y-125535566D02*
X86241595Y-125462995D01*
X86241595Y-125462995D02*
X86169023Y-125390423D01*
X86169023Y-125390423D02*
X86169023Y-125535566D01*
X86169023Y-124954995D02*
X86241595Y-124084137D01*
X86241595Y-124084137D02*
X86169023Y-124011566D01*
X86169023Y-124011566D02*
X86096452Y-124084137D01*
X86096452Y-124084137D02*
X86169023Y-124954995D01*
X86169023Y-124954995D02*
X86169023Y-124011566D01*
X84282166Y-125535566D02*
X84282166Y-124011566D01*
X84282166Y-124737280D02*
X83411309Y-124737280D01*
X83411309Y-125535566D02*
X83411309Y-124011566D01*
X82685595Y-125535566D02*
X82685595Y-124011566D01*
X81161596Y-124084137D02*
X81306739Y-124011566D01*
X81306739Y-124011566D02*
X81524453Y-124011566D01*
X81524453Y-124011566D02*
X81742167Y-124084137D01*
X81742167Y-124084137D02*
X81887310Y-124229280D01*
X81887310Y-124229280D02*
X81959881Y-124374423D01*
X81959881Y-124374423D02*
X82032453Y-124664709D01*
X82032453Y-124664709D02*
X82032453Y-124882423D01*
X82032453Y-124882423D02*
X81959881Y-125172709D01*
X81959881Y-125172709D02*
X81887310Y-125317852D01*
X81887310Y-125317852D02*
X81742167Y-125462995D01*
X81742167Y-125462995D02*
X81524453Y-125535566D01*
X81524453Y-125535566D02*
X81379310Y-125535566D01*
X81379310Y-125535566D02*
X81161596Y-125462995D01*
X81161596Y-125462995D02*
X81089024Y-125390423D01*
X81089024Y-125390423D02*
X81089024Y-124882423D01*
X81089024Y-124882423D02*
X81379310Y-124882423D01*
X80435881Y-125535566D02*
X80435881Y-124011566D01*
X80435881Y-124737280D02*
X79565024Y-124737280D01*
X79565024Y-125535566D02*
X79565024Y-124011566D01*
X77895882Y-124011566D02*
X77387882Y-125535566D01*
X77387882Y-125535566D02*
X76879882Y-124011566D01*
X76081596Y-124011566D02*
X75791310Y-124011566D01*
X75791310Y-124011566D02*
X75646167Y-124084137D01*
X75646167Y-124084137D02*
X75501024Y-124229280D01*
X75501024Y-124229280D02*
X75428453Y-124519566D01*
X75428453Y-124519566D02*
X75428453Y-125027566D01*
X75428453Y-125027566D02*
X75501024Y-125317852D01*
X75501024Y-125317852D02*
X75646167Y-125462995D01*
X75646167Y-125462995D02*
X75791310Y-125535566D01*
X75791310Y-125535566D02*
X76081596Y-125535566D01*
X76081596Y-125535566D02*
X76226739Y-125462995D01*
X76226739Y-125462995D02*
X76371881Y-125317852D01*
X76371881Y-125317852D02*
X76444453Y-125027566D01*
X76444453Y-125027566D02*
X76444453Y-124519566D01*
X76444453Y-124519566D02*
X76371881Y-124229280D01*
X76371881Y-124229280D02*
X76226739Y-124084137D01*
X76226739Y-124084137D02*
X76081596Y-124011566D01*
X74049596Y-125535566D02*
X74775310Y-125535566D01*
X74775310Y-125535566D02*
X74775310Y-124011566D01*
X73759311Y-124011566D02*
X72888454Y-124011566D01*
X73323882Y-125535566D02*
X73323882Y-124011566D01*
X72453025Y-125100137D02*
X71727311Y-125100137D01*
X72598168Y-125535566D02*
X72090168Y-124011566D01*
X72090168Y-124011566D02*
X71582168Y-125535566D01*
X70275882Y-124084137D02*
X70421025Y-124011566D01*
X70421025Y-124011566D02*
X70638739Y-124011566D01*
X70638739Y-124011566D02*
X70856453Y-124084137D01*
X70856453Y-124084137D02*
X71001596Y-124229280D01*
X71001596Y-124229280D02*
X71074167Y-124374423D01*
X71074167Y-124374423D02*
X71146739Y-124664709D01*
X71146739Y-124664709D02*
X71146739Y-124882423D01*
X71146739Y-124882423D02*
X71074167Y-125172709D01*
X71074167Y-125172709D02*
X71001596Y-125317852D01*
X71001596Y-125317852D02*
X70856453Y-125462995D01*
X70856453Y-125462995D02*
X70638739Y-125535566D01*
X70638739Y-125535566D02*
X70493596Y-125535566D01*
X70493596Y-125535566D02*
X70275882Y-125462995D01*
X70275882Y-125462995D02*
X70203310Y-125390423D01*
X70203310Y-125390423D02*
X70203310Y-124882423D01*
X70203310Y-124882423D02*
X70493596Y-124882423D01*
X69550167Y-124737280D02*
X69042167Y-124737280D01*
X68824453Y-125535566D02*
X69550167Y-125535566D01*
X69550167Y-125535566D02*
X69550167Y-124011566D01*
X69550167Y-124011566D02*
X68824453Y-124011566D01*
X68171310Y-125390423D02*
X68098739Y-125462995D01*
X68098739Y-125462995D02*
X68171310Y-125535566D01*
X68171310Y-125535566D02*
X68243882Y-125462995D01*
X68243882Y-125462995D02*
X68171310Y-125390423D01*
X68171310Y-125390423D02*
X68171310Y-125535566D01*
X68171310Y-124954995D02*
X68243882Y-124084137D01*
X68243882Y-124084137D02*
X68171310Y-124011566D01*
X68171310Y-124011566D02*
X68098739Y-124084137D01*
X68098739Y-124084137D02*
X68171310Y-124954995D01*
X68171310Y-124954995D02*
X68171310Y-124011566D01*
D11*
X192151000Y-109474000D02*
X197612000Y-109474000D01*
X192024000Y-83947000D02*
X192024000Y-109474000D01*
X146939000Y-83820000D02*
X192024000Y-83820000D01*
X146939000Y-76073000D02*
X146939000Y-83820000D01*
X120396000Y-76073000D02*
X146939000Y-76073000D01*
X120396000Y-73025000D02*
X120396000Y-76073000D01*
X105156000Y-73025000D02*
X120396000Y-73025000D01*
X105156000Y-63754000D02*
X105156000Y-73025000D01*
X91694000Y-63754000D02*
X105156000Y-63754000D01*
X91694000Y-83566000D02*
X91694000Y-63754000D01*
X85217000Y-83566000D02*
X91694000Y-83566000D01*
X85217000Y-106426000D02*
X85217000Y-83566000D01*
X65278000Y-106426000D02*
X85217000Y-106426000D01*
X65278000Y-126492000D02*
X65278000Y-106426000D01*
D12*
%TO.C,G\u002A\u002A\u002A*%
G36*
X87161371Y-109110098D02*
G01*
X87276786Y-109110729D01*
X87365836Y-109111988D01*
X87431658Y-109114020D01*
X87477391Y-109116971D01*
X87506172Y-109120988D01*
X87521139Y-109126218D01*
X87525431Y-109132805D01*
X87526991Y-109142562D01*
X87543615Y-109161728D01*
X87551004Y-109170124D01*
X87562121Y-109203327D01*
X87569874Y-109251827D01*
X87573887Y-109284034D01*
X87581811Y-109321335D01*
X87589908Y-109335865D01*
X87593173Y-109337982D01*
X87602750Y-109361519D01*
X87610837Y-109402740D01*
X87613269Y-109418191D01*
X87623462Y-109458513D01*
X87634836Y-109479392D01*
X87640289Y-109487059D01*
X87650627Y-109520100D01*
X87658508Y-109567817D01*
X87662288Y-109594294D01*
X87672451Y-109635864D01*
X87683810Y-109656760D01*
X87693306Y-109674825D01*
X87703732Y-109716461D01*
X87712095Y-109771759D01*
X87719602Y-109823600D01*
X87729372Y-109866243D01*
X87738761Y-109886240D01*
X87742413Y-109890214D01*
X87753842Y-109918935D01*
X87762769Y-109962892D01*
X87765443Y-109979533D01*
X87775192Y-110015449D01*
X87785751Y-110029766D01*
X87793888Y-110035805D01*
X87799764Y-110062041D01*
X87802545Y-110080788D01*
X87814617Y-110094315D01*
X87814803Y-110094324D01*
X87823819Y-110109677D01*
X87833208Y-110148743D01*
X87840966Y-110203241D01*
X87848798Y-110259201D01*
X87858416Y-110302014D01*
X87867680Y-110321945D01*
X87871372Y-110325918D01*
X87882900Y-110354639D01*
X87891867Y-110398597D01*
X87894507Y-110415253D01*
X87903846Y-110451159D01*
X87913688Y-110465471D01*
X87919998Y-110473456D01*
X87929459Y-110505694D01*
X87937629Y-110554226D01*
X87943313Y-110590919D01*
X87952441Y-110628440D01*
X87960942Y-110642981D01*
X87966247Y-110649433D01*
X87974603Y-110679928D01*
X87981242Y-110727019D01*
X87985588Y-110758887D01*
X87995818Y-110798931D01*
X88007501Y-110817119D01*
X88008937Y-110817765D01*
X88020812Y-110838857D01*
X88025685Y-110877163D01*
X88025691Y-110878440D01*
X88032509Y-110922530D01*
X88048314Y-110953775D01*
X88061237Y-110980204D01*
X88073654Y-111028525D01*
X88082732Y-111088060D01*
X88082925Y-111089865D01*
X88091013Y-111146709D01*
X88100822Y-111189759D01*
X88110272Y-111209822D01*
X88115951Y-111217574D01*
X88126644Y-111250775D01*
X88134666Y-111298577D01*
X88138370Y-111325112D01*
X88147940Y-111366439D01*
X88158339Y-111387002D01*
X88161988Y-111390976D01*
X88173412Y-111419697D01*
X88182337Y-111463654D01*
X88185011Y-111480295D01*
X88194760Y-111516212D01*
X88205319Y-111530529D01*
X88206373Y-111530676D01*
X88215591Y-111547268D01*
X88219431Y-111582975D01*
X88225354Y-111629785D01*
X88241449Y-111677425D01*
X88246976Y-111689549D01*
X88262859Y-111738707D01*
X88274613Y-111794420D01*
X88279023Y-111818468D01*
X88289952Y-111855018D01*
X88301007Y-111869410D01*
X88301191Y-111869414D01*
X88311766Y-111883826D01*
X88316155Y-111917822D01*
X88316156Y-111918401D01*
X88320406Y-111952203D01*
X88330433Y-111966234D01*
X88337329Y-111974212D01*
X88347395Y-112006449D01*
X88355800Y-112054989D01*
X88361727Y-112091653D01*
X88371857Y-112129194D01*
X88381865Y-112143743D01*
X88385220Y-112145387D01*
X88393519Y-112167868D01*
X88396841Y-112208292D01*
X88396841Y-112272841D01*
X88325376Y-112272841D01*
X88307115Y-112272178D01*
X88261053Y-112264625D01*
X88232428Y-112251357D01*
X88207582Y-112234608D01*
X88166726Y-112218775D01*
X88136285Y-112206760D01*
X88122508Y-112191848D01*
X88119780Y-112184569D01*
X88098303Y-112176018D01*
X88087152Y-112174084D01*
X88074097Y-112158928D01*
X88073317Y-112153739D01*
X88060403Y-112150302D01*
X88041792Y-112147557D01*
X88013367Y-112127701D01*
X87981327Y-112105112D01*
X87934431Y-112085194D01*
X87898690Y-112072135D01*
X87867354Y-112052267D01*
X87853419Y-112041325D01*
X87824544Y-112030783D01*
X87813603Y-112028012D01*
X87793928Y-112006577D01*
X87778158Y-111990918D01*
X87743790Y-111982371D01*
X87716766Y-111978310D01*
X87702940Y-111966234D01*
X87700026Y-111958654D01*
X87678228Y-111950097D01*
X87666082Y-111947520D01*
X87644396Y-111926330D01*
X87643437Y-111924299D01*
X87620007Y-111905573D01*
X87580353Y-111892259D01*
X87573997Y-111890979D01*
X87539498Y-111880240D01*
X87525431Y-111868897D01*
X87511651Y-111856660D01*
X87478367Y-111845501D01*
X87443322Y-111831861D01*
X87422394Y-111811944D01*
X87406848Y-111796913D01*
X87372634Y-111788724D01*
X87345839Y-111783970D01*
X87331784Y-111764518D01*
X87325794Y-111750403D01*
X87299510Y-111740313D01*
X87280751Y-111737287D01*
X87267235Y-111724175D01*
X87264504Y-111716752D01*
X87243029Y-111708038D01*
X87231879Y-111706105D01*
X87218824Y-111690949D01*
X87218044Y-111685759D01*
X87205130Y-111682322D01*
X87186165Y-111679344D01*
X87157569Y-111659233D01*
X87131362Y-111640656D01*
X87112715Y-111645458D01*
X87109849Y-111654005D01*
X87120520Y-111674849D01*
X87127890Y-111689795D01*
X87136238Y-111735826D01*
X87143434Y-111810292D01*
X87149219Y-111911069D01*
X87150499Y-111937823D01*
X87155501Y-112016638D01*
X87161445Y-112081547D01*
X87167695Y-112126432D01*
X87173612Y-112145174D01*
X87175605Y-112148412D01*
X87181642Y-112177076D01*
X87187777Y-112229801D01*
X87193393Y-112300529D01*
X87197872Y-112383199D01*
X87199333Y-112414851D01*
X87203907Y-112492377D01*
X87209028Y-112554856D01*
X87214171Y-112596550D01*
X87218810Y-112611723D01*
X87219840Y-112612561D01*
X87224865Y-112634269D01*
X87230329Y-112680936D01*
X87235638Y-112746633D01*
X87240198Y-112825428D01*
X87240708Y-112835753D01*
X87246034Y-112917215D01*
X87252619Y-112982830D01*
X87259795Y-113027124D01*
X87266896Y-113044626D01*
X87270151Y-113048217D01*
X87277089Y-113077358D01*
X87281700Y-113130591D01*
X87283373Y-113202077D01*
X87283401Y-113211577D01*
X87285996Y-113283965D01*
X87292255Y-113332467D01*
X87301391Y-113354986D01*
X87312620Y-113349426D01*
X87325158Y-113313693D01*
X87337431Y-113287108D01*
X87357739Y-113273349D01*
X87368177Y-113270558D01*
X87380196Y-113249144D01*
X87381571Y-113238061D01*
X87392507Y-113224938D01*
X87404164Y-113216396D01*
X87420747Y-113188629D01*
X87437853Y-113164825D01*
X87472985Y-113157369D01*
X87495915Y-113156679D01*
X87509294Y-113145266D01*
X87509790Y-113141087D01*
X87525414Y-113129141D01*
X87553935Y-113132829D01*
X87583064Y-113151168D01*
X87589824Y-113161995D01*
X87599609Y-113197163D01*
X87605275Y-113242896D01*
X87606297Y-113288636D01*
X87602154Y-113323823D01*
X87592320Y-113337898D01*
X87591487Y-113338100D01*
X87583417Y-113355985D01*
X87575320Y-113397135D01*
X87568832Y-113453497D01*
X87568385Y-113458668D01*
X87561536Y-113515929D01*
X87553079Y-113558879D01*
X87544741Y-113578561D01*
X87542855Y-113580753D01*
X87534623Y-113607015D01*
X87526415Y-113654972D01*
X87519759Y-113716207D01*
X87518313Y-113732404D01*
X87511107Y-113790985D01*
X87502715Y-113834100D01*
X87494670Y-113853373D01*
X87489793Y-113863658D01*
X87482141Y-113900831D01*
X87474662Y-113957944D01*
X87468443Y-114027765D01*
X87464235Y-114078447D01*
X87457405Y-114137694D01*
X87450311Y-114178180D01*
X87443950Y-114193172D01*
X87443794Y-114193180D01*
X87435967Y-114208521D01*
X87427708Y-114247589D01*
X87420779Y-114302098D01*
X87413684Y-114358249D01*
X87403300Y-114412692D01*
X87392562Y-114447333D01*
X87378855Y-114467275D01*
X87351623Y-114480282D01*
X87303341Y-114483642D01*
X87262589Y-114481707D01*
X87235381Y-114472194D01*
X87223499Y-114451367D01*
X87214411Y-114432613D01*
X87192736Y-114419093D01*
X87182362Y-114416303D01*
X87170412Y-114394887D01*
X87168797Y-114383777D01*
X87156024Y-114370681D01*
X87143970Y-114360547D01*
X87131511Y-114330338D01*
X87120851Y-114303687D01*
X87105556Y-114289995D01*
X87098123Y-114287083D01*
X87089726Y-114265283D01*
X87086987Y-114252848D01*
X87065520Y-114231282D01*
X87054209Y-114225005D01*
X87041314Y-114205398D01*
X87041199Y-114204036D01*
X87028430Y-114181328D01*
X87000971Y-114151415D01*
X86998670Y-114149242D01*
X86971726Y-114116337D01*
X86960628Y-114088544D01*
X86958153Y-114076069D01*
X86937878Y-114054331D01*
X86920558Y-114038647D01*
X86904778Y-114004358D01*
X86902400Y-113996855D01*
X86880175Y-113956281D01*
X86846841Y-113915530D01*
X86836599Y-113904749D01*
X86809943Y-113870126D01*
X86799256Y-113844980D01*
X86797640Y-113834995D01*
X86783118Y-113822015D01*
X86775539Y-113819101D01*
X86766981Y-113797303D01*
X86764684Y-113785632D01*
X86744232Y-113763861D01*
X86727595Y-113749428D01*
X86711650Y-113715956D01*
X86701312Y-113690449D01*
X86685588Y-113676780D01*
X86671558Y-113668333D01*
X86653660Y-113640471D01*
X86626534Y-113586959D01*
X86567887Y-113512517D01*
X86563526Y-113507884D01*
X86542625Y-113469883D01*
X86529692Y-113421276D01*
X86521149Y-113357586D01*
X86596725Y-113351575D01*
X86609101Y-113350749D01*
X86664991Y-113353848D01*
X86700010Y-113371379D01*
X86730876Y-113391745D01*
X86775429Y-113409169D01*
X86811909Y-113422793D01*
X86835156Y-113440036D01*
X86837869Y-113442733D01*
X86844604Y-113432098D01*
X86847420Y-113398413D01*
X86847219Y-113387498D01*
X86842261Y-113352153D01*
X86832691Y-113337898D01*
X86825508Y-113329924D01*
X86815146Y-113297686D01*
X86806626Y-113249144D01*
X86800959Y-113212449D01*
X86791906Y-113174929D01*
X86783517Y-113160389D01*
X86777478Y-113151599D01*
X86769089Y-113118455D01*
X86762076Y-113069112D01*
X86756837Y-113030397D01*
X86747520Y-112988408D01*
X86737944Y-112968254D01*
X86732590Y-112960638D01*
X86722408Y-112927692D01*
X86714590Y-112880026D01*
X86710844Y-112853527D01*
X86700934Y-112812045D01*
X86689986Y-112791271D01*
X86689107Y-112790555D01*
X86679683Y-112767787D01*
X86670128Y-112722678D01*
X86662385Y-112664169D01*
X86661545Y-112656053D01*
X86653956Y-112600892D01*
X86645341Y-112561935D01*
X86637407Y-112547174D01*
X86630431Y-112537835D01*
X86620815Y-112504157D01*
X86612530Y-112454385D01*
X86608778Y-112429448D01*
X86593167Y-112370995D01*
X86572325Y-112336624D01*
X86559193Y-112319341D01*
X86543293Y-112271592D01*
X86532205Y-112195423D01*
X86531443Y-112187957D01*
X86524003Y-112132878D01*
X86515583Y-112093952D01*
X86507862Y-112079194D01*
X86501093Y-112069856D01*
X86491705Y-112036178D01*
X86483558Y-111986405D01*
X86477205Y-111946179D01*
X86466588Y-111903802D01*
X86455987Y-111883233D01*
X86449706Y-111874094D01*
X86439366Y-111839469D01*
X86431911Y-111790444D01*
X86428106Y-111759746D01*
X86420244Y-111722554D01*
X86412167Y-111708038D01*
X86406210Y-111699248D01*
X86397902Y-111666104D01*
X86390920Y-111616761D01*
X86385647Y-111578050D01*
X86376192Y-111536058D01*
X86366409Y-111515904D01*
X86359898Y-111506081D01*
X86348933Y-111471051D01*
X86339783Y-111421602D01*
X86334297Y-111388617D01*
X86324674Y-111351375D01*
X86315710Y-111336882D01*
X86314821Y-111336607D01*
X86307093Y-111318213D01*
X86298823Y-111276678D01*
X86291654Y-111219996D01*
X86291021Y-111213791D01*
X86282974Y-111156223D01*
X86273176Y-111112939D01*
X86263606Y-111092894D01*
X86257675Y-111085117D01*
X86246604Y-111051863D01*
X86238432Y-111004030D01*
X86234710Y-110977524D01*
X86224967Y-110936063D01*
X86214288Y-110915314D01*
X86205544Y-110896431D01*
X86196756Y-110854214D01*
X86190205Y-110798319D01*
X86181622Y-110691393D01*
X86248380Y-110691393D01*
X86264809Y-110691868D01*
X86300790Y-110697284D01*
X86315139Y-110706799D01*
X86315660Y-110708986D01*
X86334377Y-110721966D01*
X86371619Y-110732800D01*
X86379300Y-110734375D01*
X86413999Y-110745638D01*
X86428099Y-110757738D01*
X86431000Y-110764459D01*
X86452812Y-110772079D01*
X86465186Y-110774783D01*
X86486777Y-110796192D01*
X86493208Y-110807145D01*
X86509361Y-110812066D01*
X86514554Y-110810240D01*
X86532829Y-110820227D01*
X86547072Y-110830310D01*
X86580629Y-110836628D01*
X86605938Y-110841852D01*
X86627582Y-110860834D01*
X86642321Y-110876136D01*
X86675993Y-110885039D01*
X86702832Y-110890526D01*
X86724405Y-110909245D01*
X86731480Y-110920396D01*
X86758406Y-110933451D01*
X86769988Y-110935140D01*
X86783118Y-110947839D01*
X86793252Y-110959893D01*
X86823461Y-110972352D01*
X86850112Y-110983012D01*
X86863805Y-110998308D01*
X86874084Y-111008779D01*
X86904654Y-111014137D01*
X86933167Y-111019483D01*
X86954062Y-111036440D01*
X86956499Y-111040477D01*
X86982512Y-111056952D01*
X87024412Y-111068623D01*
X87035169Y-111070683D01*
X87074781Y-111084749D01*
X87095526Y-111102801D01*
X87102659Y-111114039D01*
X87129562Y-111127098D01*
X87141151Y-111128844D01*
X87154275Y-111141953D01*
X87154284Y-111142244D01*
X87168808Y-111155731D01*
X87202686Y-111167441D01*
X87203628Y-111167651D01*
X87237187Y-111179478D01*
X87251098Y-111192929D01*
X87257675Y-111201751D01*
X87284525Y-111207784D01*
X87306561Y-111211683D01*
X87342158Y-111231990D01*
X87360153Y-111245368D01*
X87393451Y-111255949D01*
X87407278Y-111253767D01*
X87402695Y-111243846D01*
X87399833Y-111241319D01*
X87385348Y-111213889D01*
X87373724Y-111171475D01*
X87371403Y-111160296D01*
X87359675Y-111125132D01*
X87347190Y-111110961D01*
X87338453Y-111105434D01*
X87331784Y-111079839D01*
X87328028Y-111059341D01*
X87308025Y-111024958D01*
X87303725Y-111019821D01*
X87286211Y-110983724D01*
X87273847Y-110936046D01*
X87271130Y-110922039D01*
X87257547Y-110882433D01*
X87241126Y-110862336D01*
X87226475Y-110846313D01*
X87218824Y-110811776D01*
X87213414Y-110779978D01*
X87194618Y-110745568D01*
X87180073Y-110723107D01*
X87170412Y-110682171D01*
X87166844Y-110656763D01*
X87155557Y-110642981D01*
X87155266Y-110642972D01*
X87141778Y-110628448D01*
X87130069Y-110594569D01*
X87129849Y-110593579D01*
X87118563Y-110560053D01*
X87106377Y-110546158D01*
X87104495Y-110545630D01*
X87092963Y-110526902D01*
X87082722Y-110489677D01*
X87081143Y-110482018D01*
X87069525Y-110447304D01*
X87056720Y-110433197D01*
X87046589Y-110423185D01*
X87041314Y-110392854D01*
X87037628Y-110366328D01*
X87026459Y-110352511D01*
X87026168Y-110352502D01*
X87012681Y-110337978D01*
X87000971Y-110304099D01*
X87000749Y-110303101D01*
X86989544Y-110269580D01*
X86977545Y-110255687D01*
X86974363Y-110253990D01*
X86963705Y-110231474D01*
X86954431Y-110191139D01*
X86951703Y-110176480D01*
X86940891Y-110140847D01*
X86929445Y-110126590D01*
X86928396Y-110126465D01*
X86915164Y-110110241D01*
X86903462Y-110075058D01*
X86889089Y-110032467D01*
X86869906Y-110001288D01*
X86855213Y-109975171D01*
X86847667Y-109933517D01*
X86841470Y-109900368D01*
X86823461Y-109878696D01*
X86807802Y-109862925D01*
X86799256Y-109828557D01*
X86795194Y-109801533D01*
X86783118Y-109787708D01*
X86772443Y-109777427D01*
X86766981Y-109746858D01*
X86761635Y-109718345D01*
X86744678Y-109697450D01*
X86740147Y-109694571D01*
X86723847Y-109667837D01*
X86712213Y-109625339D01*
X86709656Y-109611574D01*
X86698781Y-109576032D01*
X86687093Y-109561787D01*
X86682253Y-109558653D01*
X86670837Y-109533111D01*
X86661408Y-109490255D01*
X86657603Y-109470318D01*
X86644026Y-109430075D01*
X86628145Y-109410075D01*
X86613549Y-109394686D01*
X86605609Y-109360578D01*
X86601547Y-109333553D01*
X86589472Y-109319728D01*
X86582048Y-109316997D01*
X86573334Y-109295522D01*
X86571729Y-109284414D01*
X86559029Y-109271316D01*
X86557420Y-109271054D01*
X86545804Y-109253687D01*
X86537225Y-109217788D01*
X86533690Y-109175526D01*
X86537207Y-109139073D01*
X86540608Y-109131462D01*
X86549184Y-109124788D01*
X86566146Y-109119652D01*
X86594906Y-109115854D01*
X86638877Y-109113194D01*
X86701473Y-109111473D01*
X86786105Y-109110490D01*
X86896185Y-109110047D01*
X87035128Y-109109944D01*
X87161371Y-109110098D01*
G37*
G36*
X91874414Y-114580465D02*
G01*
X91874624Y-114581406D01*
X91886451Y-114614965D01*
X91899902Y-114628877D01*
X91906376Y-114631195D01*
X91914758Y-114651930D01*
X91920961Y-114672514D01*
X91942998Y-114703246D01*
X91947771Y-114708517D01*
X91959503Y-114730058D01*
X91966673Y-114763923D01*
X91970259Y-114816748D01*
X91971238Y-114895169D01*
X91971152Y-114922970D01*
X91969461Y-114992627D01*
X91964855Y-115038771D01*
X91956360Y-115068039D01*
X91942998Y-115087065D01*
X91925381Y-115109678D01*
X91914758Y-115138045D01*
X91905311Y-115155188D01*
X91875582Y-115170623D01*
X91848798Y-115182019D01*
X91827677Y-115203205D01*
X91821638Y-115212987D01*
X91795580Y-115225954D01*
X91785289Y-115227778D01*
X91765488Y-115246126D01*
X91763493Y-115247252D01*
X91750739Y-115249266D01*
X91725430Y-115251167D01*
X91686629Y-115252962D01*
X91633396Y-115254656D01*
X91564792Y-115256254D01*
X91479877Y-115257762D01*
X91377714Y-115259186D01*
X91257363Y-115260532D01*
X91117884Y-115261806D01*
X90958339Y-115263012D01*
X90777788Y-115264158D01*
X90575293Y-115265248D01*
X90349914Y-115266289D01*
X90100712Y-115267285D01*
X89826749Y-115268244D01*
X89527085Y-115269170D01*
X89200781Y-115270069D01*
X88846898Y-115270948D01*
X88464496Y-115271811D01*
X88052638Y-115272664D01*
X87610383Y-115273514D01*
X87136793Y-115274366D01*
X87075061Y-115274473D01*
X86560973Y-115275301D01*
X86076612Y-115275965D01*
X85622135Y-115276466D01*
X85197703Y-115276804D01*
X84803474Y-115276978D01*
X84439608Y-115276989D01*
X84106265Y-115276838D01*
X83803602Y-115276525D01*
X83531780Y-115276050D01*
X83290958Y-115275413D01*
X83081296Y-115274615D01*
X82902951Y-115273655D01*
X82756085Y-115272535D01*
X82640855Y-115271254D01*
X82557422Y-115269813D01*
X82505944Y-115268211D01*
X82486581Y-115266450D01*
X82470544Y-115255502D01*
X82458341Y-115239959D01*
X82447429Y-115230155D01*
X82416622Y-115218982D01*
X82379614Y-115201211D01*
X82340416Y-115170095D01*
X82309509Y-115135234D01*
X82296968Y-115106131D01*
X82289628Y-115089262D01*
X82264694Y-115064582D01*
X82258451Y-115059689D01*
X82244911Y-115042450D01*
X82237015Y-115014935D01*
X82233329Y-114969821D01*
X82232420Y-114899784D01*
X82232534Y-114868411D01*
X82234286Y-114809679D01*
X82239276Y-114773160D01*
X82248935Y-114751687D01*
X82264694Y-114738092D01*
X82284605Y-114721192D01*
X82296968Y-114697106D01*
X82299581Y-114686638D01*
X82320735Y-114667155D01*
X82324020Y-114665405D01*
X82342289Y-114640407D01*
X82355487Y-114599483D01*
X82356658Y-114593683D01*
X82364722Y-114568115D01*
X83178459Y-114568115D01*
X83178572Y-114568276D01*
X83197533Y-114569340D01*
X83247188Y-114570380D01*
X83326161Y-114571390D01*
X83433078Y-114572368D01*
X83566562Y-114573309D01*
X83725238Y-114574208D01*
X83907732Y-114575062D01*
X84112668Y-114575865D01*
X84338670Y-114576615D01*
X84584363Y-114577306D01*
X84848373Y-114577934D01*
X85129323Y-114578495D01*
X85425838Y-114578985D01*
X85736544Y-114579400D01*
X86060064Y-114579734D01*
X86395024Y-114579985D01*
X86740047Y-114580148D01*
X87093760Y-114580218D01*
X87113041Y-114580219D01*
X87535098Y-114580230D01*
X87926097Y-114580204D01*
X88287202Y-114580134D01*
X88619577Y-114580014D01*
X88924387Y-114579835D01*
X89202796Y-114579591D01*
X89455969Y-114579274D01*
X89685070Y-114578877D01*
X89891265Y-114578393D01*
X90075717Y-114577815D01*
X90239590Y-114577135D01*
X90384051Y-114576347D01*
X90510262Y-114575442D01*
X90619389Y-114574413D01*
X90712596Y-114573255D01*
X90791048Y-114571958D01*
X90855909Y-114570516D01*
X90908343Y-114568922D01*
X90949516Y-114567168D01*
X90980591Y-114565248D01*
X91002734Y-114563153D01*
X91017108Y-114560877D01*
X91024878Y-114558413D01*
X91027210Y-114555753D01*
X91024471Y-114543318D01*
X91003004Y-114521752D01*
X90987701Y-114507012D01*
X90978798Y-114473340D01*
X90973312Y-114446502D01*
X90954592Y-114424928D01*
X90943403Y-114418073D01*
X90930386Y-114393160D01*
X90929028Y-114383652D01*
X90915999Y-114370681D01*
X90903945Y-114360547D01*
X90891485Y-114330338D01*
X90881139Y-114303673D01*
X90866812Y-114289995D01*
X90853532Y-114276228D01*
X90841928Y-114242931D01*
X90828288Y-114207886D01*
X90808371Y-114186958D01*
X90793340Y-114171412D01*
X90785151Y-114137198D01*
X90781168Y-114110175D01*
X90769322Y-114096348D01*
X90756325Y-114086229D01*
X90743366Y-114056005D01*
X90733059Y-114029338D01*
X90718853Y-114015662D01*
X90712110Y-114012761D01*
X90704465Y-113990950D01*
X90701726Y-113978515D01*
X90680259Y-113956949D01*
X90665067Y-113942510D01*
X90656054Y-113909044D01*
X90651184Y-113884302D01*
X90633644Y-113870427D01*
X90631462Y-113870200D01*
X90613615Y-113852574D01*
X90600638Y-113813947D01*
X90599060Y-113806281D01*
X90587545Y-113771571D01*
X90574944Y-113757466D01*
X90562721Y-113747954D01*
X90550013Y-113718291D01*
X90538617Y-113691507D01*
X90517431Y-113670386D01*
X90502699Y-113654948D01*
X90494681Y-113620806D01*
X90491549Y-113593802D01*
X90482214Y-113579957D01*
X90478117Y-113578053D01*
X90460246Y-113556760D01*
X90437996Y-113519442D01*
X90430699Y-113506138D01*
X90405854Y-113467748D01*
X90385915Y-113446023D01*
X90377773Y-113438885D01*
X90365583Y-113409714D01*
X90364086Y-113399350D01*
X90351196Y-113386310D01*
X90339142Y-113376176D01*
X90326682Y-113345967D01*
X90316336Y-113319302D01*
X90302009Y-113305624D01*
X90301722Y-113305615D01*
X90288449Y-113291088D01*
X90276829Y-113257212D01*
X90276612Y-113256236D01*
X90265171Y-113222701D01*
X90252623Y-113208801D01*
X90252347Y-113208791D01*
X90239752Y-113194256D01*
X90228417Y-113160389D01*
X90228206Y-113159439D01*
X90216471Y-113125886D01*
X90203236Y-113111977D01*
X90191369Y-113102459D01*
X90178856Y-113072802D01*
X90167460Y-113046018D01*
X90146274Y-113024897D01*
X90131542Y-113009459D01*
X90123525Y-112975317D01*
X90119463Y-112948293D01*
X90107388Y-112934468D01*
X90099808Y-112931553D01*
X90091251Y-112909755D01*
X90088953Y-112898085D01*
X90068501Y-112876313D01*
X90051865Y-112861881D01*
X90035919Y-112828408D01*
X90025978Y-112802883D01*
X90011539Y-112789233D01*
X90011252Y-112789223D01*
X89997978Y-112774697D01*
X89986359Y-112740821D01*
X89986149Y-112739880D01*
X89974322Y-112706321D01*
X89960870Y-112692409D01*
X89954048Y-112689688D01*
X89946015Y-112668203D01*
X89944400Y-112657094D01*
X89931628Y-112643998D01*
X89919574Y-112633864D01*
X89907114Y-112603654D01*
X89896768Y-112576989D01*
X89882441Y-112563311D01*
X89869161Y-112549545D01*
X89857557Y-112516248D01*
X89843917Y-112481203D01*
X89824000Y-112460274D01*
X89813792Y-112453824D01*
X89800780Y-112426651D01*
X89799091Y-112415069D01*
X89786393Y-112401939D01*
X89774339Y-112391805D01*
X89761879Y-112361596D01*
X89751220Y-112334945D01*
X89735924Y-112321253D01*
X89726944Y-112315723D01*
X89720094Y-112290131D01*
X89717093Y-112271513D01*
X89698017Y-112236932D01*
X89683493Y-112218099D01*
X89664655Y-112179300D01*
X89654482Y-112157142D01*
X89639052Y-112143743D01*
X89637006Y-112143219D01*
X89624697Y-112124497D01*
X89614138Y-112087263D01*
X89613036Y-112081871D01*
X89599168Y-112045226D01*
X89581132Y-112030783D01*
X89566774Y-112022391D01*
X89558722Y-111992166D01*
X89553325Y-111965858D01*
X89534516Y-111944261D01*
X89523366Y-111937186D01*
X89510310Y-111910260D01*
X89508407Y-111898653D01*
X89494173Y-111885548D01*
X89486749Y-111882817D01*
X89478036Y-111861342D01*
X89476251Y-111850211D01*
X89462206Y-111837136D01*
X89448241Y-111824916D01*
X89435278Y-111792918D01*
X89422775Y-111758778D01*
X89402696Y-111727217D01*
X89391836Y-111713173D01*
X89381212Y-111682680D01*
X89379768Y-111672641D01*
X89366825Y-111659626D01*
X89354771Y-111649493D01*
X89342311Y-111619283D01*
X89331965Y-111592618D01*
X89317638Y-111578940D01*
X89304358Y-111565174D01*
X89292754Y-111531877D01*
X89279114Y-111496832D01*
X89259197Y-111475903D01*
X89244507Y-111461383D01*
X89235977Y-111427870D01*
X89230491Y-111401031D01*
X89211771Y-111379458D01*
X89200621Y-111372383D01*
X89187566Y-111345457D01*
X89185700Y-111333855D01*
X89171736Y-111320745D01*
X89158739Y-111310625D01*
X89145781Y-111280402D01*
X89135474Y-111253735D01*
X89121267Y-111240059D01*
X89111808Y-111230051D01*
X89106879Y-111199715D01*
X89102236Y-111173883D01*
X89087091Y-111163407D01*
X89073375Y-111157779D01*
X89061763Y-111131132D01*
X89053283Y-111108559D01*
X89033140Y-111094823D01*
X89018097Y-111086386D01*
X89010056Y-111054480D01*
X89006050Y-111027947D01*
X88993919Y-111014137D01*
X88986339Y-111011223D01*
X88977782Y-110989425D01*
X88975043Y-110976990D01*
X88953576Y-110955424D01*
X88938383Y-110940985D01*
X88929370Y-110907519D01*
X88924500Y-110882777D01*
X88906960Y-110868902D01*
X88904778Y-110868675D01*
X88886932Y-110851049D01*
X88873954Y-110812422D01*
X88872380Y-110804740D01*
X88861125Y-110770041D01*
X88849040Y-110755942D01*
X88837642Y-110748142D01*
X88823436Y-110720385D01*
X88813116Y-110696301D01*
X88790074Y-110662753D01*
X88778622Y-110647933D01*
X88767998Y-110617622D01*
X88766504Y-110607576D01*
X88753143Y-110594569D01*
X88752852Y-110594560D01*
X88739364Y-110580036D01*
X88727655Y-110546158D01*
X88727445Y-110545216D01*
X88715618Y-110511657D01*
X88702167Y-110497746D01*
X88695200Y-110494841D01*
X88687312Y-110473034D01*
X88685014Y-110461363D01*
X88664562Y-110439592D01*
X88647280Y-110423980D01*
X88631491Y-110389737D01*
X88619974Y-110359077D01*
X88597760Y-110325203D01*
X88583658Y-110303138D01*
X88574351Y-110262603D01*
X88569652Y-110237377D01*
X88550145Y-110223413D01*
X88536029Y-110217423D01*
X88525939Y-110191139D01*
X88522913Y-110172380D01*
X88509802Y-110158864D01*
X88502378Y-110156133D01*
X88493665Y-110134658D01*
X88491880Y-110123528D01*
X88477835Y-110110452D01*
X88465141Y-110100947D01*
X88452173Y-110071277D01*
X88440777Y-110044493D01*
X88419591Y-110023372D01*
X88404859Y-110007934D01*
X88396841Y-109973792D01*
X88392780Y-109946768D01*
X88380704Y-109932943D01*
X88373125Y-109930029D01*
X88364567Y-109908231D01*
X88362270Y-109896560D01*
X88341817Y-109874788D01*
X88325181Y-109860356D01*
X88309236Y-109826883D01*
X88299295Y-109801358D01*
X88284856Y-109787708D01*
X88284568Y-109787699D01*
X88271295Y-109773172D01*
X88259675Y-109739296D01*
X88259455Y-109738307D01*
X88248155Y-109704780D01*
X88235936Y-109690884D01*
X88224722Y-109680737D01*
X88212705Y-109650541D01*
X88202359Y-109623876D01*
X88188032Y-109610198D01*
X88187745Y-109610189D01*
X88174471Y-109595662D01*
X88162852Y-109561787D01*
X88162642Y-109560845D01*
X88150815Y-109527286D01*
X88137364Y-109513375D01*
X88130397Y-109510470D01*
X88122508Y-109488663D01*
X88120211Y-109476992D01*
X88099759Y-109455220D01*
X88083123Y-109440788D01*
X88067177Y-109407315D01*
X88056933Y-109381804D01*
X88041515Y-109368140D01*
X88031105Y-109358125D01*
X88025685Y-109327797D01*
X88021679Y-109301264D01*
X88009548Y-109287454D01*
X88001968Y-109284539D01*
X87993411Y-109262741D01*
X87991114Y-109251071D01*
X87970661Y-109229299D01*
X87954025Y-109214867D01*
X87938079Y-109181394D01*
X87928138Y-109155869D01*
X87913699Y-109142219D01*
X87912658Y-109142094D01*
X87899503Y-109125869D01*
X87887833Y-109090687D01*
X87873460Y-109048096D01*
X87854277Y-109016917D01*
X87842583Y-109002015D01*
X87832038Y-108973352D01*
X87829268Y-108962411D01*
X87807832Y-108942736D01*
X87796682Y-108935661D01*
X87783627Y-108908735D01*
X87781813Y-108897139D01*
X87768221Y-108884023D01*
X87766284Y-108883618D01*
X87753253Y-108865461D01*
X87742429Y-108828660D01*
X87741377Y-108823527D01*
X87727429Y-108785078D01*
X87709423Y-108764618D01*
X87699545Y-108758331D01*
X87686803Y-108731226D01*
X87685057Y-108719637D01*
X87671948Y-108706513D01*
X87671657Y-108706504D01*
X87658170Y-108691980D01*
X87646460Y-108658102D01*
X87646249Y-108657152D01*
X87634514Y-108623599D01*
X87621280Y-108609690D01*
X87609265Y-108599863D01*
X87596752Y-108569925D01*
X87583404Y-108542458D01*
X87556119Y-108520432D01*
X87531638Y-108499171D01*
X87515318Y-108447236D01*
X87513747Y-108438441D01*
X87500514Y-108398670D01*
X87483025Y-108383769D01*
X87468820Y-108375205D01*
X87460882Y-108345152D01*
X87455485Y-108318844D01*
X87436676Y-108297247D01*
X87425526Y-108290172D01*
X87412470Y-108263246D01*
X87410567Y-108251639D01*
X87396333Y-108238534D01*
X87385720Y-108228518D01*
X87380196Y-108198191D01*
X87375458Y-108171876D01*
X87355990Y-108157848D01*
X87342179Y-108152247D01*
X87331784Y-108126726D01*
X87328189Y-108106609D01*
X87308375Y-108072195D01*
X87291578Y-108048683D01*
X87274644Y-108007661D01*
X87262438Y-107978819D01*
X87241573Y-107957806D01*
X87231641Y-107951500D01*
X87218824Y-107924364D01*
X87216921Y-107912757D01*
X87202686Y-107899652D01*
X87195421Y-107897097D01*
X87186549Y-107875943D01*
X87185169Y-107864435D01*
X87174127Y-107830946D01*
X87156061Y-107793201D01*
X87135841Y-107759707D01*
X87118339Y-107738971D01*
X87108426Y-107739500D01*
X87095359Y-107765512D01*
X87071179Y-107800970D01*
X87050806Y-107834896D01*
X87041314Y-107867827D01*
X87038007Y-107883367D01*
X87017108Y-107905488D01*
X87005958Y-107912562D01*
X86992902Y-107939489D01*
X86991213Y-107951071D01*
X86978515Y-107964201D01*
X86966461Y-107974335D01*
X86954001Y-108004544D01*
X86943655Y-108031209D01*
X86929328Y-108044887D01*
X86929041Y-108044896D01*
X86915767Y-108059423D01*
X86904148Y-108093299D01*
X86903938Y-108094240D01*
X86892111Y-108127799D01*
X86878660Y-108141710D01*
X86871838Y-108144431D01*
X86863805Y-108165916D01*
X86861984Y-108177052D01*
X86847667Y-108190122D01*
X86840088Y-108193036D01*
X86831530Y-108214834D01*
X86828791Y-108227269D01*
X86807324Y-108248835D01*
X86794179Y-108258891D01*
X86783118Y-108289178D01*
X86779502Y-108307467D01*
X86760816Y-108328791D01*
X86756778Y-108331228D01*
X86740304Y-108357242D01*
X86728632Y-108399141D01*
X86726573Y-108409898D01*
X86712506Y-108449510D01*
X86694455Y-108470256D01*
X86683217Y-108477388D01*
X86670158Y-108504292D01*
X86668293Y-108515894D01*
X86654328Y-108529004D01*
X86641331Y-108539123D01*
X86628373Y-108569347D01*
X86618380Y-108596029D01*
X86605142Y-108609690D01*
X86604872Y-108609700D01*
X86592602Y-108624239D01*
X86581403Y-108658102D01*
X86581193Y-108659043D01*
X86569366Y-108692602D01*
X86555915Y-108706513D01*
X86549710Y-108708558D01*
X86541060Y-108728743D01*
X86537812Y-108742754D01*
X86517891Y-108770201D01*
X86499794Y-108794917D01*
X86484631Y-108835378D01*
X86471395Y-108869255D01*
X86451319Y-108890237D01*
X86441048Y-108896374D01*
X86428099Y-108920297D01*
X86421141Y-108938499D01*
X86396419Y-108964281D01*
X86372053Y-108992749D01*
X86354108Y-109035513D01*
X86340859Y-109074506D01*
X86321240Y-109106148D01*
X86309626Y-109121179D01*
X86299001Y-109151440D01*
X86297673Y-109161463D01*
X86285725Y-109174493D01*
X86278661Y-109179223D01*
X86259377Y-109205495D01*
X86236181Y-109247111D01*
X86222408Y-109272744D01*
X86200118Y-109306507D01*
X86184909Y-109319728D01*
X86175043Y-109329738D01*
X86169904Y-109360071D01*
X86164992Y-109386403D01*
X86147494Y-109400414D01*
X86145312Y-109400642D01*
X86127465Y-109418267D01*
X86114488Y-109456895D01*
X86112911Y-109464564D01*
X86101447Y-109499271D01*
X86088948Y-109513375D01*
X86087540Y-109513588D01*
X86073324Y-109530391D01*
X86059734Y-109565821D01*
X86058207Y-109571071D01*
X86043131Y-109603254D01*
X86026998Y-109614233D01*
X86014721Y-109621822D01*
X86008531Y-109650541D01*
X86004996Y-109677064D01*
X85994276Y-109690884D01*
X85984967Y-109695353D01*
X85969669Y-109719125D01*
X85959517Y-109743900D01*
X85936102Y-109788806D01*
X85912466Y-109822709D01*
X85894690Y-109836119D01*
X85887680Y-109838843D01*
X85879433Y-109860325D01*
X85877613Y-109871461D01*
X85863296Y-109884531D01*
X85854414Y-109889485D01*
X85847159Y-109914336D01*
X85838318Y-109944974D01*
X85814885Y-109981355D01*
X85792492Y-110013294D01*
X85782610Y-110040304D01*
X85781321Y-110049136D01*
X85767755Y-110062041D01*
X85754260Y-110075805D01*
X85742563Y-110109104D01*
X85728923Y-110144149D01*
X85709006Y-110165078D01*
X85698765Y-110171354D01*
X85685787Y-110196725D01*
X85682101Y-110211807D01*
X85661581Y-110239550D01*
X85647013Y-110259418D01*
X85637375Y-110298006D01*
X85633590Y-110322626D01*
X85621238Y-110336374D01*
X85613658Y-110339288D01*
X85605101Y-110361086D01*
X85602362Y-110373521D01*
X85580895Y-110395087D01*
X85569684Y-110401830D01*
X85556689Y-110425702D01*
X85553344Y-110440261D01*
X85534451Y-110469267D01*
X85515869Y-110498964D01*
X85501139Y-110541922D01*
X85486769Y-110582654D01*
X85466897Y-110611567D01*
X85455056Y-110624384D01*
X85443728Y-110651938D01*
X85438383Y-110665540D01*
X85413147Y-110682787D01*
X85389179Y-110702945D01*
X85372072Y-110748423D01*
X85370598Y-110755604D01*
X85359017Y-110790255D01*
X85346174Y-110804353D01*
X85338944Y-110807262D01*
X85330768Y-110829066D01*
X85328029Y-110841500D01*
X85306562Y-110863067D01*
X85293997Y-110872187D01*
X85282356Y-110901751D01*
X85279308Y-110919656D01*
X85260279Y-110953223D01*
X85245755Y-110972056D01*
X85226917Y-111010856D01*
X85216591Y-111033001D01*
X85200582Y-111046412D01*
X85196205Y-111047177D01*
X85185533Y-111064038D01*
X85185524Y-111064456D01*
X85175805Y-111088987D01*
X85153258Y-111122695D01*
X85130842Y-111161965D01*
X85120984Y-111201892D01*
X85117294Y-111226316D01*
X85105154Y-111240059D01*
X85092460Y-111249564D01*
X85079492Y-111279234D01*
X85068096Y-111306018D01*
X85046910Y-111327139D01*
X85036977Y-111333446D01*
X85024160Y-111360581D01*
X85022257Y-111372188D01*
X85008023Y-111385294D01*
X84997911Y-111393256D01*
X84991628Y-111421602D01*
X84990068Y-111432270D01*
X84972995Y-111471028D01*
X84943216Y-111512544D01*
X84930287Y-111528025D01*
X84905078Y-111564430D01*
X84895062Y-111589196D01*
X84893606Y-111598310D01*
X84878925Y-111611215D01*
X84871346Y-111614129D01*
X84862788Y-111635927D01*
X84860503Y-111647596D01*
X84840168Y-111669319D01*
X84838042Y-111670353D01*
X84820138Y-111693707D01*
X84807163Y-111733362D01*
X84805799Y-111740077D01*
X84794680Y-111774643D01*
X84782653Y-111788724D01*
X84769670Y-111802495D01*
X84758192Y-111835788D01*
X84744552Y-111870833D01*
X84724635Y-111891762D01*
X84714427Y-111898211D01*
X84701416Y-111925384D01*
X84699550Y-111936987D01*
X84685586Y-111950097D01*
X84672589Y-111960216D01*
X84659631Y-111990440D01*
X84649324Y-112017107D01*
X84635117Y-112030783D01*
X84626762Y-112036824D01*
X84620730Y-112063057D01*
X84616237Y-112081878D01*
X84596524Y-112095332D01*
X84580943Y-112102940D01*
X84572318Y-112134522D01*
X84567393Y-112162979D01*
X84547896Y-112198134D01*
X84528513Y-112228254D01*
X84513604Y-112271905D01*
X84513300Y-112273375D01*
X84499799Y-112307240D01*
X84481546Y-112321253D01*
X84467051Y-112330242D01*
X84459357Y-112361596D01*
X84452391Y-112392484D01*
X84427083Y-112401939D01*
X84403431Y-112409461D01*
X84394808Y-112439813D01*
X84386212Y-112475394D01*
X84362534Y-112514900D01*
X84340141Y-112546839D01*
X84330259Y-112573849D01*
X84328880Y-112582699D01*
X84314430Y-112595586D01*
X84300465Y-112607806D01*
X84287502Y-112639803D01*
X84274999Y-112673944D01*
X84254920Y-112705505D01*
X84244060Y-112719549D01*
X84233436Y-112750042D01*
X84231806Y-112760109D01*
X84217299Y-112773095D01*
X84209719Y-112776010D01*
X84201162Y-112797808D01*
X84198782Y-112809585D01*
X84177942Y-112831430D01*
X84159299Y-112850053D01*
X84144630Y-112886289D01*
X84131903Y-112921976D01*
X84111370Y-112951466D01*
X84099839Y-112964817D01*
X84088201Y-112999017D01*
X84084660Y-113016659D01*
X84063995Y-113047428D01*
X84051174Y-113061466D01*
X84039789Y-113089747D01*
X84038468Y-113099025D01*
X84025401Y-113111977D01*
X84013348Y-113122111D01*
X84000888Y-113152320D01*
X83990229Y-113178971D01*
X83974933Y-113192663D01*
X83965734Y-113198713D01*
X83959103Y-113224938D01*
X83954610Y-113243759D01*
X83934897Y-113257212D01*
X83919108Y-113265108D01*
X83910691Y-113297555D01*
X83906685Y-113324088D01*
X83894554Y-113337898D01*
X83886975Y-113340813D01*
X83878417Y-113362611D01*
X83876120Y-113374282D01*
X83855667Y-113396053D01*
X83839031Y-113410485D01*
X83823086Y-113443958D01*
X83812842Y-113469469D01*
X83797423Y-113483133D01*
X83788443Y-113488663D01*
X83781594Y-113514255D01*
X83778593Y-113532873D01*
X83759517Y-113567454D01*
X83743598Y-113588833D01*
X83725113Y-113628369D01*
X83713096Y-113656453D01*
X83690710Y-113689283D01*
X83679257Y-113704103D01*
X83668633Y-113734413D01*
X83667003Y-113744480D01*
X83652496Y-113757466D01*
X83644916Y-113760381D01*
X83636359Y-113782179D01*
X83633620Y-113794613D01*
X83612153Y-113816180D01*
X83600813Y-113822338D01*
X83587947Y-113840878D01*
X83585564Y-113854086D01*
X83571225Y-113892092D01*
X83548411Y-113939849D01*
X83522343Y-113987471D01*
X83498243Y-114025071D01*
X83481330Y-114042763D01*
X83471766Y-114048471D01*
X83458849Y-114072716D01*
X83455504Y-114087275D01*
X83436611Y-114116281D01*
X83417733Y-114146790D01*
X83403054Y-114190051D01*
X83402230Y-114193643D01*
X83390187Y-114227620D01*
X83377188Y-114241583D01*
X83365321Y-114251101D01*
X83352808Y-114280759D01*
X83341412Y-114307542D01*
X83320226Y-114328664D01*
X83310294Y-114334971D01*
X83297477Y-114362106D01*
X83295574Y-114373713D01*
X83281339Y-114386818D01*
X83275294Y-114388313D01*
X83265202Y-114407229D01*
X83262542Y-114420953D01*
X83247021Y-114459418D01*
X83223384Y-114505018D01*
X83198306Y-114545377D01*
X83178459Y-114568115D01*
X82364722Y-114568115D01*
X82370696Y-114549171D01*
X82388200Y-114519203D01*
X82399386Y-114504953D01*
X82409929Y-114476147D01*
X82412700Y-114465207D01*
X82434135Y-114445532D01*
X82445285Y-114438457D01*
X82458341Y-114411531D01*
X82460087Y-114399942D01*
X82473196Y-114386818D01*
X82473487Y-114386809D01*
X82486974Y-114372285D01*
X82498684Y-114338407D01*
X82498904Y-114337417D01*
X82510203Y-114303891D01*
X82522422Y-114289995D01*
X82533637Y-114279848D01*
X82545654Y-114249652D01*
X82556134Y-114222993D01*
X82570878Y-114209309D01*
X82572899Y-114208848D01*
X82585713Y-114190417D01*
X82596464Y-114153403D01*
X82597228Y-114149564D01*
X82611234Y-114106762D01*
X82629470Y-114078810D01*
X82640618Y-114066623D01*
X82651987Y-114037892D01*
X82653449Y-114028589D01*
X82667817Y-114015662D01*
X82680814Y-114005542D01*
X82693773Y-113975319D01*
X82704080Y-113948652D01*
X82718286Y-113934976D01*
X82724889Y-113932258D01*
X82732674Y-113910770D01*
X82734458Y-113899639D01*
X82748503Y-113886564D01*
X82762375Y-113874555D01*
X82775335Y-113842729D01*
X82775885Y-113840557D01*
X82787104Y-113806897D01*
X82805712Y-113776345D01*
X82839471Y-113735982D01*
X82851887Y-113717805D01*
X82868799Y-113680062D01*
X82878759Y-113657887D01*
X82893384Y-113644506D01*
X82904726Y-113634361D01*
X82916810Y-113604163D01*
X82927156Y-113577498D01*
X82941483Y-113563820D01*
X82941770Y-113563810D01*
X82955044Y-113549284D01*
X82966663Y-113515408D01*
X82966881Y-113514432D01*
X82978321Y-113480896D01*
X82990869Y-113466996D01*
X82991145Y-113466986D01*
X83003740Y-113452451D01*
X83015075Y-113418585D01*
X83015291Y-113417612D01*
X83026777Y-113384074D01*
X83039431Y-113370173D01*
X83046645Y-113365451D01*
X83066138Y-113339180D01*
X83089421Y-113297555D01*
X83103129Y-113271840D01*
X83124766Y-113238134D01*
X83138965Y-113224938D01*
X83146672Y-113218903D01*
X83152242Y-113192663D01*
X83156734Y-113173842D01*
X83176447Y-113160389D01*
X83192236Y-113152493D01*
X83200653Y-113120046D01*
X83204222Y-113093523D01*
X83215041Y-113079703D01*
X83227095Y-113069569D01*
X83239554Y-113039360D01*
X83250214Y-113012709D01*
X83265510Y-112999017D01*
X83272942Y-112996105D01*
X83281339Y-112974304D01*
X83283595Y-112962641D01*
X83303642Y-112941034D01*
X83308174Y-112938154D01*
X83324474Y-112911420D01*
X83336107Y-112868923D01*
X83338666Y-112855159D01*
X83349579Y-112819616D01*
X83361336Y-112805370D01*
X83369635Y-112801349D01*
X83391174Y-112775870D01*
X83415367Y-112735036D01*
X83436124Y-112688375D01*
X83443767Y-112673148D01*
X83459449Y-112660135D01*
X83459717Y-112660125D01*
X83471894Y-112645584D01*
X83483055Y-112611723D01*
X83483266Y-112610773D01*
X83495001Y-112577220D01*
X83508235Y-112563311D01*
X83520394Y-112553179D01*
X83532908Y-112522968D01*
X83542902Y-112496286D01*
X83556140Y-112482625D01*
X83556410Y-112482615D01*
X83568679Y-112468076D01*
X83579878Y-112434214D01*
X83580093Y-112433248D01*
X83591655Y-112399705D01*
X83604486Y-112385802D01*
X83613199Y-112381047D01*
X83634344Y-112354829D01*
X83658050Y-112314170D01*
X83678182Y-112268807D01*
X83686009Y-112253609D01*
X83702790Y-112240567D01*
X83711068Y-112234527D01*
X83717045Y-112208292D01*
X83719863Y-112189543D01*
X83732094Y-112176018D01*
X83743940Y-112168228D01*
X83758429Y-112140462D01*
X83768749Y-112116377D01*
X83791791Y-112082829D01*
X83803244Y-112068009D01*
X83813868Y-112037699D01*
X83815498Y-112027632D01*
X83830005Y-112014646D01*
X83839385Y-112008594D01*
X83846143Y-111982371D01*
X83850635Y-111963550D01*
X83870348Y-111950097D01*
X83886226Y-111942073D01*
X83894554Y-111909247D01*
X83900112Y-111880670D01*
X83917774Y-111859487D01*
X83936417Y-111840865D01*
X83951086Y-111804629D01*
X83963813Y-111768941D01*
X83984346Y-111739452D01*
X83996139Y-111726548D01*
X84007515Y-111697994D01*
X84008881Y-111688708D01*
X84022370Y-111675764D01*
X84022661Y-111675755D01*
X84036148Y-111661230D01*
X84047858Y-111627352D01*
X84048078Y-111626363D01*
X84059378Y-111592836D01*
X84071597Y-111578940D01*
X84082811Y-111568793D01*
X84094828Y-111538597D01*
X84105487Y-111511947D01*
X84120783Y-111498254D01*
X84126677Y-111496784D01*
X84136613Y-111477918D01*
X84136928Y-111475039D01*
X84150197Y-111448080D01*
X84176956Y-111414073D01*
X84181575Y-111408925D01*
X84206950Y-111373262D01*
X84217299Y-111345148D01*
X84220032Y-111332403D01*
X84241505Y-111310443D01*
X84254069Y-111301323D01*
X84265710Y-111271759D01*
X84268758Y-111253854D01*
X84287787Y-111220287D01*
X84303706Y-111198908D01*
X84322191Y-111159372D01*
X84334208Y-111131287D01*
X84356594Y-111098458D01*
X84367673Y-111083149D01*
X84378671Y-111045259D01*
X84383027Y-111027503D01*
X84402877Y-111014137D01*
X84418666Y-111006241D01*
X84427083Y-110973794D01*
X84431089Y-110947261D01*
X84443220Y-110933451D01*
X84447471Y-110932856D01*
X84459357Y-110916660D01*
X84460818Y-110909897D01*
X84475619Y-110880135D01*
X84499851Y-110842335D01*
X84525382Y-110808568D01*
X84544078Y-110790906D01*
X84550516Y-110783451D01*
X84556181Y-110755749D01*
X84559218Y-110737686D01*
X84578257Y-110703896D01*
X84594462Y-110681949D01*
X84612840Y-110642228D01*
X84626299Y-110613171D01*
X84654232Y-110577476D01*
X84674711Y-110552288D01*
X84693723Y-110510060D01*
X84706392Y-110480029D01*
X84727078Y-110459077D01*
X84737010Y-110452770D01*
X84749827Y-110425635D01*
X84751730Y-110414028D01*
X84765965Y-110400923D01*
X84775438Y-110394638D01*
X84782102Y-110368142D01*
X84786374Y-110347962D01*
X84806308Y-110326072D01*
X84821610Y-110311332D01*
X84830514Y-110277660D01*
X84835683Y-110250916D01*
X84853263Y-110229808D01*
X84869899Y-110215375D01*
X84885845Y-110181902D01*
X84895786Y-110156377D01*
X84910225Y-110142727D01*
X84911266Y-110142602D01*
X84924422Y-110126377D01*
X84936091Y-110091195D01*
X84950464Y-110048604D01*
X84969647Y-110017425D01*
X84981261Y-110002394D01*
X84991886Y-109972133D01*
X84993396Y-109962085D01*
X85006891Y-109949080D01*
X85014534Y-109944381D01*
X85034630Y-109918114D01*
X85058163Y-109876463D01*
X85071871Y-109850747D01*
X85093508Y-109817041D01*
X85107707Y-109803845D01*
X85116248Y-109794734D01*
X85120984Y-109765228D01*
X85126380Y-109738921D01*
X85145190Y-109717323D01*
X85156340Y-109710248D01*
X85169395Y-109683322D01*
X85171298Y-109671715D01*
X85185533Y-109658610D01*
X85195006Y-109652325D01*
X85201670Y-109625829D01*
X85205699Y-109605715D01*
X85224419Y-109584318D01*
X85241516Y-109569051D01*
X85257348Y-109535032D01*
X85258776Y-109529538D01*
X85270032Y-109498982D01*
X85290059Y-109468224D01*
X85325937Y-109426009D01*
X85340521Y-109402922D01*
X85355760Y-109362682D01*
X85367597Y-109331905D01*
X85388831Y-109302277D01*
X85400083Y-109289974D01*
X85411454Y-109261272D01*
X85412775Y-109251994D01*
X85425842Y-109239042D01*
X85437896Y-109228908D01*
X85450355Y-109198699D01*
X85461015Y-109172048D01*
X85476310Y-109158356D01*
X85485509Y-109152306D01*
X85492140Y-109126081D01*
X85496325Y-109107257D01*
X85514283Y-109093807D01*
X85517305Y-109093373D01*
X85534365Y-109073907D01*
X85546467Y-109031019D01*
X85548722Y-109019340D01*
X85562857Y-108979619D01*
X85580804Y-108958908D01*
X85592057Y-108951867D01*
X85605101Y-108925788D01*
X85611006Y-108907438D01*
X85634920Y-108880904D01*
X85638032Y-108878434D01*
X85660578Y-108845927D01*
X85675702Y-108800861D01*
X85677459Y-108792567D01*
X85692065Y-108753444D01*
X85710432Y-108732784D01*
X85721162Y-108725987D01*
X85734198Y-108698951D01*
X85736064Y-108687349D01*
X85750028Y-108674239D01*
X85763025Y-108664119D01*
X85775983Y-108633896D01*
X85785977Y-108607214D01*
X85799215Y-108593553D01*
X85799485Y-108593543D01*
X85811754Y-108579004D01*
X85822953Y-108545141D01*
X85823166Y-108544187D01*
X85834850Y-108510637D01*
X85847968Y-108496729D01*
X85858374Y-108488250D01*
X85879297Y-108457498D01*
X85903836Y-108412009D01*
X85918644Y-108382090D01*
X85952340Y-108317886D01*
X85979531Y-108273630D01*
X86004497Y-108242097D01*
X86014456Y-108228206D01*
X86024669Y-108197038D01*
X86026299Y-108186971D01*
X86040806Y-108173985D01*
X86049962Y-108168453D01*
X86056943Y-108142863D01*
X86060907Y-108121886D01*
X86081149Y-108087535D01*
X86095285Y-108071522D01*
X86105355Y-108053427D01*
X86108590Y-108043820D01*
X86127383Y-108017429D01*
X86165869Y-107972862D01*
X86176765Y-107955299D01*
X86186041Y-107916435D01*
X86190549Y-107895043D01*
X86210247Y-107873213D01*
X86223392Y-107863157D01*
X86234453Y-107832870D01*
X86238209Y-107814546D01*
X86257672Y-107792905D01*
X86276623Y-107773588D01*
X86291229Y-107736931D01*
X86302772Y-107703751D01*
X86316113Y-107689868D01*
X86328272Y-107679736D01*
X86340787Y-107649525D01*
X86350780Y-107622843D01*
X86364018Y-107609182D01*
X86364288Y-107609172D01*
X86376557Y-107594633D01*
X86387756Y-107560770D01*
X86387966Y-107559829D01*
X86399793Y-107526270D01*
X86413244Y-107512358D01*
X86417126Y-107511773D01*
X86428099Y-107495568D01*
X86429155Y-107490427D01*
X86442770Y-107462401D01*
X86466125Y-107424643D01*
X86491592Y-107388911D01*
X86511540Y-107366962D01*
X86521834Y-107349601D01*
X86533461Y-107314516D01*
X86545086Y-107284061D01*
X86558947Y-107270300D01*
X86565550Y-107267582D01*
X86573334Y-107246094D01*
X86575155Y-107234959D01*
X86589472Y-107221888D01*
X86598945Y-107215604D01*
X86605609Y-107189107D01*
X86609716Y-107168972D01*
X86628829Y-107147416D01*
X86629124Y-107147299D01*
X86648609Y-107126134D01*
X86663071Y-107088322D01*
X86676965Y-107047274D01*
X86696331Y-107015900D01*
X86707945Y-107000870D01*
X86718569Y-106970609D01*
X86720205Y-106960541D01*
X86734755Y-106947555D01*
X86739852Y-106945405D01*
X86758186Y-106922930D01*
X86778519Y-106883897D01*
X86807157Y-106835956D01*
X86846892Y-106810000D01*
X86875869Y-106798968D01*
X86899363Y-106780869D01*
X86906980Y-106775580D01*
X86944100Y-106767972D01*
X87011640Y-106763463D01*
X87110461Y-106761977D01*
X87195002Y-106762595D01*
X87255712Y-106764994D01*
X87295855Y-106769907D01*
X87321351Y-106778070D01*
X87338124Y-106790217D01*
X87360791Y-106807823D01*
X87389417Y-106818457D01*
X87402871Y-106824565D01*
X87412470Y-106850732D01*
X87416916Y-106869573D01*
X87435945Y-106883006D01*
X87437035Y-106883052D01*
X87456333Y-106899345D01*
X87470015Y-106939487D01*
X87471117Y-106944879D01*
X87484985Y-106981523D01*
X87503021Y-106995967D01*
X87517379Y-107004359D01*
X87525431Y-107034584D01*
X87530828Y-107060891D01*
X87549637Y-107082489D01*
X87560787Y-107089564D01*
X87573843Y-107116490D01*
X87575532Y-107128072D01*
X87588230Y-107141202D01*
X87600284Y-107151336D01*
X87612744Y-107181545D01*
X87623090Y-107208210D01*
X87637417Y-107221888D01*
X87637704Y-107221897D01*
X87650978Y-107236424D01*
X87662597Y-107270300D01*
X87662808Y-107271246D01*
X87674578Y-107304802D01*
X87687895Y-107318712D01*
X87691495Y-107320402D01*
X87703190Y-107342913D01*
X87712881Y-107383261D01*
X87714578Y-107392739D01*
X87727880Y-107432858D01*
X87745346Y-107447809D01*
X87757260Y-107452350D01*
X87767489Y-107476521D01*
X87774253Y-107499076D01*
X87799170Y-107528068D01*
X87821899Y-107553230D01*
X87840499Y-107594831D01*
X87852992Y-107626588D01*
X87873367Y-107647670D01*
X87888399Y-107663215D01*
X87896587Y-107697430D01*
X87901342Y-107724224D01*
X87920793Y-107738280D01*
X87934909Y-107744270D01*
X87944999Y-107770554D01*
X87948025Y-107789313D01*
X87961136Y-107802829D01*
X87970609Y-107809113D01*
X87977273Y-107835609D01*
X87981302Y-107855724D01*
X88000023Y-107877120D01*
X88016659Y-107891553D01*
X88032605Y-107925025D01*
X88042546Y-107950551D01*
X88056985Y-107964201D01*
X88057272Y-107964210D01*
X88070545Y-107978737D01*
X88082165Y-108012613D01*
X88082375Y-108013554D01*
X88094202Y-108047113D01*
X88107653Y-108061024D01*
X88114620Y-108063929D01*
X88122508Y-108085737D01*
X88124888Y-108097514D01*
X88145728Y-108119359D01*
X88164679Y-108138677D01*
X88179285Y-108175333D01*
X88190916Y-108208510D01*
X88204477Y-108222396D01*
X88210950Y-108224715D01*
X88219332Y-108245450D01*
X88221980Y-108259720D01*
X88239503Y-108290509D01*
X88247303Y-108299373D01*
X88285245Y-108352519D01*
X88310437Y-108403940D01*
X88317742Y-108419056D01*
X88334175Y-108432180D01*
X88342453Y-108438221D01*
X88348430Y-108464455D01*
X88352922Y-108483276D01*
X88372636Y-108496729D01*
X88388513Y-108504753D01*
X88396841Y-108537579D01*
X88402291Y-108566123D01*
X88419591Y-108587158D01*
X88436873Y-108602770D01*
X88452662Y-108637013D01*
X88464179Y-108667673D01*
X88486393Y-108701547D01*
X88500495Y-108723611D01*
X88509802Y-108764146D01*
X88514388Y-108788895D01*
X88529590Y-108799302D01*
X88543307Y-108804930D01*
X88554919Y-108831577D01*
X88561271Y-108854181D01*
X88573724Y-108867886D01*
X88585043Y-108878031D01*
X88597115Y-108908229D01*
X88607774Y-108934879D01*
X88623070Y-108948572D01*
X88630502Y-108951484D01*
X88638900Y-108973284D01*
X88641639Y-108985719D01*
X88663106Y-109007285D01*
X88678408Y-109022025D01*
X88687312Y-109055697D01*
X88692481Y-109082441D01*
X88710061Y-109103550D01*
X88727704Y-109119850D01*
X88743415Y-109154533D01*
X88756497Y-109186636D01*
X88782907Y-109221949D01*
X88802911Y-109245240D01*
X88824299Y-109286701D01*
X88836656Y-109315686D01*
X88858881Y-109348368D01*
X88870334Y-109363188D01*
X88880958Y-109393498D01*
X88882588Y-109403565D01*
X88897096Y-109416552D01*
X88904675Y-109419466D01*
X88913233Y-109441264D01*
X88915972Y-109453699D01*
X88937439Y-109475265D01*
X88952741Y-109490005D01*
X88961644Y-109523676D01*
X88967131Y-109550515D01*
X88985850Y-109572088D01*
X88997061Y-109578831D01*
X89010056Y-109602704D01*
X89013330Y-109617118D01*
X89032133Y-109646107D01*
X89048052Y-109667486D01*
X89066536Y-109707022D01*
X89078554Y-109735107D01*
X89100940Y-109767936D01*
X89112018Y-109783245D01*
X89123017Y-109821135D01*
X89127373Y-109838892D01*
X89147223Y-109852257D01*
X89163012Y-109860153D01*
X89171428Y-109892600D01*
X89175435Y-109919133D01*
X89187566Y-109932943D01*
X89195145Y-109935857D01*
X89203703Y-109957655D01*
X89206442Y-109970090D01*
X89227909Y-109991656D01*
X89239244Y-109997830D01*
X89252115Y-110016508D01*
X89256532Y-110029862D01*
X89276320Y-110056277D01*
X89289553Y-110074606D01*
X89300526Y-110111605D01*
X89303395Y-110129263D01*
X89316663Y-110142727D01*
X89323710Y-110145055D01*
X89332801Y-110165780D01*
X89336025Y-110180964D01*
X89354878Y-110210910D01*
X89369402Y-110229744D01*
X89388239Y-110268543D01*
X89398298Y-110290710D01*
X89413292Y-110304099D01*
X89413570Y-110304109D01*
X89426300Y-110318642D01*
X89437693Y-110352511D01*
X89437902Y-110353452D01*
X89449730Y-110387011D01*
X89463181Y-110400923D01*
X89470147Y-110403827D01*
X89478036Y-110425635D01*
X89480415Y-110437413D01*
X89501256Y-110459257D01*
X89520206Y-110478575D01*
X89534812Y-110515231D01*
X89546444Y-110548409D01*
X89560004Y-110562295D01*
X89566478Y-110564613D01*
X89574859Y-110585348D01*
X89577507Y-110599619D01*
X89595031Y-110630407D01*
X89628930Y-110674816D01*
X89677864Y-110766075D01*
X89679293Y-110769186D01*
X89700014Y-110806190D01*
X89718448Y-110827542D01*
X89729464Y-110842639D01*
X89736231Y-110876836D01*
X89741322Y-110901562D01*
X89767384Y-110925027D01*
X89791549Y-110944504D01*
X89809010Y-110982594D01*
X89809084Y-110982931D01*
X89820737Y-111016379D01*
X89834030Y-111030275D01*
X89845897Y-111039792D01*
X89858410Y-111069450D01*
X89869806Y-111096234D01*
X89890991Y-111117355D01*
X89905723Y-111132793D01*
X89913741Y-111166935D01*
X89917359Y-111193949D01*
X89928129Y-111207784D01*
X89940183Y-111217918D01*
X89952642Y-111248127D01*
X89963302Y-111274778D01*
X89978597Y-111288470D01*
X89986029Y-111291382D01*
X89994427Y-111313183D01*
X89996806Y-111324960D01*
X90017647Y-111346805D01*
X90036597Y-111366123D01*
X90051204Y-111402779D01*
X90062466Y-111435968D01*
X90075113Y-111449842D01*
X90075389Y-111449852D01*
X90087984Y-111464387D01*
X90099319Y-111498254D01*
X90099535Y-111499225D01*
X90111035Y-111532764D01*
X90123720Y-111546666D01*
X90134948Y-111554840D01*
X90148818Y-111582975D01*
X90157916Y-111607056D01*
X90170077Y-111627352D01*
X90190412Y-111652154D01*
X90213911Y-111691149D01*
X90230768Y-111728210D01*
X90238072Y-111743326D01*
X90254505Y-111756450D01*
X90261185Y-111759350D01*
X90268760Y-111781162D01*
X90271139Y-111792940D01*
X90291980Y-111814785D01*
X90310930Y-111834102D01*
X90325536Y-111870759D01*
X90336664Y-111903952D01*
X90348979Y-111917822D01*
X90360194Y-111927969D01*
X90372210Y-111958165D01*
X90382556Y-111984830D01*
X90396883Y-111998508D01*
X90410163Y-112012275D01*
X90421768Y-112045572D01*
X90435408Y-112080617D01*
X90455324Y-112101546D01*
X90467948Y-112111414D01*
X90478544Y-112141510D01*
X90482451Y-112159873D01*
X90502750Y-112181853D01*
X90518409Y-112197624D01*
X90526956Y-112231992D01*
X90531017Y-112259016D01*
X90543093Y-112272841D01*
X90550672Y-112275756D01*
X90559230Y-112297554D01*
X90561527Y-112309224D01*
X90581980Y-112330996D01*
X90598616Y-112345428D01*
X90614562Y-112378901D01*
X90624572Y-112404423D01*
X90639235Y-112418076D01*
X90644217Y-112421467D01*
X90655547Y-112447463D01*
X90664966Y-112490694D01*
X90672286Y-112528247D01*
X90685507Y-112555728D01*
X90706298Y-112563311D01*
X90724622Y-112568087D01*
X90736740Y-112594433D01*
X90739741Y-112613051D01*
X90758817Y-112647632D01*
X90774735Y-112669010D01*
X90793220Y-112708546D01*
X90805237Y-112736631D01*
X90827623Y-112769461D01*
X90839156Y-112784156D01*
X90849700Y-112812865D01*
X90852471Y-112823805D01*
X90873906Y-112843480D01*
X90885057Y-112850555D01*
X90898112Y-112877481D01*
X90899977Y-112889083D01*
X90913942Y-112902193D01*
X90926939Y-112912313D01*
X90939897Y-112942536D01*
X90950204Y-112969203D01*
X90964410Y-112982879D01*
X90971154Y-112985780D01*
X90978798Y-113007592D01*
X90981178Y-113019369D01*
X91002018Y-113041214D01*
X91020661Y-113059837D01*
X91035330Y-113096073D01*
X91048057Y-113131760D01*
X91068590Y-113161250D01*
X91080383Y-113174153D01*
X91091759Y-113202708D01*
X91093125Y-113211994D01*
X91106614Y-113224938D01*
X91106905Y-113224947D01*
X91120392Y-113239471D01*
X91132102Y-113273349D01*
X91132311Y-113274291D01*
X91144139Y-113307850D01*
X91157590Y-113321761D01*
X91164412Y-113324482D01*
X91172445Y-113345967D01*
X91174229Y-113357098D01*
X91188275Y-113370173D01*
X91200969Y-113379678D01*
X91213937Y-113409348D01*
X91225333Y-113436132D01*
X91246519Y-113457254D01*
X91256451Y-113463560D01*
X91269268Y-113490696D01*
X91271171Y-113502303D01*
X91285406Y-113515408D01*
X91296019Y-113525424D01*
X91301543Y-113555751D01*
X91306280Y-113582066D01*
X91325749Y-113596094D01*
X91341626Y-113604118D01*
X91349954Y-113636944D01*
X91355404Y-113665488D01*
X91372704Y-113686523D01*
X91389986Y-113702135D01*
X91405775Y-113736378D01*
X91417292Y-113767037D01*
X91439506Y-113800911D01*
X91451933Y-113818118D01*
X91462915Y-113855442D01*
X91467271Y-113873199D01*
X91487121Y-113886564D01*
X91502910Y-113894460D01*
X91511327Y-113926907D01*
X91515333Y-113953440D01*
X91527464Y-113967250D01*
X91535043Y-113970165D01*
X91543601Y-113991963D01*
X91546340Y-114004397D01*
X91567807Y-114025964D01*
X91580952Y-114036020D01*
X91592013Y-114066307D01*
X91595769Y-114084631D01*
X91615233Y-114106271D01*
X91634183Y-114125589D01*
X91648789Y-114162245D01*
X91660421Y-114195423D01*
X91673981Y-114209309D01*
X91680803Y-114212030D01*
X91688836Y-114233515D01*
X91690621Y-114244645D01*
X91704666Y-114257721D01*
X91717663Y-114267840D01*
X91730621Y-114298064D01*
X91740614Y-114324746D01*
X91753852Y-114338407D01*
X91754804Y-114338534D01*
X91767004Y-114354770D01*
X91778276Y-114389939D01*
X91792650Y-114432530D01*
X91811833Y-114463709D01*
X91823447Y-114478739D01*
X91834071Y-114509000D01*
X91835565Y-114519046D01*
X91848926Y-114532053D01*
X91849217Y-114532063D01*
X91862705Y-114546587D01*
X91865873Y-114555753D01*
X91874414Y-114580465D01*
G37*
G36*
X141136371Y-90187098D02*
G01*
X141251786Y-90187729D01*
X141340836Y-90188988D01*
X141406658Y-90191020D01*
X141452391Y-90193971D01*
X141481172Y-90197988D01*
X141496139Y-90203218D01*
X141500431Y-90209805D01*
X141501991Y-90219562D01*
X141518615Y-90238728D01*
X141526004Y-90247124D01*
X141537121Y-90280327D01*
X141544874Y-90328827D01*
X141548887Y-90361034D01*
X141556811Y-90398335D01*
X141564908Y-90412865D01*
X141568173Y-90414982D01*
X141577750Y-90438519D01*
X141585837Y-90479740D01*
X141588269Y-90495191D01*
X141598462Y-90535513D01*
X141609836Y-90556392D01*
X141615289Y-90564059D01*
X141625627Y-90597100D01*
X141633508Y-90644817D01*
X141637288Y-90671294D01*
X141647451Y-90712864D01*
X141658810Y-90733760D01*
X141668306Y-90751825D01*
X141678732Y-90793461D01*
X141687095Y-90848759D01*
X141694602Y-90900600D01*
X141704372Y-90943243D01*
X141713761Y-90963240D01*
X141717413Y-90967214D01*
X141728842Y-90995935D01*
X141737769Y-91039892D01*
X141740443Y-91056533D01*
X141750192Y-91092449D01*
X141760751Y-91106766D01*
X141768888Y-91112805D01*
X141774764Y-91139041D01*
X141777545Y-91157788D01*
X141789617Y-91171315D01*
X141789803Y-91171324D01*
X141798819Y-91186677D01*
X141808208Y-91225743D01*
X141815966Y-91280241D01*
X141823798Y-91336201D01*
X141833416Y-91379014D01*
X141842680Y-91398945D01*
X141846372Y-91402918D01*
X141857900Y-91431639D01*
X141866867Y-91475597D01*
X141869507Y-91492253D01*
X141878846Y-91528159D01*
X141888688Y-91542471D01*
X141894998Y-91550456D01*
X141904459Y-91582694D01*
X141912629Y-91631226D01*
X141918313Y-91667919D01*
X141927441Y-91705440D01*
X141935942Y-91719981D01*
X141941247Y-91726433D01*
X141949603Y-91756928D01*
X141956242Y-91804019D01*
X141960588Y-91835887D01*
X141970818Y-91875931D01*
X141982501Y-91894119D01*
X141983937Y-91894765D01*
X141995812Y-91915857D01*
X142000685Y-91954163D01*
X142000691Y-91955440D01*
X142007509Y-91999530D01*
X142023314Y-92030775D01*
X142036237Y-92057204D01*
X142048654Y-92105525D01*
X142057732Y-92165060D01*
X142057925Y-92166865D01*
X142066013Y-92223709D01*
X142075822Y-92266759D01*
X142085272Y-92286822D01*
X142090951Y-92294574D01*
X142101644Y-92327775D01*
X142109666Y-92375577D01*
X142113370Y-92402112D01*
X142122940Y-92443439D01*
X142133339Y-92464002D01*
X142136988Y-92467976D01*
X142148412Y-92496697D01*
X142157337Y-92540654D01*
X142160011Y-92557295D01*
X142169760Y-92593212D01*
X142180319Y-92607529D01*
X142181373Y-92607676D01*
X142190591Y-92624268D01*
X142194431Y-92659975D01*
X142200354Y-92706785D01*
X142216449Y-92754425D01*
X142221976Y-92766549D01*
X142237859Y-92815707D01*
X142249613Y-92871420D01*
X142254023Y-92895468D01*
X142264952Y-92932018D01*
X142276007Y-92946410D01*
X142276191Y-92946414D01*
X142286766Y-92960826D01*
X142291155Y-92994822D01*
X142291156Y-92995401D01*
X142295406Y-93029203D01*
X142305433Y-93043234D01*
X142312329Y-93051212D01*
X142322395Y-93083449D01*
X142330800Y-93131989D01*
X142336727Y-93168653D01*
X142346857Y-93206194D01*
X142356865Y-93220743D01*
X142360220Y-93222387D01*
X142368519Y-93244868D01*
X142371841Y-93285292D01*
X142371841Y-93349841D01*
X142300376Y-93349841D01*
X142282115Y-93349178D01*
X142236053Y-93341625D01*
X142207428Y-93328357D01*
X142182582Y-93311608D01*
X142141726Y-93295775D01*
X142111285Y-93283760D01*
X142097508Y-93268848D01*
X142094780Y-93261569D01*
X142073303Y-93253018D01*
X142062152Y-93251084D01*
X142049097Y-93235928D01*
X142048317Y-93230739D01*
X142035403Y-93227302D01*
X142016792Y-93224557D01*
X141988367Y-93204701D01*
X141956327Y-93182112D01*
X141909431Y-93162194D01*
X141873690Y-93149135D01*
X141842354Y-93129267D01*
X141828419Y-93118325D01*
X141799544Y-93107783D01*
X141788603Y-93105012D01*
X141768928Y-93083577D01*
X141753158Y-93067918D01*
X141718790Y-93059371D01*
X141691766Y-93055310D01*
X141677940Y-93043234D01*
X141675026Y-93035654D01*
X141653228Y-93027097D01*
X141641082Y-93024520D01*
X141619396Y-93003330D01*
X141618437Y-93001299D01*
X141595007Y-92982573D01*
X141555353Y-92969259D01*
X141548997Y-92967979D01*
X141514498Y-92957240D01*
X141500431Y-92945897D01*
X141486651Y-92933660D01*
X141453367Y-92922501D01*
X141418322Y-92908861D01*
X141397394Y-92888944D01*
X141381848Y-92873913D01*
X141347634Y-92865724D01*
X141320839Y-92860970D01*
X141306784Y-92841518D01*
X141300794Y-92827403D01*
X141274510Y-92817313D01*
X141255751Y-92814287D01*
X141242235Y-92801175D01*
X141239504Y-92793752D01*
X141218029Y-92785038D01*
X141206879Y-92783105D01*
X141193824Y-92767949D01*
X141193044Y-92762759D01*
X141180130Y-92759322D01*
X141161165Y-92756344D01*
X141132569Y-92736233D01*
X141106362Y-92717656D01*
X141087715Y-92722458D01*
X141084849Y-92731005D01*
X141095520Y-92751849D01*
X141102890Y-92766795D01*
X141111238Y-92812826D01*
X141118434Y-92887292D01*
X141124219Y-92988069D01*
X141125499Y-93014823D01*
X141130501Y-93093638D01*
X141136445Y-93158547D01*
X141142695Y-93203432D01*
X141148612Y-93222174D01*
X141150605Y-93225412D01*
X141156642Y-93254076D01*
X141162777Y-93306801D01*
X141168393Y-93377529D01*
X141172872Y-93460199D01*
X141174333Y-93491851D01*
X141178907Y-93569377D01*
X141184028Y-93631856D01*
X141189171Y-93673550D01*
X141193810Y-93688723D01*
X141194840Y-93689561D01*
X141199865Y-93711269D01*
X141205329Y-93757936D01*
X141210638Y-93823633D01*
X141215198Y-93902428D01*
X141215708Y-93912753D01*
X141221034Y-93994215D01*
X141227619Y-94059830D01*
X141234795Y-94104124D01*
X141241896Y-94121626D01*
X141245151Y-94125217D01*
X141252089Y-94154358D01*
X141256700Y-94207591D01*
X141258373Y-94279077D01*
X141258401Y-94288577D01*
X141260996Y-94360965D01*
X141267255Y-94409467D01*
X141276391Y-94431986D01*
X141287620Y-94426426D01*
X141300158Y-94390693D01*
X141312431Y-94364108D01*
X141332739Y-94350349D01*
X141343177Y-94347558D01*
X141355196Y-94326144D01*
X141356571Y-94315061D01*
X141367507Y-94301938D01*
X141379164Y-94293396D01*
X141395747Y-94265629D01*
X141412853Y-94241825D01*
X141447985Y-94234369D01*
X141470915Y-94233679D01*
X141484294Y-94222266D01*
X141484790Y-94218087D01*
X141500414Y-94206141D01*
X141528935Y-94209829D01*
X141558064Y-94228168D01*
X141564824Y-94238995D01*
X141574609Y-94274163D01*
X141580275Y-94319896D01*
X141581297Y-94365636D01*
X141577154Y-94400823D01*
X141567320Y-94414898D01*
X141566487Y-94415100D01*
X141558417Y-94432985D01*
X141550320Y-94474135D01*
X141543832Y-94530497D01*
X141543385Y-94535668D01*
X141536536Y-94592929D01*
X141528079Y-94635879D01*
X141519741Y-94655561D01*
X141517855Y-94657753D01*
X141509623Y-94684015D01*
X141501415Y-94731972D01*
X141494759Y-94793207D01*
X141493313Y-94809404D01*
X141486107Y-94867985D01*
X141477715Y-94911100D01*
X141469670Y-94930373D01*
X141464793Y-94940658D01*
X141457141Y-94977831D01*
X141449662Y-95034944D01*
X141443443Y-95104765D01*
X141439235Y-95155447D01*
X141432405Y-95214694D01*
X141425311Y-95255180D01*
X141418950Y-95270172D01*
X141418794Y-95270180D01*
X141410967Y-95285521D01*
X141402708Y-95324589D01*
X141395779Y-95379098D01*
X141388684Y-95435249D01*
X141378300Y-95489692D01*
X141367562Y-95524333D01*
X141353855Y-95544275D01*
X141326623Y-95557282D01*
X141278341Y-95560642D01*
X141237589Y-95558707D01*
X141210381Y-95549194D01*
X141198499Y-95528367D01*
X141189411Y-95509613D01*
X141167736Y-95496093D01*
X141157362Y-95493303D01*
X141145412Y-95471887D01*
X141143797Y-95460777D01*
X141131024Y-95447681D01*
X141118970Y-95437547D01*
X141106511Y-95407338D01*
X141095851Y-95380687D01*
X141080556Y-95366995D01*
X141073123Y-95364083D01*
X141064726Y-95342283D01*
X141061987Y-95329848D01*
X141040520Y-95308282D01*
X141029209Y-95302005D01*
X141016314Y-95282398D01*
X141016199Y-95281036D01*
X141003430Y-95258328D01*
X140975971Y-95228415D01*
X140973670Y-95226242D01*
X140946726Y-95193337D01*
X140935628Y-95165544D01*
X140933153Y-95153069D01*
X140912878Y-95131331D01*
X140895558Y-95115647D01*
X140879778Y-95081358D01*
X140877400Y-95073855D01*
X140855175Y-95033281D01*
X140821841Y-94992530D01*
X140811599Y-94981749D01*
X140784943Y-94947126D01*
X140774256Y-94921980D01*
X140772640Y-94911995D01*
X140758118Y-94899015D01*
X140750539Y-94896101D01*
X140741981Y-94874303D01*
X140739684Y-94862632D01*
X140719232Y-94840861D01*
X140702595Y-94826428D01*
X140686650Y-94792956D01*
X140676312Y-94767449D01*
X140660588Y-94753780D01*
X140646558Y-94745333D01*
X140628660Y-94717471D01*
X140601534Y-94663959D01*
X140542887Y-94589517D01*
X140538526Y-94584884D01*
X140517625Y-94546883D01*
X140504692Y-94498276D01*
X140496149Y-94434586D01*
X140571725Y-94428575D01*
X140584101Y-94427749D01*
X140639991Y-94430848D01*
X140675010Y-94448379D01*
X140705876Y-94468745D01*
X140750429Y-94486169D01*
X140786909Y-94499793D01*
X140810156Y-94517036D01*
X140812869Y-94519733D01*
X140819604Y-94509098D01*
X140822420Y-94475413D01*
X140822219Y-94464498D01*
X140817261Y-94429153D01*
X140807691Y-94414898D01*
X140800508Y-94406924D01*
X140790146Y-94374686D01*
X140781626Y-94326144D01*
X140775959Y-94289449D01*
X140766906Y-94251929D01*
X140758517Y-94237389D01*
X140752478Y-94228599D01*
X140744089Y-94195455D01*
X140737076Y-94146112D01*
X140731837Y-94107397D01*
X140722520Y-94065408D01*
X140712944Y-94045254D01*
X140707590Y-94037638D01*
X140697408Y-94004692D01*
X140689590Y-93957026D01*
X140685844Y-93930527D01*
X140675934Y-93889045D01*
X140664986Y-93868271D01*
X140664107Y-93867555D01*
X140654683Y-93844787D01*
X140645128Y-93799678D01*
X140637385Y-93741169D01*
X140636545Y-93733053D01*
X140628956Y-93677892D01*
X140620341Y-93638935D01*
X140612407Y-93624174D01*
X140605431Y-93614835D01*
X140595815Y-93581157D01*
X140587530Y-93531385D01*
X140583778Y-93506448D01*
X140568167Y-93447995D01*
X140547325Y-93413624D01*
X140534193Y-93396341D01*
X140518293Y-93348592D01*
X140507205Y-93272423D01*
X140506443Y-93264957D01*
X140499003Y-93209878D01*
X140490583Y-93170952D01*
X140482862Y-93156194D01*
X140476093Y-93146856D01*
X140466705Y-93113178D01*
X140458558Y-93063405D01*
X140452205Y-93023179D01*
X140441588Y-92980802D01*
X140430987Y-92960233D01*
X140424706Y-92951094D01*
X140414366Y-92916469D01*
X140406911Y-92867444D01*
X140403106Y-92836746D01*
X140395244Y-92799554D01*
X140387167Y-92785038D01*
X140381210Y-92776248D01*
X140372902Y-92743104D01*
X140365920Y-92693761D01*
X140360647Y-92655050D01*
X140351192Y-92613058D01*
X140341409Y-92592904D01*
X140334898Y-92583081D01*
X140323933Y-92548051D01*
X140314783Y-92498602D01*
X140309297Y-92465617D01*
X140299674Y-92428375D01*
X140290710Y-92413882D01*
X140289821Y-92413607D01*
X140282093Y-92395213D01*
X140273823Y-92353678D01*
X140266654Y-92296996D01*
X140266021Y-92290791D01*
X140257974Y-92233223D01*
X140248176Y-92189939D01*
X140238606Y-92169894D01*
X140232675Y-92162117D01*
X140221604Y-92128863D01*
X140213432Y-92081030D01*
X140209710Y-92054524D01*
X140199967Y-92013063D01*
X140189288Y-91992314D01*
X140180544Y-91973431D01*
X140171756Y-91931214D01*
X140165205Y-91875319D01*
X140156622Y-91768393D01*
X140223380Y-91768393D01*
X140239809Y-91768868D01*
X140275790Y-91774284D01*
X140290139Y-91783799D01*
X140290660Y-91785986D01*
X140309377Y-91798966D01*
X140346619Y-91809800D01*
X140354300Y-91811375D01*
X140388999Y-91822638D01*
X140403099Y-91834738D01*
X140406000Y-91841459D01*
X140427812Y-91849079D01*
X140440186Y-91851783D01*
X140461777Y-91873192D01*
X140468208Y-91884145D01*
X140484361Y-91889066D01*
X140489554Y-91887240D01*
X140507829Y-91897227D01*
X140522072Y-91907310D01*
X140555629Y-91913628D01*
X140580938Y-91918852D01*
X140602582Y-91937834D01*
X140617321Y-91953136D01*
X140650993Y-91962039D01*
X140677832Y-91967526D01*
X140699405Y-91986245D01*
X140706480Y-91997396D01*
X140733406Y-92010451D01*
X140744988Y-92012140D01*
X140758118Y-92024839D01*
X140768252Y-92036893D01*
X140798461Y-92049352D01*
X140825112Y-92060012D01*
X140838805Y-92075308D01*
X140849084Y-92085779D01*
X140879654Y-92091137D01*
X140908167Y-92096483D01*
X140929062Y-92113440D01*
X140931499Y-92117477D01*
X140957512Y-92133952D01*
X140999412Y-92145623D01*
X141010169Y-92147683D01*
X141049781Y-92161749D01*
X141070526Y-92179801D01*
X141077659Y-92191039D01*
X141104562Y-92204098D01*
X141116151Y-92205844D01*
X141129275Y-92218953D01*
X141129284Y-92219244D01*
X141143808Y-92232731D01*
X141177686Y-92244441D01*
X141178628Y-92244651D01*
X141212187Y-92256478D01*
X141226098Y-92269929D01*
X141232675Y-92278751D01*
X141259525Y-92284784D01*
X141281561Y-92288683D01*
X141317158Y-92308990D01*
X141335153Y-92322368D01*
X141368451Y-92332949D01*
X141382278Y-92330767D01*
X141377695Y-92320846D01*
X141374833Y-92318319D01*
X141360348Y-92290889D01*
X141348724Y-92248475D01*
X141346403Y-92237296D01*
X141334675Y-92202132D01*
X141322190Y-92187961D01*
X141313453Y-92182434D01*
X141306784Y-92156839D01*
X141303028Y-92136341D01*
X141283025Y-92101958D01*
X141278725Y-92096821D01*
X141261211Y-92060724D01*
X141248847Y-92013046D01*
X141246130Y-91999039D01*
X141232547Y-91959433D01*
X141216126Y-91939336D01*
X141201475Y-91923313D01*
X141193824Y-91888776D01*
X141188414Y-91856978D01*
X141169618Y-91822568D01*
X141155073Y-91800107D01*
X141145412Y-91759171D01*
X141141844Y-91733763D01*
X141130557Y-91719981D01*
X141130266Y-91719972D01*
X141116778Y-91705448D01*
X141105069Y-91671569D01*
X141104849Y-91670579D01*
X141093563Y-91637053D01*
X141081377Y-91623158D01*
X141079495Y-91622630D01*
X141067963Y-91603902D01*
X141057722Y-91566677D01*
X141056143Y-91559018D01*
X141044525Y-91524304D01*
X141031720Y-91510197D01*
X141021589Y-91500185D01*
X141016314Y-91469854D01*
X141012628Y-91443328D01*
X141001459Y-91429511D01*
X141001168Y-91429502D01*
X140987681Y-91414978D01*
X140975971Y-91381099D01*
X140975749Y-91380101D01*
X140964544Y-91346580D01*
X140952545Y-91332687D01*
X140949363Y-91330990D01*
X140938705Y-91308474D01*
X140929431Y-91268139D01*
X140926703Y-91253480D01*
X140915891Y-91217847D01*
X140904445Y-91203590D01*
X140903396Y-91203465D01*
X140890164Y-91187241D01*
X140878462Y-91152058D01*
X140864089Y-91109467D01*
X140844906Y-91078288D01*
X140830213Y-91052171D01*
X140822667Y-91010517D01*
X140816470Y-90977368D01*
X140798461Y-90955696D01*
X140782802Y-90939925D01*
X140774256Y-90905557D01*
X140770194Y-90878533D01*
X140758118Y-90864708D01*
X140747443Y-90854427D01*
X140741981Y-90823858D01*
X140736635Y-90795345D01*
X140719678Y-90774450D01*
X140715147Y-90771571D01*
X140698847Y-90744837D01*
X140687213Y-90702339D01*
X140684656Y-90688574D01*
X140673781Y-90653032D01*
X140662093Y-90638787D01*
X140657253Y-90635653D01*
X140645837Y-90610111D01*
X140636408Y-90567255D01*
X140632603Y-90547318D01*
X140619026Y-90507075D01*
X140603145Y-90487075D01*
X140588549Y-90471686D01*
X140580609Y-90437578D01*
X140576547Y-90410553D01*
X140564472Y-90396728D01*
X140557048Y-90393997D01*
X140548334Y-90372522D01*
X140546729Y-90361414D01*
X140534029Y-90348316D01*
X140532420Y-90348054D01*
X140520804Y-90330687D01*
X140512225Y-90294788D01*
X140508690Y-90252526D01*
X140512207Y-90216073D01*
X140515608Y-90208462D01*
X140524184Y-90201788D01*
X140541146Y-90196652D01*
X140569906Y-90192854D01*
X140613877Y-90190194D01*
X140676473Y-90188473D01*
X140761105Y-90187490D01*
X140871185Y-90187047D01*
X141010128Y-90186944D01*
X141136371Y-90187098D01*
G37*
G36*
X145849414Y-95657465D02*
G01*
X145849624Y-95658406D01*
X145861451Y-95691965D01*
X145874902Y-95705877D01*
X145881376Y-95708195D01*
X145889758Y-95728930D01*
X145895961Y-95749514D01*
X145917998Y-95780246D01*
X145922771Y-95785517D01*
X145934503Y-95807058D01*
X145941673Y-95840923D01*
X145945259Y-95893748D01*
X145946238Y-95972169D01*
X145946152Y-95999970D01*
X145944461Y-96069627D01*
X145939855Y-96115771D01*
X145931360Y-96145039D01*
X145917998Y-96164065D01*
X145900381Y-96186678D01*
X145889758Y-96215045D01*
X145880311Y-96232188D01*
X145850582Y-96247623D01*
X145823798Y-96259019D01*
X145802677Y-96280205D01*
X145796638Y-96289987D01*
X145770580Y-96302954D01*
X145760289Y-96304778D01*
X145740488Y-96323126D01*
X145738493Y-96324252D01*
X145725739Y-96326266D01*
X145700430Y-96328167D01*
X145661629Y-96329962D01*
X145608396Y-96331656D01*
X145539792Y-96333254D01*
X145454877Y-96334762D01*
X145352714Y-96336186D01*
X145232363Y-96337532D01*
X145092884Y-96338806D01*
X144933339Y-96340012D01*
X144752788Y-96341158D01*
X144550293Y-96342248D01*
X144324914Y-96343289D01*
X144075712Y-96344285D01*
X143801749Y-96345244D01*
X143502085Y-96346170D01*
X143175781Y-96347069D01*
X142821898Y-96347948D01*
X142439496Y-96348811D01*
X142027638Y-96349664D01*
X141585383Y-96350514D01*
X141111793Y-96351366D01*
X141050061Y-96351473D01*
X140535973Y-96352301D01*
X140051612Y-96352965D01*
X139597135Y-96353466D01*
X139172703Y-96353804D01*
X138778474Y-96353978D01*
X138414608Y-96353989D01*
X138081265Y-96353838D01*
X137778602Y-96353525D01*
X137506780Y-96353050D01*
X137265958Y-96352413D01*
X137056296Y-96351615D01*
X136877951Y-96350655D01*
X136731085Y-96349535D01*
X136615855Y-96348254D01*
X136532422Y-96346813D01*
X136480944Y-96345211D01*
X136461581Y-96343450D01*
X136445544Y-96332502D01*
X136433341Y-96316959D01*
X136422429Y-96307155D01*
X136391622Y-96295982D01*
X136354614Y-96278211D01*
X136315416Y-96247095D01*
X136284509Y-96212234D01*
X136271968Y-96183131D01*
X136264628Y-96166262D01*
X136239694Y-96141582D01*
X136233451Y-96136689D01*
X136219911Y-96119450D01*
X136212015Y-96091935D01*
X136208329Y-96046821D01*
X136207420Y-95976784D01*
X136207534Y-95945411D01*
X136209286Y-95886679D01*
X136214276Y-95850160D01*
X136223935Y-95828687D01*
X136239694Y-95815092D01*
X136259605Y-95798192D01*
X136271968Y-95774106D01*
X136274581Y-95763638D01*
X136295735Y-95744155D01*
X136299020Y-95742405D01*
X136317289Y-95717407D01*
X136330487Y-95676483D01*
X136331658Y-95670683D01*
X136339722Y-95645115D01*
X137153459Y-95645115D01*
X137153572Y-95645276D01*
X137172533Y-95646340D01*
X137222188Y-95647380D01*
X137301161Y-95648390D01*
X137408078Y-95649368D01*
X137541562Y-95650309D01*
X137700238Y-95651208D01*
X137882732Y-95652062D01*
X138087668Y-95652865D01*
X138313670Y-95653615D01*
X138559363Y-95654306D01*
X138823373Y-95654934D01*
X139104323Y-95655495D01*
X139400838Y-95655985D01*
X139711544Y-95656400D01*
X140035064Y-95656734D01*
X140370024Y-95656985D01*
X140715047Y-95657148D01*
X141068760Y-95657218D01*
X141088041Y-95657219D01*
X141510098Y-95657230D01*
X141901097Y-95657204D01*
X142262202Y-95657134D01*
X142594577Y-95657014D01*
X142899387Y-95656835D01*
X143177796Y-95656591D01*
X143430969Y-95656274D01*
X143660070Y-95655877D01*
X143866265Y-95655393D01*
X144050717Y-95654815D01*
X144214590Y-95654135D01*
X144359051Y-95653347D01*
X144485262Y-95652442D01*
X144594389Y-95651413D01*
X144687596Y-95650255D01*
X144766048Y-95648958D01*
X144830909Y-95647516D01*
X144883343Y-95645922D01*
X144924516Y-95644168D01*
X144955591Y-95642248D01*
X144977734Y-95640153D01*
X144992108Y-95637877D01*
X144999878Y-95635413D01*
X145002210Y-95632753D01*
X144999471Y-95620318D01*
X144978004Y-95598752D01*
X144962701Y-95584012D01*
X144953798Y-95550340D01*
X144948312Y-95523502D01*
X144929592Y-95501928D01*
X144918403Y-95495073D01*
X144905386Y-95470160D01*
X144904028Y-95460652D01*
X144890999Y-95447681D01*
X144878945Y-95437547D01*
X144866485Y-95407338D01*
X144856139Y-95380673D01*
X144841812Y-95366995D01*
X144828532Y-95353228D01*
X144816928Y-95319931D01*
X144803288Y-95284886D01*
X144783371Y-95263958D01*
X144768340Y-95248412D01*
X144760151Y-95214198D01*
X144756168Y-95187175D01*
X144744322Y-95173348D01*
X144731325Y-95163229D01*
X144718366Y-95133005D01*
X144708059Y-95106338D01*
X144693853Y-95092662D01*
X144687110Y-95089761D01*
X144679465Y-95067950D01*
X144676726Y-95055515D01*
X144655259Y-95033949D01*
X144640067Y-95019510D01*
X144631054Y-94986044D01*
X144626184Y-94961302D01*
X144608644Y-94947427D01*
X144606462Y-94947200D01*
X144588615Y-94929574D01*
X144575638Y-94890947D01*
X144574060Y-94883281D01*
X144562545Y-94848571D01*
X144549944Y-94834466D01*
X144537721Y-94824954D01*
X144525013Y-94795291D01*
X144513617Y-94768507D01*
X144492431Y-94747386D01*
X144477699Y-94731948D01*
X144469681Y-94697806D01*
X144466549Y-94670802D01*
X144457214Y-94656957D01*
X144453117Y-94655053D01*
X144435246Y-94633760D01*
X144412996Y-94596442D01*
X144405699Y-94583138D01*
X144380854Y-94544748D01*
X144360915Y-94523023D01*
X144352773Y-94515885D01*
X144340583Y-94486714D01*
X144339086Y-94476350D01*
X144326196Y-94463310D01*
X144314142Y-94453176D01*
X144301682Y-94422967D01*
X144291336Y-94396302D01*
X144277009Y-94382624D01*
X144276722Y-94382615D01*
X144263449Y-94368088D01*
X144251829Y-94334212D01*
X144251612Y-94333236D01*
X144240171Y-94299701D01*
X144227623Y-94285801D01*
X144227347Y-94285791D01*
X144214752Y-94271256D01*
X144203417Y-94237389D01*
X144203206Y-94236439D01*
X144191471Y-94202886D01*
X144178236Y-94188977D01*
X144166369Y-94179459D01*
X144153856Y-94149802D01*
X144142460Y-94123018D01*
X144121274Y-94101897D01*
X144106542Y-94086459D01*
X144098525Y-94052317D01*
X144094463Y-94025293D01*
X144082388Y-94011468D01*
X144074808Y-94008553D01*
X144066251Y-93986755D01*
X144063953Y-93975085D01*
X144043501Y-93953313D01*
X144026865Y-93938881D01*
X144010919Y-93905408D01*
X144000978Y-93879883D01*
X143986539Y-93866233D01*
X143986252Y-93866223D01*
X143972978Y-93851697D01*
X143961359Y-93817821D01*
X143961149Y-93816880D01*
X143949322Y-93783321D01*
X143935870Y-93769409D01*
X143929048Y-93766688D01*
X143921015Y-93745203D01*
X143919400Y-93734094D01*
X143906628Y-93720998D01*
X143894574Y-93710864D01*
X143882114Y-93680654D01*
X143871768Y-93653989D01*
X143857441Y-93640311D01*
X143844161Y-93626545D01*
X143832557Y-93593248D01*
X143818917Y-93558203D01*
X143799000Y-93537274D01*
X143788792Y-93530824D01*
X143775780Y-93503651D01*
X143774091Y-93492069D01*
X143761393Y-93478939D01*
X143749339Y-93468805D01*
X143736879Y-93438596D01*
X143726220Y-93411945D01*
X143710924Y-93398253D01*
X143701944Y-93392723D01*
X143695094Y-93367131D01*
X143692093Y-93348513D01*
X143673017Y-93313932D01*
X143658493Y-93295099D01*
X143639655Y-93256300D01*
X143629482Y-93234142D01*
X143614052Y-93220743D01*
X143612006Y-93220219D01*
X143599697Y-93201497D01*
X143589138Y-93164263D01*
X143588036Y-93158871D01*
X143574168Y-93122226D01*
X143556132Y-93107783D01*
X143541774Y-93099391D01*
X143533722Y-93069166D01*
X143528325Y-93042858D01*
X143509516Y-93021261D01*
X143498366Y-93014186D01*
X143485310Y-92987260D01*
X143483407Y-92975653D01*
X143469173Y-92962548D01*
X143461749Y-92959817D01*
X143453036Y-92938342D01*
X143451251Y-92927211D01*
X143437206Y-92914136D01*
X143423241Y-92901916D01*
X143410278Y-92869918D01*
X143397775Y-92835778D01*
X143377696Y-92804217D01*
X143366836Y-92790173D01*
X143356212Y-92759680D01*
X143354768Y-92749641D01*
X143341825Y-92736626D01*
X143329771Y-92726493D01*
X143317311Y-92696283D01*
X143306965Y-92669618D01*
X143292638Y-92655940D01*
X143279358Y-92642174D01*
X143267754Y-92608877D01*
X143254114Y-92573832D01*
X143234197Y-92552903D01*
X143219507Y-92538383D01*
X143210977Y-92504870D01*
X143205491Y-92478031D01*
X143186771Y-92456458D01*
X143175621Y-92449383D01*
X143162566Y-92422457D01*
X143160700Y-92410855D01*
X143146736Y-92397745D01*
X143133739Y-92387625D01*
X143120781Y-92357402D01*
X143110474Y-92330735D01*
X143096267Y-92317059D01*
X143086808Y-92307051D01*
X143081879Y-92276715D01*
X143077236Y-92250883D01*
X143062091Y-92240407D01*
X143048375Y-92234779D01*
X143036763Y-92208132D01*
X143028283Y-92185559D01*
X143008140Y-92171823D01*
X142993097Y-92163386D01*
X142985056Y-92131480D01*
X142981050Y-92104947D01*
X142968919Y-92091137D01*
X142961339Y-92088223D01*
X142952782Y-92066425D01*
X142950043Y-92053990D01*
X142928576Y-92032424D01*
X142913383Y-92017985D01*
X142904370Y-91984519D01*
X142899500Y-91959777D01*
X142881960Y-91945902D01*
X142879778Y-91945675D01*
X142861932Y-91928049D01*
X142848954Y-91889422D01*
X142847380Y-91881740D01*
X142836125Y-91847041D01*
X142824040Y-91832942D01*
X142812642Y-91825142D01*
X142798436Y-91797385D01*
X142788116Y-91773301D01*
X142765074Y-91739753D01*
X142753622Y-91724933D01*
X142742998Y-91694622D01*
X142741504Y-91684576D01*
X142728143Y-91671569D01*
X142727852Y-91671560D01*
X142714364Y-91657036D01*
X142702655Y-91623158D01*
X142702445Y-91622216D01*
X142690618Y-91588657D01*
X142677167Y-91574746D01*
X142670200Y-91571841D01*
X142662312Y-91550034D01*
X142660014Y-91538363D01*
X142639562Y-91516592D01*
X142622280Y-91500980D01*
X142606491Y-91466737D01*
X142594974Y-91436077D01*
X142572760Y-91402203D01*
X142558658Y-91380138D01*
X142549351Y-91339603D01*
X142544652Y-91314377D01*
X142525145Y-91300413D01*
X142511029Y-91294423D01*
X142500939Y-91268139D01*
X142497913Y-91249380D01*
X142484802Y-91235864D01*
X142477378Y-91233133D01*
X142468665Y-91211658D01*
X142466880Y-91200528D01*
X142452835Y-91187452D01*
X142440141Y-91177947D01*
X142427173Y-91148277D01*
X142415777Y-91121493D01*
X142394591Y-91100372D01*
X142379859Y-91084934D01*
X142371841Y-91050792D01*
X142367780Y-91023768D01*
X142355704Y-91009943D01*
X142348125Y-91007029D01*
X142339567Y-90985231D01*
X142337270Y-90973560D01*
X142316817Y-90951788D01*
X142300181Y-90937356D01*
X142284236Y-90903883D01*
X142274295Y-90878358D01*
X142259856Y-90864708D01*
X142259568Y-90864699D01*
X142246295Y-90850172D01*
X142234675Y-90816296D01*
X142234455Y-90815307D01*
X142223155Y-90781780D01*
X142210936Y-90767884D01*
X142199722Y-90757737D01*
X142187705Y-90727541D01*
X142177359Y-90700876D01*
X142163032Y-90687198D01*
X142162745Y-90687189D01*
X142149471Y-90672662D01*
X142137852Y-90638787D01*
X142137642Y-90637845D01*
X142125815Y-90604286D01*
X142112364Y-90590375D01*
X142105397Y-90587470D01*
X142097508Y-90565663D01*
X142095211Y-90553992D01*
X142074759Y-90532220D01*
X142058123Y-90517788D01*
X142042177Y-90484315D01*
X142031933Y-90458804D01*
X142016515Y-90445140D01*
X142006105Y-90435125D01*
X142000685Y-90404797D01*
X141996679Y-90378264D01*
X141984548Y-90364454D01*
X141976968Y-90361539D01*
X141968411Y-90339741D01*
X141966114Y-90328071D01*
X141945661Y-90306299D01*
X141929025Y-90291867D01*
X141913079Y-90258394D01*
X141903138Y-90232869D01*
X141888699Y-90219219D01*
X141887658Y-90219094D01*
X141874503Y-90202869D01*
X141862833Y-90167687D01*
X141848460Y-90125096D01*
X141829277Y-90093917D01*
X141817583Y-90079015D01*
X141807038Y-90050352D01*
X141804268Y-90039411D01*
X141782832Y-90019736D01*
X141771682Y-90012661D01*
X141758627Y-89985735D01*
X141756813Y-89974139D01*
X141743221Y-89961023D01*
X141741284Y-89960618D01*
X141728253Y-89942461D01*
X141717429Y-89905660D01*
X141716377Y-89900527D01*
X141702429Y-89862078D01*
X141684423Y-89841618D01*
X141674545Y-89835331D01*
X141661803Y-89808226D01*
X141660057Y-89796637D01*
X141646948Y-89783513D01*
X141646657Y-89783504D01*
X141633170Y-89768980D01*
X141621460Y-89735102D01*
X141621249Y-89734152D01*
X141609514Y-89700599D01*
X141596280Y-89686690D01*
X141584265Y-89676863D01*
X141571752Y-89646925D01*
X141558404Y-89619458D01*
X141531119Y-89597432D01*
X141506638Y-89576171D01*
X141490318Y-89524236D01*
X141488747Y-89515441D01*
X141475514Y-89475670D01*
X141458025Y-89460769D01*
X141443820Y-89452205D01*
X141435882Y-89422152D01*
X141430485Y-89395844D01*
X141411676Y-89374247D01*
X141400526Y-89367172D01*
X141387470Y-89340246D01*
X141385567Y-89328639D01*
X141371333Y-89315534D01*
X141360720Y-89305518D01*
X141355196Y-89275191D01*
X141350458Y-89248876D01*
X141330990Y-89234848D01*
X141317179Y-89229247D01*
X141306784Y-89203726D01*
X141303189Y-89183609D01*
X141283375Y-89149195D01*
X141266578Y-89125683D01*
X141249644Y-89084661D01*
X141237438Y-89055819D01*
X141216573Y-89034806D01*
X141206641Y-89028500D01*
X141193824Y-89001364D01*
X141191921Y-88989757D01*
X141177686Y-88976652D01*
X141170421Y-88974097D01*
X141161549Y-88952943D01*
X141160169Y-88941435D01*
X141149127Y-88907946D01*
X141131061Y-88870201D01*
X141110841Y-88836707D01*
X141093339Y-88815971D01*
X141083426Y-88816500D01*
X141070359Y-88842512D01*
X141046179Y-88877970D01*
X141025806Y-88911896D01*
X141016314Y-88944827D01*
X141013007Y-88960367D01*
X140992108Y-88982488D01*
X140980958Y-88989562D01*
X140967902Y-89016489D01*
X140966213Y-89028071D01*
X140953515Y-89041201D01*
X140941461Y-89051335D01*
X140929001Y-89081544D01*
X140918655Y-89108209D01*
X140904328Y-89121887D01*
X140904041Y-89121896D01*
X140890767Y-89136423D01*
X140879148Y-89170299D01*
X140878938Y-89171240D01*
X140867111Y-89204799D01*
X140853660Y-89218710D01*
X140846838Y-89221431D01*
X140838805Y-89242916D01*
X140836984Y-89254052D01*
X140822667Y-89267122D01*
X140815088Y-89270036D01*
X140806530Y-89291834D01*
X140803791Y-89304269D01*
X140782324Y-89325835D01*
X140769179Y-89335891D01*
X140758118Y-89366178D01*
X140754502Y-89384467D01*
X140735816Y-89405791D01*
X140731778Y-89408228D01*
X140715304Y-89434242D01*
X140703632Y-89476141D01*
X140701573Y-89486898D01*
X140687506Y-89526510D01*
X140669455Y-89547256D01*
X140658217Y-89554388D01*
X140645158Y-89581292D01*
X140643293Y-89592894D01*
X140629328Y-89606004D01*
X140616331Y-89616123D01*
X140603373Y-89646347D01*
X140593380Y-89673029D01*
X140580142Y-89686690D01*
X140579872Y-89686700D01*
X140567602Y-89701239D01*
X140556403Y-89735102D01*
X140556193Y-89736043D01*
X140544366Y-89769602D01*
X140530915Y-89783513D01*
X140524710Y-89785558D01*
X140516060Y-89805743D01*
X140512812Y-89819754D01*
X140492891Y-89847201D01*
X140474794Y-89871917D01*
X140459631Y-89912378D01*
X140446395Y-89946255D01*
X140426319Y-89967237D01*
X140416048Y-89973374D01*
X140403099Y-89997297D01*
X140396141Y-90015499D01*
X140371419Y-90041281D01*
X140347053Y-90069749D01*
X140329108Y-90112513D01*
X140315859Y-90151506D01*
X140296240Y-90183148D01*
X140284626Y-90198179D01*
X140274001Y-90228440D01*
X140272673Y-90238463D01*
X140260725Y-90251493D01*
X140253661Y-90256223D01*
X140234377Y-90282495D01*
X140211181Y-90324111D01*
X140197408Y-90349744D01*
X140175118Y-90383507D01*
X140159909Y-90396728D01*
X140150043Y-90406738D01*
X140144904Y-90437071D01*
X140139992Y-90463403D01*
X140122494Y-90477414D01*
X140120312Y-90477642D01*
X140102465Y-90495267D01*
X140089488Y-90533895D01*
X140087911Y-90541564D01*
X140076447Y-90576271D01*
X140063948Y-90590375D01*
X140062540Y-90590588D01*
X140048324Y-90607391D01*
X140034734Y-90642821D01*
X140033207Y-90648071D01*
X140018131Y-90680254D01*
X140001998Y-90691233D01*
X139989721Y-90698822D01*
X139983531Y-90727541D01*
X139979996Y-90754064D01*
X139969276Y-90767884D01*
X139959967Y-90772353D01*
X139944669Y-90796125D01*
X139934517Y-90820900D01*
X139911102Y-90865806D01*
X139887466Y-90899709D01*
X139869690Y-90913119D01*
X139862680Y-90915843D01*
X139854433Y-90937325D01*
X139852613Y-90948461D01*
X139838296Y-90961531D01*
X139829414Y-90966485D01*
X139822159Y-90991336D01*
X139813318Y-91021974D01*
X139789885Y-91058355D01*
X139767492Y-91090294D01*
X139757610Y-91117304D01*
X139756321Y-91126136D01*
X139742755Y-91139041D01*
X139729260Y-91152805D01*
X139717563Y-91186104D01*
X139703923Y-91221149D01*
X139684006Y-91242078D01*
X139673765Y-91248354D01*
X139660787Y-91273725D01*
X139657101Y-91288807D01*
X139636581Y-91316550D01*
X139622013Y-91336418D01*
X139612375Y-91375006D01*
X139608590Y-91399626D01*
X139596238Y-91413374D01*
X139588658Y-91416288D01*
X139580101Y-91438086D01*
X139577362Y-91450521D01*
X139555895Y-91472087D01*
X139544684Y-91478830D01*
X139531689Y-91502702D01*
X139528344Y-91517261D01*
X139509451Y-91546267D01*
X139490869Y-91575964D01*
X139476139Y-91618922D01*
X139461769Y-91659654D01*
X139441897Y-91688567D01*
X139430056Y-91701384D01*
X139418728Y-91728938D01*
X139413383Y-91742540D01*
X139388147Y-91759787D01*
X139364179Y-91779945D01*
X139347072Y-91825423D01*
X139345598Y-91832604D01*
X139334017Y-91867255D01*
X139321174Y-91881353D01*
X139313944Y-91884262D01*
X139305768Y-91906066D01*
X139303029Y-91918500D01*
X139281562Y-91940067D01*
X139268997Y-91949187D01*
X139257356Y-91978751D01*
X139254308Y-91996656D01*
X139235279Y-92030223D01*
X139220755Y-92049056D01*
X139201917Y-92087856D01*
X139191591Y-92110001D01*
X139175582Y-92123412D01*
X139171205Y-92124177D01*
X139160533Y-92141038D01*
X139160524Y-92141456D01*
X139150805Y-92165987D01*
X139128258Y-92199695D01*
X139105842Y-92238965D01*
X139095984Y-92278892D01*
X139092294Y-92303316D01*
X139080154Y-92317059D01*
X139067460Y-92326564D01*
X139054492Y-92356234D01*
X139043096Y-92383018D01*
X139021910Y-92404139D01*
X139011977Y-92410446D01*
X138999160Y-92437581D01*
X138997257Y-92449188D01*
X138983023Y-92462294D01*
X138972911Y-92470256D01*
X138966628Y-92498602D01*
X138965068Y-92509270D01*
X138947995Y-92548028D01*
X138918216Y-92589544D01*
X138905287Y-92605025D01*
X138880078Y-92641430D01*
X138870062Y-92666196D01*
X138868606Y-92675310D01*
X138853925Y-92688215D01*
X138846346Y-92691129D01*
X138837788Y-92712927D01*
X138835503Y-92724596D01*
X138815168Y-92746319D01*
X138813042Y-92747353D01*
X138795138Y-92770707D01*
X138782163Y-92810362D01*
X138780799Y-92817077D01*
X138769680Y-92851643D01*
X138757653Y-92865724D01*
X138744670Y-92879495D01*
X138733192Y-92912788D01*
X138719552Y-92947833D01*
X138699635Y-92968762D01*
X138689427Y-92975211D01*
X138676416Y-93002384D01*
X138674550Y-93013987D01*
X138660586Y-93027097D01*
X138647589Y-93037216D01*
X138634631Y-93067440D01*
X138624324Y-93094107D01*
X138610117Y-93107783D01*
X138601762Y-93113824D01*
X138595730Y-93140057D01*
X138591237Y-93158878D01*
X138571524Y-93172332D01*
X138555943Y-93179940D01*
X138547318Y-93211522D01*
X138542393Y-93239979D01*
X138522896Y-93275134D01*
X138503513Y-93305254D01*
X138488604Y-93348905D01*
X138488300Y-93350375D01*
X138474799Y-93384240D01*
X138456546Y-93398253D01*
X138442051Y-93407242D01*
X138434357Y-93438596D01*
X138427391Y-93469484D01*
X138402083Y-93478939D01*
X138378431Y-93486461D01*
X138369808Y-93516813D01*
X138361212Y-93552394D01*
X138337534Y-93591900D01*
X138315141Y-93623839D01*
X138305259Y-93650849D01*
X138303880Y-93659699D01*
X138289430Y-93672586D01*
X138275465Y-93684806D01*
X138262502Y-93716803D01*
X138249999Y-93750944D01*
X138229920Y-93782505D01*
X138219060Y-93796549D01*
X138208436Y-93827042D01*
X138206806Y-93837109D01*
X138192299Y-93850095D01*
X138184719Y-93853010D01*
X138176162Y-93874808D01*
X138173782Y-93886585D01*
X138152942Y-93908430D01*
X138134299Y-93927053D01*
X138119630Y-93963289D01*
X138106903Y-93998976D01*
X138086370Y-94028466D01*
X138074839Y-94041817D01*
X138063201Y-94076017D01*
X138059660Y-94093659D01*
X138038995Y-94124428D01*
X138026174Y-94138466D01*
X138014789Y-94166747D01*
X138013468Y-94176025D01*
X138000401Y-94188977D01*
X137988348Y-94199111D01*
X137975888Y-94229320D01*
X137965229Y-94255971D01*
X137949933Y-94269663D01*
X137940734Y-94275713D01*
X137934103Y-94301938D01*
X137929610Y-94320759D01*
X137909897Y-94334212D01*
X137894108Y-94342108D01*
X137885691Y-94374555D01*
X137881685Y-94401088D01*
X137869554Y-94414898D01*
X137861975Y-94417813D01*
X137853417Y-94439611D01*
X137851120Y-94451282D01*
X137830667Y-94473053D01*
X137814031Y-94487485D01*
X137798086Y-94520958D01*
X137787842Y-94546469D01*
X137772423Y-94560133D01*
X137763443Y-94565663D01*
X137756594Y-94591255D01*
X137753593Y-94609873D01*
X137734517Y-94644454D01*
X137718598Y-94665833D01*
X137700113Y-94705369D01*
X137688096Y-94733453D01*
X137665710Y-94766283D01*
X137654257Y-94781103D01*
X137643633Y-94811413D01*
X137642003Y-94821480D01*
X137627496Y-94834466D01*
X137619916Y-94837381D01*
X137611359Y-94859179D01*
X137608620Y-94871613D01*
X137587153Y-94893180D01*
X137575813Y-94899338D01*
X137562947Y-94917878D01*
X137560564Y-94931086D01*
X137546225Y-94969092D01*
X137523411Y-95016849D01*
X137497343Y-95064471D01*
X137473243Y-95102071D01*
X137456330Y-95119763D01*
X137446766Y-95125471D01*
X137433849Y-95149716D01*
X137430504Y-95164275D01*
X137411611Y-95193281D01*
X137392733Y-95223790D01*
X137378054Y-95267051D01*
X137377230Y-95270643D01*
X137365187Y-95304620D01*
X137352188Y-95318583D01*
X137340321Y-95328101D01*
X137327808Y-95357759D01*
X137316412Y-95384542D01*
X137295226Y-95405664D01*
X137285294Y-95411971D01*
X137272477Y-95439106D01*
X137270574Y-95450713D01*
X137256339Y-95463818D01*
X137250294Y-95465313D01*
X137240202Y-95484229D01*
X137237542Y-95497953D01*
X137222021Y-95536418D01*
X137198384Y-95582018D01*
X137173306Y-95622377D01*
X137153459Y-95645115D01*
X136339722Y-95645115D01*
X136345696Y-95626171D01*
X136363200Y-95596203D01*
X136374386Y-95581953D01*
X136384929Y-95553147D01*
X136387700Y-95542207D01*
X136409135Y-95522532D01*
X136420285Y-95515457D01*
X136433341Y-95488531D01*
X136435087Y-95476942D01*
X136448196Y-95463818D01*
X136448487Y-95463809D01*
X136461974Y-95449285D01*
X136473684Y-95415407D01*
X136473904Y-95414417D01*
X136485203Y-95380891D01*
X136497422Y-95366995D01*
X136508637Y-95356848D01*
X136520654Y-95326652D01*
X136531134Y-95299993D01*
X136545878Y-95286309D01*
X136547899Y-95285848D01*
X136560713Y-95267417D01*
X136571464Y-95230403D01*
X136572228Y-95226564D01*
X136586234Y-95183762D01*
X136604470Y-95155810D01*
X136615618Y-95143623D01*
X136626987Y-95114892D01*
X136628449Y-95105589D01*
X136642817Y-95092662D01*
X136655814Y-95082542D01*
X136668773Y-95052319D01*
X136679080Y-95025652D01*
X136693286Y-95011976D01*
X136699889Y-95009258D01*
X136707674Y-94987770D01*
X136709458Y-94976639D01*
X136723503Y-94963564D01*
X136737375Y-94951555D01*
X136750335Y-94919729D01*
X136750885Y-94917557D01*
X136762104Y-94883897D01*
X136780712Y-94853345D01*
X136814471Y-94812982D01*
X136826887Y-94794805D01*
X136843799Y-94757062D01*
X136853759Y-94734887D01*
X136868384Y-94721506D01*
X136879726Y-94711361D01*
X136891810Y-94681163D01*
X136902156Y-94654498D01*
X136916483Y-94640820D01*
X136916770Y-94640810D01*
X136930044Y-94626284D01*
X136941663Y-94592408D01*
X136941881Y-94591432D01*
X136953321Y-94557896D01*
X136965869Y-94543996D01*
X136966145Y-94543986D01*
X136978740Y-94529451D01*
X136990075Y-94495585D01*
X136990291Y-94494612D01*
X137001777Y-94461074D01*
X137014431Y-94447173D01*
X137021645Y-94442451D01*
X137041138Y-94416180D01*
X137064421Y-94374555D01*
X137078129Y-94348840D01*
X137099766Y-94315134D01*
X137113965Y-94301938D01*
X137121672Y-94295903D01*
X137127242Y-94269663D01*
X137131734Y-94250842D01*
X137151447Y-94237389D01*
X137167236Y-94229493D01*
X137175653Y-94197046D01*
X137179222Y-94170523D01*
X137190041Y-94156703D01*
X137202095Y-94146569D01*
X137214554Y-94116360D01*
X137225214Y-94089709D01*
X137240510Y-94076017D01*
X137247942Y-94073105D01*
X137256339Y-94051304D01*
X137258595Y-94039641D01*
X137278642Y-94018034D01*
X137283174Y-94015154D01*
X137299474Y-93988420D01*
X137311107Y-93945923D01*
X137313666Y-93932159D01*
X137324579Y-93896616D01*
X137336336Y-93882370D01*
X137344635Y-93878349D01*
X137366174Y-93852870D01*
X137390367Y-93812036D01*
X137411124Y-93765375D01*
X137418767Y-93750148D01*
X137434449Y-93737135D01*
X137434717Y-93737125D01*
X137446894Y-93722584D01*
X137458055Y-93688723D01*
X137458266Y-93687773D01*
X137470001Y-93654220D01*
X137483235Y-93640311D01*
X137495394Y-93630179D01*
X137507908Y-93599968D01*
X137517902Y-93573286D01*
X137531140Y-93559625D01*
X137531410Y-93559615D01*
X137543679Y-93545076D01*
X137554878Y-93511214D01*
X137555093Y-93510248D01*
X137566655Y-93476705D01*
X137579486Y-93462802D01*
X137588199Y-93458047D01*
X137609344Y-93431829D01*
X137633050Y-93391170D01*
X137653182Y-93345807D01*
X137661009Y-93330609D01*
X137677790Y-93317567D01*
X137686068Y-93311527D01*
X137692045Y-93285292D01*
X137694863Y-93266543D01*
X137707094Y-93253018D01*
X137718940Y-93245228D01*
X137733429Y-93217462D01*
X137743749Y-93193377D01*
X137766791Y-93159829D01*
X137778244Y-93145009D01*
X137788868Y-93114699D01*
X137790498Y-93104632D01*
X137805005Y-93091646D01*
X137814385Y-93085594D01*
X137821143Y-93059371D01*
X137825635Y-93040550D01*
X137845348Y-93027097D01*
X137861226Y-93019073D01*
X137869554Y-92986247D01*
X137875112Y-92957670D01*
X137892774Y-92936487D01*
X137911417Y-92917865D01*
X137926086Y-92881629D01*
X137938813Y-92845941D01*
X137959346Y-92816452D01*
X137971139Y-92803548D01*
X137982515Y-92774994D01*
X137983881Y-92765708D01*
X137997370Y-92752764D01*
X137997661Y-92752755D01*
X138011148Y-92738230D01*
X138022858Y-92704352D01*
X138023078Y-92703363D01*
X138034378Y-92669836D01*
X138046597Y-92655940D01*
X138057811Y-92645793D01*
X138069828Y-92615597D01*
X138080487Y-92588947D01*
X138095783Y-92575254D01*
X138101677Y-92573784D01*
X138111613Y-92554918D01*
X138111928Y-92552039D01*
X138125197Y-92525080D01*
X138151956Y-92491073D01*
X138156575Y-92485925D01*
X138181950Y-92450262D01*
X138192299Y-92422148D01*
X138195032Y-92409403D01*
X138216505Y-92387443D01*
X138229069Y-92378323D01*
X138240710Y-92348759D01*
X138243758Y-92330854D01*
X138262787Y-92297287D01*
X138278706Y-92275908D01*
X138297191Y-92236372D01*
X138309208Y-92208287D01*
X138331594Y-92175458D01*
X138342673Y-92160149D01*
X138353671Y-92122259D01*
X138358027Y-92104503D01*
X138377877Y-92091137D01*
X138393666Y-92083241D01*
X138402083Y-92050794D01*
X138406089Y-92024261D01*
X138418220Y-92010451D01*
X138422471Y-92009856D01*
X138434357Y-91993660D01*
X138435818Y-91986897D01*
X138450619Y-91957135D01*
X138474851Y-91919335D01*
X138500382Y-91885568D01*
X138519078Y-91867906D01*
X138525516Y-91860451D01*
X138531181Y-91832749D01*
X138534218Y-91814686D01*
X138553257Y-91780896D01*
X138569462Y-91758949D01*
X138587840Y-91719228D01*
X138601299Y-91690171D01*
X138629232Y-91654476D01*
X138649711Y-91629288D01*
X138668723Y-91587060D01*
X138681392Y-91557029D01*
X138702078Y-91536077D01*
X138712010Y-91529770D01*
X138724827Y-91502635D01*
X138726730Y-91491028D01*
X138740965Y-91477923D01*
X138750438Y-91471638D01*
X138757102Y-91445142D01*
X138761374Y-91424962D01*
X138781308Y-91403072D01*
X138796610Y-91388332D01*
X138805514Y-91354660D01*
X138810683Y-91327916D01*
X138828263Y-91306808D01*
X138844899Y-91292375D01*
X138860845Y-91258902D01*
X138870786Y-91233377D01*
X138885225Y-91219727D01*
X138886266Y-91219602D01*
X138899422Y-91203377D01*
X138911091Y-91168195D01*
X138925464Y-91125604D01*
X138944647Y-91094425D01*
X138956261Y-91079394D01*
X138966886Y-91049133D01*
X138968396Y-91039085D01*
X138981891Y-91026080D01*
X138989534Y-91021381D01*
X139009630Y-90995114D01*
X139033163Y-90953463D01*
X139046871Y-90927747D01*
X139068508Y-90894041D01*
X139082707Y-90880845D01*
X139091248Y-90871734D01*
X139095984Y-90842228D01*
X139101380Y-90815921D01*
X139120190Y-90794323D01*
X139131340Y-90787248D01*
X139144395Y-90760322D01*
X139146298Y-90748715D01*
X139160533Y-90735610D01*
X139170006Y-90729325D01*
X139176670Y-90702829D01*
X139180699Y-90682715D01*
X139199419Y-90661318D01*
X139216516Y-90646051D01*
X139232348Y-90612032D01*
X139233776Y-90606538D01*
X139245032Y-90575982D01*
X139265059Y-90545224D01*
X139300937Y-90503009D01*
X139315521Y-90479922D01*
X139330760Y-90439682D01*
X139342597Y-90408905D01*
X139363831Y-90379277D01*
X139375083Y-90366974D01*
X139386454Y-90338272D01*
X139387775Y-90328994D01*
X139400842Y-90316042D01*
X139412896Y-90305908D01*
X139425355Y-90275699D01*
X139436015Y-90249048D01*
X139451310Y-90235356D01*
X139460509Y-90229306D01*
X139467140Y-90203081D01*
X139471325Y-90184257D01*
X139489283Y-90170807D01*
X139492305Y-90170373D01*
X139509365Y-90150907D01*
X139521467Y-90108019D01*
X139523722Y-90096340D01*
X139537857Y-90056619D01*
X139555804Y-90035908D01*
X139567057Y-90028867D01*
X139580101Y-90002788D01*
X139586006Y-89984438D01*
X139609920Y-89957904D01*
X139613032Y-89955434D01*
X139635578Y-89922927D01*
X139650702Y-89877861D01*
X139652459Y-89869567D01*
X139667065Y-89830444D01*
X139685432Y-89809784D01*
X139696162Y-89802987D01*
X139709198Y-89775951D01*
X139711064Y-89764349D01*
X139725028Y-89751239D01*
X139738025Y-89741119D01*
X139750983Y-89710896D01*
X139760977Y-89684214D01*
X139774215Y-89670553D01*
X139774485Y-89670543D01*
X139786754Y-89656004D01*
X139797953Y-89622141D01*
X139798166Y-89621187D01*
X139809850Y-89587637D01*
X139822968Y-89573729D01*
X139833374Y-89565250D01*
X139854297Y-89534498D01*
X139878836Y-89489009D01*
X139893644Y-89459090D01*
X139927340Y-89394886D01*
X139954531Y-89350630D01*
X139979497Y-89319097D01*
X139989456Y-89305206D01*
X139999669Y-89274038D01*
X140001299Y-89263971D01*
X140015806Y-89250985D01*
X140024962Y-89245453D01*
X140031943Y-89219863D01*
X140035907Y-89198886D01*
X140056149Y-89164535D01*
X140070285Y-89148522D01*
X140080355Y-89130427D01*
X140083590Y-89120820D01*
X140102383Y-89094429D01*
X140140869Y-89049862D01*
X140151765Y-89032299D01*
X140161041Y-88993435D01*
X140165549Y-88972043D01*
X140185247Y-88950213D01*
X140198392Y-88940157D01*
X140209453Y-88909870D01*
X140213209Y-88891546D01*
X140232672Y-88869905D01*
X140251623Y-88850588D01*
X140266229Y-88813931D01*
X140277772Y-88780751D01*
X140291113Y-88766868D01*
X140303272Y-88756736D01*
X140315787Y-88726525D01*
X140325780Y-88699843D01*
X140339018Y-88686182D01*
X140339288Y-88686172D01*
X140351557Y-88671633D01*
X140362756Y-88637770D01*
X140362966Y-88636829D01*
X140374793Y-88603270D01*
X140388244Y-88589358D01*
X140392126Y-88588773D01*
X140403099Y-88572568D01*
X140404155Y-88567427D01*
X140417770Y-88539401D01*
X140441125Y-88501643D01*
X140466592Y-88465911D01*
X140486540Y-88443962D01*
X140496834Y-88426601D01*
X140508461Y-88391516D01*
X140520086Y-88361061D01*
X140533947Y-88347300D01*
X140540550Y-88344582D01*
X140548334Y-88323094D01*
X140550155Y-88311959D01*
X140564472Y-88298888D01*
X140573945Y-88292604D01*
X140580609Y-88266107D01*
X140584716Y-88245972D01*
X140603829Y-88224416D01*
X140604124Y-88224299D01*
X140623609Y-88203134D01*
X140638071Y-88165322D01*
X140651965Y-88124274D01*
X140671331Y-88092900D01*
X140682945Y-88077870D01*
X140693569Y-88047609D01*
X140695205Y-88037541D01*
X140709755Y-88024555D01*
X140714852Y-88022405D01*
X140733186Y-87999930D01*
X140753519Y-87960897D01*
X140782157Y-87912956D01*
X140821892Y-87887000D01*
X140850869Y-87875968D01*
X140874363Y-87857869D01*
X140881980Y-87852580D01*
X140919100Y-87844972D01*
X140986640Y-87840463D01*
X141085461Y-87838977D01*
X141170002Y-87839595D01*
X141230712Y-87841994D01*
X141270855Y-87846907D01*
X141296351Y-87855070D01*
X141313124Y-87867217D01*
X141335791Y-87884823D01*
X141364417Y-87895457D01*
X141377871Y-87901565D01*
X141387470Y-87927732D01*
X141391916Y-87946573D01*
X141410945Y-87960006D01*
X141412035Y-87960052D01*
X141431333Y-87976345D01*
X141445015Y-88016487D01*
X141446117Y-88021879D01*
X141459985Y-88058523D01*
X141478021Y-88072967D01*
X141492379Y-88081359D01*
X141500431Y-88111584D01*
X141505828Y-88137891D01*
X141524637Y-88159489D01*
X141535787Y-88166564D01*
X141548843Y-88193490D01*
X141550532Y-88205072D01*
X141563230Y-88218202D01*
X141575284Y-88228336D01*
X141587744Y-88258545D01*
X141598090Y-88285210D01*
X141612417Y-88298888D01*
X141612704Y-88298897D01*
X141625978Y-88313424D01*
X141637597Y-88347300D01*
X141637808Y-88348246D01*
X141649578Y-88381802D01*
X141662895Y-88395712D01*
X141666495Y-88397402D01*
X141678190Y-88419913D01*
X141687881Y-88460261D01*
X141689578Y-88469739D01*
X141702880Y-88509858D01*
X141720346Y-88524809D01*
X141732260Y-88529350D01*
X141742489Y-88553521D01*
X141749253Y-88576076D01*
X141774170Y-88605068D01*
X141796899Y-88630230D01*
X141815499Y-88671831D01*
X141827992Y-88703588D01*
X141848367Y-88724670D01*
X141863399Y-88740215D01*
X141871587Y-88774430D01*
X141876342Y-88801224D01*
X141895793Y-88815280D01*
X141909909Y-88821270D01*
X141919999Y-88847554D01*
X141923025Y-88866313D01*
X141936136Y-88879829D01*
X141945609Y-88886113D01*
X141952273Y-88912609D01*
X141956302Y-88932724D01*
X141975023Y-88954120D01*
X141991659Y-88968553D01*
X142007605Y-89002025D01*
X142017546Y-89027551D01*
X142031985Y-89041201D01*
X142032272Y-89041210D01*
X142045545Y-89055737D01*
X142057165Y-89089613D01*
X142057375Y-89090554D01*
X142069202Y-89124113D01*
X142082653Y-89138024D01*
X142089620Y-89140929D01*
X142097508Y-89162737D01*
X142099888Y-89174514D01*
X142120728Y-89196359D01*
X142139679Y-89215677D01*
X142154285Y-89252333D01*
X142165916Y-89285510D01*
X142179477Y-89299396D01*
X142185950Y-89301715D01*
X142194332Y-89322450D01*
X142196980Y-89336720D01*
X142214503Y-89367509D01*
X142222303Y-89376373D01*
X142260245Y-89429519D01*
X142285437Y-89480940D01*
X142292742Y-89496056D01*
X142309175Y-89509180D01*
X142317453Y-89515221D01*
X142323430Y-89541455D01*
X142327922Y-89560276D01*
X142347636Y-89573729D01*
X142363513Y-89581753D01*
X142371841Y-89614579D01*
X142377291Y-89643123D01*
X142394591Y-89664158D01*
X142411873Y-89679770D01*
X142427662Y-89714013D01*
X142439179Y-89744673D01*
X142461393Y-89778547D01*
X142475495Y-89800611D01*
X142484802Y-89841146D01*
X142489388Y-89865895D01*
X142504590Y-89876302D01*
X142518307Y-89881930D01*
X142529919Y-89908577D01*
X142536271Y-89931181D01*
X142548724Y-89944886D01*
X142560043Y-89955031D01*
X142572115Y-89985229D01*
X142582774Y-90011879D01*
X142598070Y-90025572D01*
X142605502Y-90028484D01*
X142613900Y-90050284D01*
X142616639Y-90062719D01*
X142638106Y-90084285D01*
X142653408Y-90099025D01*
X142662312Y-90132697D01*
X142667481Y-90159441D01*
X142685061Y-90180550D01*
X142702704Y-90196850D01*
X142718415Y-90231533D01*
X142731497Y-90263636D01*
X142757907Y-90298949D01*
X142777911Y-90322240D01*
X142799299Y-90363701D01*
X142811656Y-90392686D01*
X142833881Y-90425368D01*
X142845334Y-90440188D01*
X142855958Y-90470498D01*
X142857588Y-90480565D01*
X142872096Y-90493552D01*
X142879675Y-90496466D01*
X142888233Y-90518264D01*
X142890972Y-90530699D01*
X142912439Y-90552265D01*
X142927741Y-90567005D01*
X142936644Y-90600676D01*
X142942131Y-90627515D01*
X142960850Y-90649088D01*
X142972061Y-90655831D01*
X142985056Y-90679704D01*
X142988330Y-90694118D01*
X143007133Y-90723107D01*
X143023052Y-90744486D01*
X143041536Y-90784022D01*
X143053554Y-90812107D01*
X143075940Y-90844936D01*
X143087018Y-90860245D01*
X143098017Y-90898135D01*
X143102373Y-90915892D01*
X143122223Y-90929257D01*
X143138012Y-90937153D01*
X143146428Y-90969600D01*
X143150435Y-90996133D01*
X143162566Y-91009943D01*
X143170145Y-91012857D01*
X143178703Y-91034655D01*
X143181442Y-91047090D01*
X143202909Y-91068656D01*
X143214244Y-91074830D01*
X143227115Y-91093508D01*
X143231532Y-91106862D01*
X143251320Y-91133277D01*
X143264553Y-91151606D01*
X143275526Y-91188605D01*
X143278395Y-91206263D01*
X143291663Y-91219727D01*
X143298710Y-91222055D01*
X143307801Y-91242780D01*
X143311025Y-91257964D01*
X143329878Y-91287910D01*
X143344402Y-91306744D01*
X143363239Y-91345543D01*
X143373298Y-91367710D01*
X143388292Y-91381099D01*
X143388570Y-91381109D01*
X143401300Y-91395642D01*
X143412693Y-91429511D01*
X143412902Y-91430452D01*
X143424730Y-91464011D01*
X143438181Y-91477923D01*
X143445147Y-91480827D01*
X143453036Y-91502635D01*
X143455415Y-91514413D01*
X143476256Y-91536257D01*
X143495206Y-91555575D01*
X143509812Y-91592231D01*
X143521444Y-91625409D01*
X143535004Y-91639295D01*
X143541478Y-91641613D01*
X143549859Y-91662348D01*
X143552507Y-91676619D01*
X143570031Y-91707407D01*
X143603930Y-91751816D01*
X143652864Y-91843075D01*
X143654293Y-91846186D01*
X143675014Y-91883190D01*
X143693448Y-91904542D01*
X143704464Y-91919639D01*
X143711231Y-91953836D01*
X143716322Y-91978562D01*
X143742384Y-92002027D01*
X143766549Y-92021504D01*
X143784010Y-92059594D01*
X143784084Y-92059931D01*
X143795737Y-92093379D01*
X143809030Y-92107275D01*
X143820897Y-92116792D01*
X143833410Y-92146450D01*
X143844806Y-92173234D01*
X143865991Y-92194355D01*
X143880723Y-92209793D01*
X143888741Y-92243935D01*
X143892359Y-92270949D01*
X143903129Y-92284784D01*
X143915183Y-92294918D01*
X143927642Y-92325127D01*
X143938302Y-92351778D01*
X143953597Y-92365470D01*
X143961029Y-92368382D01*
X143969427Y-92390183D01*
X143971806Y-92401960D01*
X143992647Y-92423805D01*
X144011597Y-92443123D01*
X144026204Y-92479779D01*
X144037466Y-92512968D01*
X144050113Y-92526842D01*
X144050389Y-92526852D01*
X144062984Y-92541387D01*
X144074319Y-92575254D01*
X144074535Y-92576225D01*
X144086035Y-92609764D01*
X144098720Y-92623666D01*
X144109948Y-92631840D01*
X144123818Y-92659975D01*
X144132916Y-92684056D01*
X144145077Y-92704352D01*
X144165412Y-92729154D01*
X144188911Y-92768149D01*
X144205768Y-92805210D01*
X144213072Y-92820326D01*
X144229505Y-92833450D01*
X144236185Y-92836350D01*
X144243760Y-92858162D01*
X144246139Y-92869940D01*
X144266980Y-92891785D01*
X144285930Y-92911102D01*
X144300536Y-92947759D01*
X144311664Y-92980952D01*
X144323979Y-92994822D01*
X144335194Y-93004969D01*
X144347210Y-93035165D01*
X144357556Y-93061830D01*
X144371883Y-93075508D01*
X144385163Y-93089275D01*
X144396768Y-93122572D01*
X144410408Y-93157617D01*
X144430324Y-93178546D01*
X144442948Y-93188414D01*
X144453544Y-93218510D01*
X144457451Y-93236873D01*
X144477750Y-93258853D01*
X144493409Y-93274624D01*
X144501956Y-93308992D01*
X144506017Y-93336016D01*
X144518093Y-93349841D01*
X144525672Y-93352756D01*
X144534230Y-93374554D01*
X144536527Y-93386224D01*
X144556980Y-93407996D01*
X144573616Y-93422428D01*
X144589562Y-93455901D01*
X144599572Y-93481423D01*
X144614235Y-93495076D01*
X144619217Y-93498467D01*
X144630547Y-93524463D01*
X144639966Y-93567694D01*
X144647286Y-93605247D01*
X144660507Y-93632728D01*
X144681298Y-93640311D01*
X144699622Y-93645087D01*
X144711740Y-93671433D01*
X144714741Y-93690051D01*
X144733817Y-93724632D01*
X144749735Y-93746010D01*
X144768220Y-93785546D01*
X144780237Y-93813631D01*
X144802623Y-93846461D01*
X144814156Y-93861156D01*
X144824700Y-93889865D01*
X144827471Y-93900805D01*
X144848906Y-93920480D01*
X144860057Y-93927555D01*
X144873112Y-93954481D01*
X144874977Y-93966083D01*
X144888942Y-93979193D01*
X144901939Y-93989313D01*
X144914897Y-94019536D01*
X144925204Y-94046203D01*
X144939410Y-94059879D01*
X144946154Y-94062780D01*
X144953798Y-94084592D01*
X144956178Y-94096369D01*
X144977018Y-94118214D01*
X144995661Y-94136837D01*
X145010330Y-94173073D01*
X145023057Y-94208760D01*
X145043590Y-94238250D01*
X145055383Y-94251153D01*
X145066759Y-94279708D01*
X145068125Y-94288994D01*
X145081614Y-94301938D01*
X145081905Y-94301947D01*
X145095392Y-94316471D01*
X145107102Y-94350349D01*
X145107311Y-94351291D01*
X145119139Y-94384850D01*
X145132590Y-94398761D01*
X145139412Y-94401482D01*
X145147445Y-94422967D01*
X145149229Y-94434098D01*
X145163275Y-94447173D01*
X145175969Y-94456678D01*
X145188937Y-94486348D01*
X145200333Y-94513132D01*
X145221519Y-94534254D01*
X145231451Y-94540560D01*
X145244268Y-94567696D01*
X145246171Y-94579303D01*
X145260406Y-94592408D01*
X145271019Y-94602424D01*
X145276543Y-94632751D01*
X145281280Y-94659066D01*
X145300749Y-94673094D01*
X145316626Y-94681118D01*
X145324954Y-94713944D01*
X145330404Y-94742488D01*
X145347704Y-94763523D01*
X145364986Y-94779135D01*
X145380775Y-94813378D01*
X145392292Y-94844037D01*
X145414506Y-94877911D01*
X145426933Y-94895118D01*
X145437915Y-94932442D01*
X145442271Y-94950199D01*
X145462121Y-94963564D01*
X145477910Y-94971460D01*
X145486327Y-95003907D01*
X145490333Y-95030440D01*
X145502464Y-95044250D01*
X145510043Y-95047165D01*
X145518601Y-95068963D01*
X145521340Y-95081397D01*
X145542807Y-95102964D01*
X145555952Y-95113020D01*
X145567013Y-95143307D01*
X145570769Y-95161631D01*
X145590233Y-95183271D01*
X145609183Y-95202589D01*
X145623789Y-95239245D01*
X145635421Y-95272423D01*
X145648981Y-95286309D01*
X145655803Y-95289030D01*
X145663836Y-95310515D01*
X145665621Y-95321645D01*
X145679666Y-95334721D01*
X145692663Y-95344840D01*
X145705621Y-95375064D01*
X145715614Y-95401746D01*
X145728852Y-95415407D01*
X145729804Y-95415534D01*
X145742004Y-95431770D01*
X145753276Y-95466939D01*
X145767650Y-95509530D01*
X145786833Y-95540709D01*
X145798447Y-95555739D01*
X145809071Y-95586000D01*
X145810565Y-95596046D01*
X145823926Y-95609053D01*
X145824217Y-95609063D01*
X145837705Y-95623587D01*
X145840873Y-95632753D01*
X145849414Y-95657465D01*
G37*
%TD*%
M02*
